<svg width="538" height="444" viewBox="0 0 538 444" fill="none" xmlns="http://www.w3.org/2000/svg">
<path opacity="0.1" d="M312.565 51.2066C278.076 50.1885 245.229 40.6796 213.885 30.2752C182.541 19.8707 151.425 8.36298 117.762 2.85163C96.1123 -0.692912 71.354 -1.19394 53.9092 8.71477C37.1195 18.2504 31.6979 34.7152 28.7818 49.9967C26.583 61.4884 25.2939 73.5878 31.308 84.344C35.4665 91.8062 42.8945 98.0904 48.0198 105.243C65.8492 130.141 53.2491 160.837 33.9227 185.142C24.8572 196.543 14.3416 207.422 7.34495 219.559C0.348355 231.696 -2.87445 245.613 3.23328 257.978C9.29943 270.238 23.7553 279.464 39.417 285.951C71.224 299.116 108.707 302.885 145.255 305.022C226.158 309.745 307.497 307.687 388.618 305.651C418.637 304.894 448.791 304.127 478.326 300.161C494.726 297.96 511.656 294.469 523.549 286.036C538.665 275.333 542.408 257.206 532.282 243.784C515.295 221.27 468.346 215.679 456.448 191.517C449.908 178.218 456.624 163.401 466.121 151.067C486.498 124.608 520.654 101.395 522.453 71.1519C523.685 50.3644 507.269 29.5769 481.882 19.7481C455.273 9.445 418.372 10.7402 398.713 27.7966C378.539 45.3541 343.015 52.1287 312.565 51.2066Z" fill="#1E77F0"/>
<path opacity="0.1" d="M226.35 443.792C309.819 443.792 377.484 436.795 377.484 428.164C377.484 419.533 309.819 412.536 226.35 412.536C142.881 412.536 75.2161 419.533 75.2161 428.164C75.2161 436.795 142.881 443.792 226.35 443.792Z" fill="#1E77F0"/>
<path d="M88.0917 426.469C88.0917 426.469 81.3862 387.511 56.4978 368.205C46.0549 360.104 38.4137 349.086 35.0766 336.539C33.5061 330.594 32.4999 324.507 32.0721 318.363" stroke="#535461" stroke-width="2" stroke-miterlimit="10"/>
<path d="M16.4675 306.104C18.5467 310.278 32.4411 318.726 32.4411 318.726C32.4411 318.726 34.1877 302.943 32.0929 298.765C29.998 294.586 24.8156 292.843 20.4908 294.868C16.166 296.894 14.3726 301.925 16.4675 306.104Z" fill="#1E77F0"/>
<path d="M15.142 335.308C19.2484 337.712 35.6432 337.499 35.6432 337.499C35.6432 337.499 28.2463 323.331 24.1554 320.927C20.0645 318.523 14.7157 319.792 12.2311 323.763C9.74638 327.734 11.0407 332.904 15.142 335.308Z" fill="#1E77F0"/>
<path d="M35.5236 374.602C40.3162 374.671 54.3562 366.473 54.3562 366.473C54.3562 366.473 40.5865 357.86 35.7887 357.785C30.9909 357.71 27.0455 361.42 26.952 366.063C26.8584 370.705 30.7258 374.516 35.5236 374.602Z" fill="#1E77F0"/>
<path d="M57.8545 400.949C62.5639 401.807 77.8358 396.018 77.8358 396.018C77.8358 396.018 65.7659 385.262 61.0617 384.42C56.3574 383.578 51.8091 386.552 50.9255 391.136C50.0418 395.72 53.1398 400.096 57.8545 400.949Z" fill="#1E77F0"/>
<path d="M52.4537 330.601C50.8163 334.967 37.8991 344.753 37.8991 344.753C37.8991 344.753 34.4788 329.232 36.1162 324.866C37.7536 320.501 42.7385 318.246 47.2452 319.829C51.752 321.412 54.0911 326.241 52.4537 330.601Z" fill="#1E77F0"/>
<path d="M78.1685 361.751C75.2576 365.445 59.9129 371.041 59.9129 371.041C59.9129 371.041 61.4723 355.237 64.3625 351.549C65.8224 349.759 67.8871 348.601 70.1439 348.304C72.4008 348.008 74.6837 348.595 76.5363 349.95C77.4357 350.585 78.1969 351.405 78.7716 352.358C79.3464 353.31 79.7224 354.374 79.8757 355.483C80.0291 356.592 79.9566 357.722 79.6627 358.801C79.3689 359.879 78.8601 360.884 78.1685 361.751Z" fill="#1E77F0"/>
<path d="M98.8672 395.347C96.6425 399.461 82.4985 407.489 82.4985 407.489C82.4985 407.489 81.2562 391.663 83.481 387.549C85.7057 383.434 90.9506 381.845 95.2026 383.999C99.4546 386.152 101.087 391.232 98.8672 395.347Z" fill="#1E77F0"/>
<path opacity="0.25" d="M16.4675 306.104C18.5467 310.278 32.4411 318.726 32.4411 318.726C32.4411 318.726 34.1877 302.943 32.0929 298.765C29.998 294.586 24.8156 292.843 20.4908 294.868C16.166 296.894 14.3726 301.925 16.4675 306.104Z" fill="black"/>
<path opacity="0.25" d="M15.142 335.308C19.2484 337.712 35.6432 337.499 35.6432 337.499C35.6432 337.499 28.2463 323.331 24.1554 320.927C20.0645 318.523 14.7157 319.792 12.2311 323.763C9.74638 327.734 11.0407 332.904 15.142 335.308Z" fill="black"/>
<path opacity="0.25" d="M35.5236 374.602C40.3162 374.671 54.3562 366.473 54.3562 366.473C54.3562 366.473 40.5865 357.86 35.7887 357.785C30.9909 357.71 27.0455 361.42 26.952 366.063C26.8584 370.705 30.7258 374.516 35.5236 374.602Z" fill="black"/>
<path opacity="0.25" d="M57.8545 400.949C62.5639 401.807 77.8358 396.018 77.8358 396.018C77.8358 396.018 65.7659 385.262 61.0617 384.42C56.3574 383.578 51.8091 386.552 50.9255 391.136C50.0418 395.72 53.1398 400.096 57.8545 400.949Z" fill="black"/>
<path opacity="0.25" d="M52.4537 330.601C50.8163 334.967 37.8991 344.753 37.8991 344.753C37.8991 344.753 34.4788 329.232 36.1162 324.866C37.7536 320.501 42.7385 318.246 47.2452 319.829C51.752 321.412 54.0911 326.241 52.4537 330.601Z" fill="black"/>
<path opacity="0.25" d="M78.1685 361.751C75.2576 365.445 59.9129 371.041 59.9129 371.041C59.9129 371.041 61.4723 355.237 64.3625 351.549C65.8224 349.759 67.8871 348.601 70.1439 348.304C72.4008 348.008 74.6837 348.595 76.5363 349.95C77.4357 350.585 78.1969 351.405 78.7716 352.358C79.3464 353.31 79.7224 354.374 79.8757 355.483C80.0291 356.592 79.9566 357.722 79.6627 358.801C79.3689 359.879 78.8601 360.884 78.1685 361.751Z" fill="black"/>
<path opacity="0.25" d="M98.8672 395.347C96.6425 399.461 82.4985 407.489 82.4985 407.489C82.4985 407.489 81.2562 391.663 83.481 387.549C85.7057 383.434 90.9506 381.845 95.2026 383.999C99.4546 386.152 101.087 391.232 98.8672 395.347Z" fill="black"/>
<path d="M87.2496 425.446C87.2496 425.446 97.4222 387.197 82.7532 359.779C76.5987 348.276 74.2232 335.207 76.4272 322.425C77.4852 316.348 79.1129 310.39 81.2874 304.633" stroke="#535461" stroke-width="2" stroke-miterlimit="10"/>
<path d="M72.1492 287.305C72.3155 291.942 81.4693 305.113 81.4693 305.113C81.4693 305.113 89.6719 291.366 89.5055 286.724C89.3392 282.081 85.3211 278.451 80.5285 278.611C75.7359 278.771 71.9777 282.662 72.1492 287.305Z" fill="#1E77F0"/>
<path d="M58.7174 313.486C61.4619 317.292 76.5363 323.528 76.5363 323.528C76.5363 323.528 75.7046 307.677 72.9601 303.866C71.5719 302.02 69.555 300.779 67.3132 300.393C65.0713 300.006 62.7699 300.502 60.8694 301.781C59.9458 302.376 59.152 303.16 58.5378 304.084C57.9236 305.009 57.5023 306.053 57.3002 307.152C57.0982 308.251 57.1198 309.381 57.3636 310.471C57.6075 311.561 58.0684 312.588 58.7174 313.486Z" fill="#1E77F0"/>
<path d="M60.9006 357.391C65.2566 359.336 81.5265 357.353 81.5265 357.353C81.5265 357.353 72.5391 344.071 68.1831 342.125C63.8271 340.18 58.6706 342.019 56.659 346.235C54.6473 350.451 56.5498 355.445 60.9006 357.391Z" fill="#1E77F0"/>
<path d="M70.2831 390.251C74.2388 392.884 90.6179 393.582 90.6179 393.582C90.6179 393.582 84.0787 379.026 80.1282 376.398C78.2243 375.126 75.922 374.639 73.6827 375.035C71.4434 375.43 69.4326 376.678 68.0531 378.53C67.405 379.434 66.9468 380.466 66.7073 381.561C66.4679 382.656 66.4525 383.79 66.6621 384.892C66.8716 385.993 67.3016 387.038 67.9248 387.96C68.5481 388.883 69.351 389.663 70.2831 390.251Z" fill="#1E77F0"/>
<path d="M94.7972 323.822C91.4704 327.169 75.5643 331.055 75.5643 331.055C75.5643 331.055 78.9379 315.517 82.2594 312.17C83.9032 310.555 86.0799 309.633 88.3562 309.59C90.6325 309.547 92.8413 310.384 94.5425 311.935C95.3601 312.674 96.0194 313.578 96.4789 314.591C96.9383 315.604 97.1879 316.704 97.2118 317.821C97.2358 318.938 97.0335 320.048 96.6179 321.081C96.2023 322.114 95.5823 323.047 94.7972 323.822Z" fill="#1E77F0"/>
<path d="M105.245 362.385C101.04 364.618 84.6713 363.718 84.6713 363.718C84.6713 363.718 92.6919 349.859 96.8972 347.642C101.102 345.425 106.384 346.901 108.686 350.973C110.989 355.045 109.471 360.152 105.245 362.385Z" fill="#1E77F0"/>
<path d="M110.126 401.22C106.368 404.109 90.0773 405.9 90.0773 405.9C90.0773 405.9 95.5665 390.938 99.3247 388.05C101.152 386.659 103.423 386.027 105.684 386.279C107.946 386.531 110.031 387.649 111.525 389.409C112.231 390.26 112.757 391.253 113.071 392.323C113.384 393.393 113.478 394.519 113.347 395.628C113.216 396.738 112.862 397.808 112.307 398.77C111.753 399.732 111.01 400.567 110.126 401.22Z" fill="#1E77F0"/>
<path d="M515.757 202.097C516.069 201.223 513.73 196.378 513.73 196.138C513.73 195.898 511.313 193.196 511.313 191.688C511.313 190.179 508.111 186.922 508.111 186.922C508.111 186.922 503.823 185.094 503.355 181.123C502.887 177.152 498.214 177.067 498.204 177.067C498.204 177.067 498.204 176.705 498.235 176.156C498.235 174.919 498.198 172.712 497.658 171.508C497.101 170.411 496.148 169.583 495.002 169.2C495.002 169.2 494.534 166.103 493.598 165.149C493.075 164.589 492.7 163.902 492.508 163.152C492.316 162.402 492.314 161.614 492.501 160.863C492.969 159.355 491.877 155.533 489.611 155C487.345 154.467 484.777 153.572 484.777 153.572C484.777 153.572 484.522 153.62 484.153 153.673L483.841 153.572C483.298 153.674 482.75 153.744 482.199 153.78C481.721 153.797 481.252 153.638 480.878 153.332C480.093 152.458 473.773 150.789 472.603 150.789C471.433 150.789 468.076 149.19 468.076 149.19L464.728 146.568C463.787 145.832 462.046 142.837 461.791 142.416L461.76 142.357C461.472 141.68 461.236 140.982 461.053 140.268C462.194 139.044 463.17 137.669 463.953 136.18C464.037 136.025 464.109 135.865 464.182 135.711C464.359 135.707 464.534 135.679 464.702 135.625C464.77 135.625 464.837 135.572 464.905 135.545C465.696 135.118 466.292 134.388 466.563 133.515C466.62 133.344 466.672 133.168 466.714 132.981C466.714 132.923 466.714 132.859 466.75 132.8C466.786 132.742 466.802 132.56 466.823 132.438C466.844 132.315 466.849 132.299 466.859 132.235C466.87 132.171 466.896 131.995 466.911 131.873C466.927 131.75 466.911 131.74 466.911 131.676C466.911 131.521 466.948 131.372 466.968 131.223C467.021 130.659 467.103 130.098 467.213 129.544C467.68 127.412 468.944 125.567 469.843 123.574C469.973 123.291 470.092 122.998 470.202 122.705C470.311 122.412 470.42 122.065 470.508 121.74L470.586 121.442C470.643 121.207 470.695 120.967 470.742 120.728C470.742 120.621 470.784 120.514 470.799 120.408C470.851 120.077 470.898 119.747 470.924 119.411C471.092 117.507 470.827 115.59 470.15 113.809C469.562 112.317 468.694 110.973 468.102 109.481C467.202 107.221 466.968 104.684 465.872 102.509C464.037 98.8953 459.712 97.0884 456.156 98.4476C454.457 99.0925 452.986 100.35 451.265 100.915C448.957 101.667 446.493 101.102 444.107 100.761C441.721 100.42 439.081 100.393 437.163 101.992C434.953 103.831 434.345 107.29 432.271 109.31C431.403 110.158 430.317 110.702 429.397 111.485C428.751 112.016 428.254 112.713 427.957 113.505C427.957 113.564 427.92 113.617 427.905 113.676C427.889 113.734 427.868 113.809 427.853 113.878C427.837 113.948 427.822 114.038 427.811 114.118C427.801 114.198 427.811 114.23 427.811 114.283C427.801 114.425 427.801 114.568 427.811 114.71C427.826 114.844 427.849 114.978 427.879 115.11C427.879 115.147 427.879 115.184 427.879 115.221C427.879 115.259 427.941 115.44 427.978 115.552C427.975 115.573 427.975 115.595 427.978 115.616C428.019 115.739 428.066 115.856 428.113 115.978L428.191 116.16L428.253 116.309C428.558 116.895 428.8 117.514 428.976 118.153C429.073 118.558 429.049 118.983 428.908 119.374C428.696 119.816 428.401 120.211 428.04 120.536C426.488 122.192 425.289 124.161 424.521 126.319C424.433 126.564 424.344 126.809 424.266 127.065L424.375 127.092C424.598 127.162 424.826 127.213 425.056 127.246C425.186 127.246 425.316 127.278 425.451 127.289C425.985 127.318 426.52 127.275 427.042 127.161C427.172 127.134 427.307 127.102 427.437 127.065C427.972 126.913 428.494 126.716 428.996 126.473C428.996 126.633 428.996 126.799 428.996 126.958C428.996 127.118 428.996 127.14 428.996 127.23C429.002 130.745 429.963 134.188 431.77 137.173C433.578 140.159 436.162 142.569 439.231 144.132C439.231 144.303 439.278 144.479 439.299 144.665C439.32 144.852 439.335 144.953 439.351 145.097L439.143 144.889C439.143 144.889 437.734 144.175 436.409 146.238C435.083 148.3 432.588 149.26 432.588 149.26C432.588 149.26 418.387 151.562 417.841 153.471L411.209 153.865C411.209 153.865 408.864 154.185 408.61 159.195C408.355 164.205 407.128 164.68 407.128 164.68C407.128 164.68 404.399 169.605 404.633 172.142C404.867 174.679 402.554 175.958 402.554 175.958L402.242 180.484C402.242 180.484 399.643 180.089 398.962 183.186C398.281 186.283 397.013 187.717 397.013 187.717C397.013 187.717 392.719 191.373 392.485 194.47L389.834 196.138C389.834 196.138 383.669 194.71 382.266 192.167L381.834 191.752C381.82 191.731 381.808 191.71 381.798 191.688C381.797 191.698 381.797 191.709 381.798 191.72C380.873 190.824 378.918 188.959 379.199 189.385C379.381 189.784 379.425 190.236 379.324 190.664L378.866 190.131L377.64 188.735C377.64 188.735 367.675 179.14 361.822 178.405C361.744 178.25 361.37 176.742 360.372 177.685C359.543 178.462 358.88 179.407 358.424 180.46C357.969 181.512 357.731 182.65 357.726 183.802C357.72 184.954 357.947 186.094 358.393 187.151C358.839 188.208 359.493 189.159 360.314 189.945L369.645 198.883L369.884 199.064L371.891 201.73C371.553 202.561 371.267 203.366 371.033 204.101C371.033 204.101 371.033 204.149 371.007 204.171C370.96 204.331 370.908 204.48 370.861 204.629L370.815 204.789C370.773 204.938 370.726 205.088 370.685 205.226C370.643 205.365 370.638 205.402 370.612 205.487C370.586 205.573 370.612 205.589 370.57 205.637C370.352 206.436 370.206 207.049 370.134 207.39L369.614 207.225L370.134 207.449C370.134 207.475 370.134 207.507 370.134 207.534L370.102 207.699L370.581 207.912C373.315 209.133 386.96 215.268 387.661 216.201C388.441 217.23 393.587 220.252 398.271 217.709C402.954 215.167 403.989 211.27 403.989 211.27C403.989 211.27 408.511 204.837 408.667 203.883C408.823 202.929 412.337 201.815 412.337 201.815C412.337 201.815 412.649 212.475 410.855 216.355C409.062 220.236 405.704 237.495 405.704 237.495C405.923 237.45 406.147 237.435 406.369 237.452C406.245 238.076 406.172 238.449 406.172 238.449C406.445 238.398 406.725 238.398 406.998 238.449C406.749 240.41 405.314 249.514 405.314 249.514C405.314 249.514 404.846 253.645 404.067 255.074C403.287 256.502 403.209 263.975 403.209 263.975L401.961 269.374C402.104 269.693 402.261 270.004 402.434 270.307C402.434 270.307 403.775 273.356 406.026 275.067C405.923 275.916 405.712 276.747 405.397 277.54C404.909 278.745 404.696 280.049 404.773 281.351C404.773 281.351 403.448 287.47 403.604 289.218C403.76 290.967 402.746 295.257 402.746 295.257L401.296 309.041C401.296 309.041 400.36 321.039 400.828 324.301C401.296 327.563 400.511 332.003 400.511 332.003C400.511 332.003 401.447 341.459 401.213 342.493C400.979 343.527 399.809 347.972 400.511 350.44C401.213 352.908 400.828 359.656 400.828 359.656C400.828 359.656 401.296 368.552 401.837 371.414C402.377 374.277 401.681 377.933 401.681 377.933C401.681 377.933 401.161 384.047 400.901 384.047C400.641 384.047 398.64 388.258 402.772 392.394C406.905 396.53 404.332 395.885 404.332 395.885C404.332 395.885 401.057 394.217 401.442 397.633C401.816 400.885 402.33 400.037 402.377 399.947L401.597 402.558L402.117 402.638L401.665 403.171C401.197 403.778 400.675 404.338 400.106 404.845C399.165 405.559 399.066 407.148 399.066 407.148C399.066 407.148 393.296 413.586 387.911 416.843C385.078 418.559 382.635 420.009 381.569 421.208C380.608 422.274 380.764 423.159 382.76 423.836C386.975 425.265 394.383 425.968 399.69 424.156C402.853 423.072 405.698 421.185 407.96 418.671C407.96 418.671 411.318 416.923 414.598 417.557C417.878 418.192 424.427 413.826 424.427 413.826L424.308 412.696L423.96 409.45C423.739 409.177 423.577 408.859 423.483 408.518C423.389 408.176 423.365 407.819 423.414 407.467C423.453 406.506 423.36 405.545 423.138 404.61C423.086 404.296 423.024 403.981 422.967 403.688L423.564 403.576C423.564 403.576 422.79 399.52 424.193 398.726C425.597 397.932 425.202 387.533 425.202 387.533C425.202 387.533 423.414 385.15 422.473 384.756C421.532 384.361 422.395 379.425 422.556 378.791C422.717 378.157 423.96 365.839 423.96 365.839C423.96 365.839 423.492 361.948 424.115 360.28C424.739 358.611 423.367 352.215 423.367 352.215C423.367 352.215 422.899 351.421 423.762 350.467C424.625 349.513 424.282 341.011 424.282 341.011C424.282 341.011 424.209 336.72 424.209 335.606C424.209 334.492 425.145 330.442 426.002 329.093C426.86 327.745 426.314 323.528 426.314 323.528L426.361 323.214C426.361 323.091 426.403 322.942 426.434 322.761L426.501 322.34C426.882 319.999 427.397 317.683 428.045 315.405C429.085 312.069 430.228 306.189 430.228 306.189L437.506 286.788L437.589 286.559C437.589 286.559 440.942 292.917 440.942 298.818C440.942 298.818 441.799 305.891 441.565 307.799C441.331 309.707 442.257 318.635 442.257 318.635C442.257 318.635 443.27 331.508 443.27 332.067C443.27 332.627 444.518 342.557 445.303 344.065C446.088 345.574 444.518 350.184 444.05 350.659C443.582 351.133 444.206 362.817 444.206 362.817C444.206 362.817 443.036 372.033 442.803 373.941C442.569 375.849 441.633 383.162 442.413 386.019C443.192 388.876 442.881 389.276 442.881 389.276C442.881 389.276 445.693 392.218 444.05 392.474C443.453 392.607 442.891 392.87 442.401 393.244C441.911 393.619 441.504 394.096 441.209 394.645C440.914 395.194 440.736 395.801 440.688 396.426C440.64 397.05 440.723 397.678 440.931 398.268C441.903 401.181 443.05 404.029 444.367 406.796C444.367 406.796 444.851 406.684 445.656 406.519V407.462L445.75 412.195C445.75 412.195 446.27 416.726 445.984 417.76C445.755 418.517 445.464 422.077 445.292 423.937C445.235 424.614 445.204 425.067 445.204 425.067C445.204 425.067 445.204 429.278 453.864 428.01C462.524 426.741 464.083 423.245 464.083 423.245C464.083 423.245 464.083 423.079 464.146 422.807C464.276 422.003 464.556 420.297 464.785 419.348C465.097 418.074 462.29 412.355 462.29 412.355C462.29 412.355 461.822 408.464 461.037 407.59C460.716 407.086 460.503 406.517 460.414 405.922C460.341 405.602 460.278 405.266 460.226 404.941C460.42 404.966 460.613 405.002 460.803 405.047C460.803 405.047 460.336 402.265 462.134 401.391C463.933 400.517 463.46 398.694 463.226 397.894C462.992 397.095 463.927 392.65 463.927 392.65C463.802 392.208 463.794 391.74 463.903 391.294C464.013 390.848 464.237 390.44 464.551 390.112C465.648 388.993 466.501 381.211 466.501 381.211L466.656 351.176C466.656 351.176 467.207 345.846 466.584 343.714C465.96 341.582 465.331 337.44 466.189 336.326C467.046 335.212 466.267 330.052 466.267 330.052C466.267 330.052 466.267 319.163 467.441 316.466C468.616 313.769 468.221 296.681 468.221 296.681L468.528 285.487C468.528 285.487 471.08 283.014 470.477 270.12C473.196 269.945 476.262 269.843 476.715 270.227C477.572 270.947 483.114 274.598 486.388 272.295C487.09 271.975 490.287 269.198 490.287 269.198L488.915 245.373C489.772 246.7 490.292 247.585 490.292 247.585C490.292 244.248 499.498 233.438 499.498 233.438C499.498 233.438 508.08 222.08 509.951 220.726C511.822 219.372 515.492 212.225 515.492 212.225C516.034 210.861 516.661 209.535 517.369 208.254C518.258 206.788 515.446 202.971 515.757 202.097ZM495.62 210.434C493.281 210.674 488.343 216.158 488.286 217.363C488.249 217.992 487.729 218.834 487.246 219.495C487.21 219.015 487.168 218.525 487.132 218.029C486.581 211.009 485.983 202.454 486.253 201.623C486.726 200.194 486.565 193.761 486.565 193.761L486.648 193.638C488.208 198.622 493.109 204.501 493.109 204.501C493.109 204.501 493.967 207.044 494.981 207.124C495.994 207.204 495.62 210.434 495.62 210.434Z" fill="url(#paint0_linear)"/>
<path d="M370.523 208.627C370.523 208.627 373.367 193.329 382.521 193.249L389.21 207.363L384.751 210.519C384.751 210.519 375.061 210.833 370.523 208.627Z" fill="#65617D"/>
<path opacity="0.1" d="M389.21 207.363L384.751 210.519C384.751 210.519 377.931 210.743 373.055 209.511C372.185 209.3 371.338 209.004 370.523 208.627C370.523 208.627 370.523 208.541 370.575 208.381C370.575 208.381 370.575 208.344 370.575 208.323C370.995 206.403 371.574 204.524 372.306 202.705C372.592 202.017 372.909 201.308 373.252 200.6C374.594 197.934 376.475 195.365 379.053 194.081C380.007 193.601 381.044 193.324 382.105 193.265H382.375H382.51L382.656 193.58L384.917 198.345L389.21 207.363Z" fill="black"/>
<path d="M465.185 270.92C465.185 270.92 474.802 269.977 475.644 270.685C476.486 271.394 481.949 275.019 485.182 272.732C488.416 270.446 486.258 262.482 486.258 262.168C486.258 261.853 485.952 250.575 485.952 250.575L480.182 242.612L472.957 228.657L458.194 227.154L458.579 249.317L458.501 260.67L465.185 270.92Z" fill="#65617D"/>
<path opacity="0.1" d="M465.185 270.92C465.185 270.92 474.802 269.977 475.644 270.685C476.486 271.394 481.949 275.019 485.182 272.732C488.416 270.446 486.258 262.482 486.258 262.168C486.258 261.853 485.952 250.575 485.952 250.575L480.182 242.612L472.957 228.657L458.194 227.154L458.579 249.317L458.501 260.67L465.185 270.92Z" fill="black"/>
<path d="M380.597 192.844C380.597 192.844 379.828 202.465 373.985 202.62C373.985 202.62 372.327 201.596 370.097 199.891C364.961 195.952 356.816 188.377 359.067 181.331C362.295 171.241 377.983 189.859 377.983 189.859L379.183 191.245L380.597 192.844Z" fill="#FBBEBE"/>
<path opacity="0.1" d="M380.597 192.844C380.597 192.844 379.828 202.465 373.985 202.62C373.985 202.62 372.327 201.596 370.097 199.891L369.603 199.235C370.595 199.765 371.688 200.067 372.805 200.12C373.684 200.156 374.553 199.916 375.296 199.434C376.038 198.951 376.62 198.248 376.964 197.417C377.579 196.18 378.118 194.906 378.58 193.601C378.865 192.841 379.067 192.051 379.183 191.245L380.597 192.844Z" fill="black"/>
<path d="M378.061 210.284L376.746 208.547L372.317 202.684L370.061 199.693C371.052 200.226 372.145 200.529 373.263 200.578C374.734 200.615 376.382 200.045 377.421 197.881C378.035 196.642 378.575 195.366 379.038 194.059C379.766 191.927 379.755 190.861 379.495 190.472C379.235 190.083 381.127 191.901 382.037 192.786L382.068 192.818L382.495 193.228L382.651 193.548L384.88 198.116C384.88 198.116 384.88 198.18 384.88 198.308C385.099 199.773 385.853 208.978 378.061 210.284Z" fill="#E7EFFD"/>
<path d="M424.126 413.251C424.126 413.251 417.665 417.589 414.437 416.982C411.209 416.374 407.898 418.09 407.898 418.09C405.672 420.582 402.865 422.455 399.742 423.532C394.544 425.345 387.214 424.63 383.061 423.213C381.096 422.541 380.935 421.677 381.881 420.606C382.921 419.412 385.343 417.978 388.119 416.273C393.426 413.043 399.113 406.678 399.113 406.678C399.113 406.678 399.191 405.079 400.116 404.397C400.686 403.894 401.208 403.337 401.675 402.734C402.502 401.732 403.276 400.687 403.276 400.687L422.281 401.252C422.281 401.252 422.603 402.654 422.858 404.088C423.074 405.018 423.164 405.974 423.123 406.929C423.074 407.276 423.095 407.629 423.184 407.967C423.274 408.306 423.43 408.622 423.643 408.896L423.986 412.094L424.126 413.251Z" fill="#65617D"/>
<path d="M463.881 418.693C463.652 419.636 463.361 421.326 463.252 422.12L463.184 422.557C463.184 422.557 461.625 426.027 453.116 427.29C444.606 428.553 444.58 424.369 444.58 424.369C444.58 424.369 444.611 423.921 444.663 423.244C444.814 421.4 445.121 417.866 445.35 417.115C445.651 416.091 445.116 411.593 445.116 411.593L445.027 406.897L444.96 403.635L459.114 402.132C459.201 403.217 459.354 404.296 459.572 405.362C459.658 405.954 459.869 406.519 460.19 407.02C460.959 407.888 461.417 411.753 461.417 411.753C461.417 411.753 464.187 417.429 463.881 418.693Z" fill="#65617D"/>
<path opacity="0.1" d="M422.281 401.252C422.281 401.252 422.603 402.654 422.858 404.088C420.804 404.477 411.832 406.071 409.592 404.957C407.05 403.694 401.592 402.985 401.592 402.985L401.681 402.665C402.507 401.663 403.282 400.618 403.282 400.618L422.281 401.252Z" fill="black"/>
<path opacity="0.1" d="M459.572 405.362C455.985 404.738 448.136 406.247 445.017 406.897L444.949 403.635L459.104 402.132C459.194 403.217 459.351 404.296 459.572 405.362Z" fill="black"/>
<path d="M467.551 285.823L467.244 296.942C467.244 296.942 467.629 313.897 466.475 316.578C465.321 319.259 465.321 330.063 465.321 330.063C465.321 330.063 466.09 335.185 465.243 336.289C464.395 337.392 465.014 341.491 465.627 343.623C466.241 345.755 465.705 351.037 465.705 351.037L465.549 380.843C465.549 380.843 464.707 388.567 463.626 389.675C463.316 390.003 463.096 390.408 462.988 390.851C462.88 391.294 462.889 391.758 463.013 392.196C463.013 392.196 462.093 396.61 462.321 397.404C462.55 398.198 463.013 400.005 461.245 400.869C459.478 401.732 459.935 404.498 459.935 404.498C455.709 403.47 443.712 406.236 443.712 406.236C442.416 403.496 441.286 400.676 440.328 397.793C440.122 397.21 440.039 396.587 440.085 395.968C440.132 395.349 440.306 394.748 440.597 394.203C440.889 393.659 441.29 393.185 441.774 392.812C442.258 392.439 442.814 392.177 443.406 392.042C445.017 391.802 442.252 388.886 442.252 388.886C442.252 388.886 442.558 388.492 441.789 385.656C441.02 382.821 441.94 375.529 442.174 373.664C442.407 371.798 443.556 362.625 443.556 362.625C443.556 362.625 442.943 351.037 443.406 350.563C443.868 350.088 445.402 345.515 444.637 344.017C443.873 342.52 442.631 332.664 442.631 332.11C442.631 331.556 441.638 318.785 441.638 318.785C441.638 318.785 440.713 309.873 440.947 307.98C441.181 306.088 440.328 299.074 440.328 299.074C440.328 293.211 437.022 286.926 437.022 286.926L436.939 287.156L429.813 306.408C429.813 306.408 428.659 312.239 427.661 315.549C427.029 317.8 426.528 320.087 426.158 322.398L426.091 322.819C426.091 322.995 426.039 323.145 426.023 323.262L425.976 323.582C425.976 323.582 426.496 327.76 425.665 329.104C424.833 330.447 423.897 334.466 423.897 335.569C423.897 336.672 423.975 340.931 423.975 340.931C423.975 340.931 424.282 349.369 423.455 350.318C422.629 351.266 423.065 352.05 423.065 352.05C423.065 352.05 424.448 358.446 423.835 360.093C423.221 361.74 423.684 365.61 423.684 365.61C423.684 365.61 422.452 377.837 422.301 378.466C422.151 379.095 421.298 383.988 422.223 384.382C423.149 384.777 424.911 387.138 424.911 387.138C424.911 387.138 425.301 397.473 423.913 398.257C422.525 399.04 423.294 403.054 423.294 403.054C423.294 403.054 412.15 405.261 409.613 403.997C407.076 402.734 401.613 402.025 401.613 402.025L402.377 399.435C402.33 399.525 401.821 400.368 401.457 397.137C401.078 393.748 404.306 395.4 404.306 395.4C404.306 395.4 406.842 396.034 402.746 391.935C398.65 387.836 400.667 383.652 400.901 383.652C401.135 383.652 401.675 377.587 401.675 377.587C401.675 377.587 402.367 373.957 401.826 371.116C401.286 368.275 400.828 359.443 400.828 359.443C400.828 359.443 401.213 352.743 400.521 350.302C399.83 347.86 400.979 343.436 401.213 342.413C401.447 341.39 400.495 332.03 400.495 332.03C400.495 332.03 401.265 327.617 400.802 324.386C400.34 321.156 401.265 309.244 401.265 309.244L402.647 295.524C402.647 295.524 403.646 291.26 403.495 289.527C403.344 287.795 404.654 281.724 404.654 281.724C404.575 280.431 404.785 279.137 405.267 277.94C406.037 276.341 406.343 271.16 406.343 271.16L413.73 253.81L417.368 238.513L466.194 238.038C466.194 238.038 466.376 239.366 466.672 241.769C466.968 244.173 467.384 247.745 467.847 252.153C468.273 256.155 468.741 260.862 469.193 266.102C470.669 282.827 467.551 285.823 467.551 285.823Z" fill="#3F3D56"/>
<path d="M463.033 147.751L451.65 160.213C451.65 160.213 437.043 154.217 438.582 152.17C439.174 151.376 439.102 148.871 438.738 146.11C438.218 141.739 437.043 136.713 437.043 136.713C437.043 136.713 462.571 132.448 460.434 136.867C459.649 138.466 459.785 140.364 460.273 142.107C460.892 144.128 461.824 146.034 463.033 147.751Z" fill="#FBBEBE"/>
<path opacity="0.1" d="M460.419 136.878C459.634 138.477 459.26 138.647 459.748 140.39C456.411 144.052 452.164 148.071 446.883 148.071C444.057 148.076 441.268 147.406 438.738 146.115C438.218 141.744 437.043 136.718 437.043 136.718C437.043 136.718 462.571 132.454 460.419 136.878Z" fill="black"/>
<path d="M465.191 128.824C465.11 133.747 463.146 138.441 459.722 141.893C456.298 145.346 451.688 147.28 446.886 147.28C442.084 147.28 437.474 145.346 434.05 141.893C430.626 138.441 428.662 133.747 428.581 128.824C428.581 128.733 428.581 128.643 428.581 128.557C428.615 123.58 430.576 118.821 434.033 115.326C435.745 113.596 437.772 112.228 439.999 111.301C442.226 110.374 444.609 109.906 447.013 109.923C449.416 109.941 451.793 110.444 454.007 111.403C456.221 112.362 458.229 113.759 459.917 115.514C461.604 117.269 462.938 119.348 463.842 121.632C464.746 123.916 465.203 126.359 465.185 128.824H465.191Z" fill="#FBBEBE"/>
<path opacity="0.1" d="M467.836 252.638C465.414 252.638 457.342 252.728 448.318 252.872H448.209L445.23 252.925H445.136C434.439 253.101 423.892 250.959 419.666 251.364C410.673 252.227 422.899 242.836 422.899 242.836C429.603 244.506 436.5 245.224 443.395 244.968L445.994 244.829C454.166 244.355 462.384 243.566 466.677 242.244C466.963 244.685 467.374 248.23 467.836 252.638Z" fill="black"/>
<path d="M467.836 252.163C465.414 252.163 457.342 252.254 448.318 252.398H448.209L445.23 252.451H445.136C434.439 252.627 423.892 250.484 419.666 250.889C410.673 251.758 422.899 242.361 422.899 242.361C429.603 244.032 436.5 244.749 443.395 244.493L445.994 244.355C454.166 243.88 462.384 243.091 466.677 241.775C466.963 244.216 467.374 247.745 467.836 252.163Z" fill="#5F5D7E"/>
<path opacity="0.1" d="M441.966 152.953L427.817 159.739L416.901 246.316C416.901 246.316 423.357 243.321 427.052 245.213C430.748 247.105 442.127 245.373 442.127 245.373C442.127 245.373 450.444 244.898 451.665 245.847C452.887 246.796 467.343 241.881 467.343 241.881C467.343 241.881 469.942 235.89 467.956 234.952C465.97 234.014 468.59 224.713 468.59 224.713L467.343 162.26L464.879 154.217L458.267 150.118L451.509 155.635L448.281 156.109L441.966 152.953Z" fill="black"/>
<path d="M441.966 152.01L427.817 158.79L416.901 245.373C416.901 245.373 423.357 242.377 427.052 244.269C430.748 246.161 442.127 244.424 442.127 244.424C442.127 244.424 450.444 243.955 451.665 244.898C452.887 245.842 467.353 240.954 467.353 240.954C467.353 240.954 469.952 234.963 467.966 234.025C465.981 233.087 468.59 223.759 468.59 223.759L467.343 161.311L464.879 153.273L458.267 149.169L451.509 154.691L448.281 155.165L441.966 152.01Z" fill="#E7EFFD"/>
<path opacity="0.1" d="M441.732 156.029C441.732 156.029 445.807 160.997 445.734 162.025C445.662 163.054 445.5 165.495 445.5 165.495L442.423 171.891C442.423 171.891 440.734 179.855 440.734 181.512C440.734 183.17 438.041 197.503 438.041 197.503L434.803 219.585L430.727 248.528L434.886 255.857L439.803 251.593L446.342 200.019L447.725 189.849C447.725 189.849 449.186 171.556 449.186 169.663C449.186 167.771 448.344 162.804 448.344 162.804C448.344 162.804 449.342 158.07 453.495 156.94C457.648 155.81 453.188 156.701 453.188 156.701L450.802 154.734L448.723 155.597C448.723 155.597 442.964 153.822 441.732 156.029Z" fill="black"/>
<path d="M441.269 155.56C441.269 155.56 445.35 160.528 445.272 161.551C445.194 162.574 445.038 165.021 445.038 165.021L441.966 171.417C441.966 171.417 440.271 179.38 440.271 181.038C440.271 182.696 437.579 197.028 437.579 197.028L434.351 219.106L430.275 248.048L434.434 255.383L439.356 251.118L445.89 199.549L447.278 189.385C447.278 189.385 448.739 171.092 448.739 169.2C448.739 167.307 447.897 162.34 447.897 162.34C447.897 162.34 448.895 157.607 453.048 156.503C457.201 155.4 452.741 156.269 452.741 156.269L450.355 154.297L448.276 155.165C448.276 155.165 442.501 153.348 441.269 155.56Z" fill="#1E77F0"/>
<path opacity="0.1" d="M438.582 147.277C438.582 147.277 437.963 147.751 437.812 150.907C437.662 154.062 435.505 161.157 435.505 161.157C435.505 161.157 443.504 155.48 447.502 156.109L438.582 147.277Z" fill="black"/>
<path d="M438.582 146.333C438.582 146.333 437.963 146.802 437.812 149.958C437.662 153.113 435.505 160.208 435.505 160.208C435.505 160.208 443.504 154.531 447.502 155.165L438.582 146.333Z" fill="#E7EFFD"/>
<path opacity="0.1" d="M460.419 144.756L447.798 156.109C447.798 156.109 458.412 162.574 459.795 164.152C461.178 165.73 462.56 148.695 462.56 148.695L460.419 144.756Z" fill="black"/>
<path d="M460.881 143.807L448.271 155.165C448.271 155.165 458.88 161.631 460.273 163.209C461.666 164.786 463.039 147.751 463.039 147.751L460.881 143.807Z" fill="#E7EFFD"/>
<path opacity="0.1" d="M439.039 147.277C439.039 147.277 437.656 146.568 436.352 148.62C435.391 149.958 434.086 150.995 432.583 151.616C432.583 151.616 418.585 153.902 418.029 155.794L411.489 156.189C411.489 156.189 409.181 156.503 408.953 161.471C408.724 166.439 407.492 166.913 407.492 166.913C407.492 166.913 404.799 171.801 405.033 174.322C405.267 176.843 402.954 178.112 402.954 178.112L412.565 203.739C412.565 203.739 412.877 214.303 411.105 218.168C409.332 222.032 406.031 239.142 406.031 239.142C406.031 239.142 407.414 238.827 407.336 239.771C407.258 240.714 405.694 251.049 405.694 251.049C405.694 251.049 405.231 255.148 404.462 256.571C403.692 257.994 403.614 265.398 403.614 265.398L402.388 270.76C402.388 270.76 405.309 277.465 409.769 276.517C414.229 275.568 422.301 257.675 422.301 257.675L427.458 238.353L431.455 219.271L432.609 206.34L434.454 177.717L437.147 158.79C437.147 158.79 440.12 148.604 439.039 147.277Z" fill="black"/>
<path d="M438.582 146.333C438.582 146.333 437.194 145.625 435.889 147.671C434.93 149.011 433.625 150.048 432.121 150.667C432.121 150.667 418.127 152.953 417.566 154.846L411.027 155.24C411.027 155.24 408.724 155.56 408.49 160.528C408.256 165.495 407.029 165.964 407.029 165.964C407.029 165.964 404.337 170.857 404.571 173.379C404.805 175.9 402.492 177.163 402.492 177.163L412.108 202.79C412.108 202.79 412.415 213.355 410.647 217.219C408.88 221.083 405.569 238.198 405.569 238.198C405.569 238.198 406.952 237.878 406.879 238.827C406.806 239.776 405.184 250.1 405.184 250.1C405.184 250.1 404.722 254.205 403.952 255.622C403.183 257.04 403.11 264.454 403.11 264.454L401.878 269.817C401.878 269.817 404.799 276.517 409.259 275.573C413.719 274.63 421.808 256.726 421.808 256.726L426.959 237.409L430.956 218.328L432.11 205.391L433.955 176.768L436.648 157.847C436.648 157.847 439.658 147.671 438.582 146.333Z" fill="#65617D"/>
<path opacity="0.1" d="M389.21 207.363L384.751 210.519C384.751 210.519 377.931 210.743 373.055 209.512L370.575 208.382L370.056 208.158L370.575 208.323C373.149 209.106 375.16 209.09 376.735 208.547C383.046 206.367 382.349 195.68 382.105 193.265C382.105 193.02 382.063 192.866 382.053 192.807C382.052 192.796 382.052 192.786 382.053 192.775L382.089 192.839C382.176 192.984 382.274 193.123 382.38 193.255C382.469 193.356 382.562 193.462 382.661 193.564L384.891 198.132C384.891 198.132 384.891 198.196 384.891 198.324L389.21 207.363Z" fill="black"/>
<path d="M404.654 176.534L402.497 177.163L402.19 181.656C402.19 181.656 399.653 181.262 398.962 184.321C398.271 187.381 397.039 188.82 397.039 188.82C397.039 188.82 392.808 192.444 392.579 195.52L389.98 197.178C389.98 197.178 383.903 195.754 382.521 193.233C382.521 193.233 385.291 213.578 370.523 208.611C370.523 208.611 387.058 216.02 387.828 217.048C388.597 218.077 393.67 221.067 398.286 218.546C402.902 216.025 403.9 212.15 403.9 212.15C403.9 212.15 408.36 205.754 408.511 204.816C408.662 203.878 412.15 202.764 412.15 202.764L418.762 186.363L404.654 176.534Z" fill="#65617D"/>
<path opacity="0.1" d="M458.652 154.217L460.882 143.807C460.882 143.807 461.88 147.197 462.883 147.986L466.189 150.592C466.189 150.592 469.495 152.165 470.649 152.165C471.803 152.165 478.03 153.822 478.799 154.691C479.569 155.56 482.646 154.926 482.646 154.926C482.646 154.926 485.182 155.794 487.412 156.343C489.642 156.892 490.718 160.682 490.256 162.207C490.068 162.953 490.068 163.735 490.257 164.481C490.445 165.227 490.815 165.912 491.332 166.471C492.257 167.419 492.72 170.495 492.72 170.495C493.846 170.876 494.78 171.698 495.319 172.782C496.088 174.514 495.839 178.298 495.839 178.298L484.403 194.859C484.403 194.859 484.554 201.255 484.096 202.668C483.639 204.08 485.707 228.215 485.707 228.215L488.093 269.689C488.093 269.689 484.938 272.45 484.247 272.764C483.555 273.079 482.864 258.101 482.864 257.547C482.864 256.992 465.102 230.262 465.102 230.262C465.102 230.262 462.716 226.323 462.716 225.465C462.716 224.606 460.486 216.633 460.486 216.633L457.103 201.255L458.652 154.217Z" fill="black"/>
<path d="M496.821 177.387C496.821 177.92 496.821 178.293 496.821 178.293L485.385 194.816C485.385 194.816 485.541 201.212 485.084 202.62C484.813 203.446 485.401 211.931 485.947 218.903C486.331 223.93 486.695 228.167 486.695 228.167L487.709 245.756L489.076 269.635C489.076 269.635 485.926 272.396 485.234 272.711C484.543 273.025 483.852 258.048 483.852 257.493C483.852 256.939 466.085 230.214 466.085 230.214C466.085 230.214 463.699 226.264 463.699 225.417C463.699 224.569 461.469 216.585 461.469 216.585L458.09 201.207L459.624 154.211L460.881 143.807C460.881 143.807 462.805 147.202 463.803 147.986L467.109 150.587C467.109 150.587 470.415 152.186 471.569 152.186C472.723 152.186 478.955 153.838 479.724 154.707C480.494 155.576 483.566 154.942 483.566 154.942C483.566 154.942 486.102 155.81 488.332 156.359C490.562 156.908 491.644 160.698 491.181 162.223C490.992 162.969 490.992 163.751 491.18 164.498C491.369 165.244 491.739 165.928 492.257 166.487C493.177 167.43 493.64 170.506 493.64 170.506C494.766 170.89 495.699 171.713 496.239 172.798C496.79 173.944 496.842 176.134 496.821 177.387Z" fill="#65617D"/>
<path opacity="0.1" d="M402.824 387.469C403.204 387.469 419.354 388.098 419.047 390.779C418.741 393.46 402.824 387.469 402.824 387.469Z" fill="black"/>
<path opacity="0.1" d="M406.437 391.962C406.437 391.962 417.28 393.774 414.432 395.432C411.583 397.09 406.437 391.962 406.437 391.962Z" fill="black"/>
<path opacity="0.1" d="M446.758 385.731C446.758 385.731 464.754 387.33 462.061 389.361C459.369 391.392 452.986 391.722 452.705 391.802C452.424 391.882 446.758 385.731 446.758 385.731Z" fill="black"/>
<path opacity="0.1" d="M444.58 393.854C444.58 393.854 454.576 395.586 454.883 397.585C455.19 399.584 444.58 393.854 444.58 393.854Z" fill="black"/>
<path opacity="0.1" d="M450.116 346.384C450.116 346.384 459.265 348.591 459.805 350.115L450.116 346.384Z" fill="black"/>
<path opacity="0.1" d="M414.816 353.164C414.816 353.164 410.05 354.582 414.665 357.428C419.281 360.274 414.816 353.164 414.816 353.164Z" fill="black"/>
<path opacity="0.1" d="M435.967 277.385C436.487 277.385 444.887 274.55 447.808 275.786C449.899 276.592 452.109 277.023 454.342 277.06L435.967 277.385Z" fill="black"/>
<path opacity="0.1" d="M437.043 286.372L436.96 287.155L429.813 306.408C429.813 306.408 428.659 312.239 427.661 315.549C427.03 317.8 426.528 320.087 426.158 322.398L432.505 282.039L437.043 286.372Z" fill="black"/>
<path d="M448.209 252.398L445.23 252.451H445.137L443.39 244.504L445.989 244.36L448.209 252.398Z" fill="#3F3D56"/>
<path d="M484.491 242.772L482.573 244.371L476.185 249.77C476.185 249.77 458.88 259.236 454.114 250.244C449.914 242.324 469.531 236.669 474.256 235.437C474.895 235.272 475.259 235.187 475.259 235.187L484.491 242.772Z" fill="#FBBEBE"/>
<path opacity="0.1" d="M410.59 165.255C410.59 165.255 413.974 166.854 414.749 169.04C415.523 171.225 410.59 165.255 410.59 165.255Z" fill="black"/>
<path opacity="0.1" d="M400.132 188.911C400.132 188.911 395.209 195.061 397.21 197.439C399.212 199.816 400.132 188.911 400.132 188.911Z" fill="black"/>
<path opacity="0.1" d="M488.104 168.725C488.104 168.725 483.488 169.2 483.337 173.299L488.104 168.725Z" fill="black"/>
<path opacity="0.1" d="M445.35 233.385C445.807 232.911 456.421 216.824 458.865 218.248L445.35 233.385Z" fill="black"/>
<path opacity="0.1" d="M465.191 128.824C465.195 131.915 464.45 134.96 463.023 137.683L462.888 137.656C461.729 137.405 461.126 136.02 460.237 135.156C459.692 134.623 458.997 134.279 458.251 134.172C457.505 134.065 456.745 134.2 456.078 134.559C455.406 134.973 454.86 135.571 454.5 136.285C454.14 137 453.981 137.803 454.041 138.605C453.453 136.078 453.641 133.397 453.069 130.865C452.497 128.334 450.776 125.775 448.416 125.733C447.377 125.733 446.218 126.111 445.48 125.333C445.038 124.864 444.96 124.123 444.617 123.547C442.932 120.754 437.802 122.167 435.707 123.6C433.612 125.034 431.185 127.332 428.581 128.557C428.615 123.58 430.576 118.821 434.033 115.326C435.745 113.596 437.772 112.228 439.999 111.301C442.226 110.374 444.609 109.906 447.013 109.923C449.416 109.941 451.793 110.444 454.007 111.403C456.221 112.362 458.229 113.759 459.917 115.514C461.604 117.269 462.938 119.348 463.842 121.632C464.746 123.916 465.203 126.359 465.185 128.824H465.191Z" fill="black"/>
<path d="M444.622 123.078C444.955 123.648 445.043 124.389 445.485 124.858C446.218 125.642 447.408 125.237 448.422 125.258C450.782 125.301 452.502 127.859 453.074 130.391C453.646 132.923 453.459 135.604 454.046 138.13C453.985 137.328 454.145 136.524 454.506 135.809C454.866 135.095 455.415 134.497 456.089 134.085C456.756 133.726 457.516 133.591 458.262 133.698C459.008 133.805 459.702 134.149 460.247 134.682C461.136 135.545 461.739 136.931 462.898 137.182C464.057 137.432 465.175 136.292 465.596 135.05C466.017 133.808 465.986 132.422 466.261 131.121C466.781 128.664 468.341 126.644 469.214 124.304C470.244 121.459 470.216 118.324 469.136 115.499C468.559 114.017 467.701 112.684 467.114 111.208C466.23 108.959 466.002 106.411 464.92 104.279C463.111 100.692 458.849 98.9006 455.34 100.249C453.672 100.889 452.221 102.136 450.522 102.696C448.25 103.447 445.817 102.882 443.468 102.546C441.118 102.211 438.514 102.179 436.622 103.762C434.444 105.59 433.851 109.023 431.803 111.027C430.946 111.869 429.88 112.407 428.976 113.159C428.071 113.91 427.286 115.094 427.416 116.357C427.551 117.988 429.111 119.47 428.534 120.983C428.326 121.422 428.037 121.815 427.681 122.14C425.969 123.981 424.695 126.203 423.96 128.632C428.071 129.954 432.526 125.301 435.749 123.099C437.812 121.698 442.938 120.28 444.622 123.078Z" fill="#7C5C5C"/>
<path opacity="0.1" d="M484.491 242.772L482.573 244.371C480.884 241.492 473.955 235.736 473.955 235.736L474.256 235.437C474.895 235.272 475.259 235.187 475.259 235.187L484.491 242.772Z" fill="black"/>
<path d="M486.336 239.851C486.336 239.851 485.645 241.61 484.938 243.123C484.231 244.637 483.451 246.023 483.415 244.898C483.337 242.692 474.417 235.277 474.417 235.277L475.628 234.073L477.027 232.676L486.336 239.851Z" fill="#E7EFFD"/>
<path opacity="0.1" d="M486.643 228.178L487.657 245.767C485.266 241.956 478.706 232.191 474.49 232.506L484.704 220.454C485.13 219.969 485.522 219.454 485.879 218.914C486.264 223.94 486.643 228.178 486.643 228.178Z" fill="black"/>
<path opacity="0.1" d="M486.336 239.851C486.336 239.851 485.645 241.61 484.938 243.123C482.256 239.355 478.571 234.904 475.628 234.062L477.027 232.666L486.336 239.851Z" fill="black"/>
<path d="M494.024 176.06L496.795 178.266C496.795 178.266 501.406 178.346 501.868 182.29C502.331 186.235 506.547 188.047 506.547 188.047C506.547 188.047 509.697 191.277 509.697 192.775C509.697 194.273 512.083 196.954 512.083 197.194C512.083 197.433 514.39 202.241 514.079 203.105C513.767 203.968 516.542 207.758 515.695 209.176C515 210.45 514.384 211.767 513.85 213.12C513.85 213.12 510.237 220.22 508.392 221.558C506.547 222.895 498.084 234.174 498.084 234.174C498.084 234.174 489.013 244.898 489.013 248.208C489.013 248.208 480.177 233.071 474.937 233.465L485.167 221.398C485.167 221.398 486.934 219.431 487.012 218.248C487.09 217.064 491.935 211.622 494.243 211.388C494.243 211.388 494.622 208.152 493.624 208.072C492.626 207.992 491.779 205.471 491.779 205.471C491.779 205.471 485.021 197.273 484.933 192.066C484.845 186.858 494.024 176.06 494.024 176.06Z" fill="#65617D"/>
<path opacity="0.1" d="M498.1 183.548C498.1 183.548 491.644 188.441 493.026 190.014C494.409 191.586 498.1 183.548 498.1 183.548Z" fill="black"/>
<path opacity="0.1" d="M498.406 203.739C498.406 203.739 510.403 199.795 511.635 203.739H498.406Z" fill="black"/>
<path opacity="0.1" d="M424.126 413.25C424.126 413.25 417.665 417.589 414.437 416.982C411.209 416.374 407.898 418.09 407.898 418.09C405.672 420.582 402.865 422.455 399.742 423.532C394.544 425.345 387.214 424.63 383.061 423.213C381.096 422.541 380.935 421.677 381.881 420.606C386.398 421.528 396.488 423.367 399.206 422.029C402.741 420.292 407.82 416.507 407.82 416.507C407.82 416.507 414.437 415.564 415.357 415.564C416.012 415.564 421.121 413.4 424.006 412.163L424.126 413.25Z" fill="black"/>
<path opacity="0.1" d="M463.252 422.12L463.184 422.557C463.184 422.557 461.625 426.027 453.116 427.29C444.606 428.553 444.58 424.369 444.58 424.369C444.58 424.369 444.611 423.921 444.663 423.245C447.366 424.295 453.261 425.467 463.252 422.12Z" fill="black"/>
<path opacity="0.1" d="M413.782 182.605C413.782 182.605 413.782 200.584 412.28 202.358C410.777 204.133 413.782 182.605 413.782 182.605Z" fill="black"/>
<path opacity="0.1" d="M483.103 188.399L485.333 194.827C485.333 194.827 486.222 188.516 483.103 188.399Z" fill="black"/>
<g opacity="0.1">
<path opacity="0.1" d="M428.731 119.475C429.293 117.993 427.817 116.543 427.624 114.955C427.429 115.403 427.345 115.894 427.38 116.383C427.479 117.577 428.336 118.691 428.565 119.8C428.629 119.697 428.685 119.588 428.731 119.475Z" fill="black"/>
<path opacity="0.1" d="M454.254 136.457C453.703 133.973 453.864 131.34 453.303 128.851C452.741 126.361 451.01 123.76 448.656 123.718C447.616 123.718 446.452 124.101 445.719 123.323C445.272 122.854 445.199 122.108 444.851 121.538C443.166 118.739 438.041 120.157 435.941 121.591C432.822 123.723 428.477 128.216 424.443 127.204C424.251 127.678 424.074 128.163 423.923 128.659C428.035 129.981 432.49 125.327 435.712 123.126C437.792 121.698 442.938 120.28 444.622 123.078C444.955 123.648 445.043 124.389 445.485 124.858C446.218 125.642 447.408 125.237 448.422 125.258C450.782 125.301 452.502 127.859 453.074 130.391C453.646 132.923 453.459 135.604 454.046 138.13C454.008 137.564 454.079 136.995 454.254 136.457Z" fill="black"/>
<path opacity="0.1" d="M465.814 133.504C465.399 134.751 464.302 135.902 463.117 135.636C461.931 135.369 461.354 134 460.471 133.131C459.922 132.604 459.228 132.264 458.483 132.158C457.739 132.052 456.98 132.185 456.312 132.539C455.671 132.931 455.144 133.491 454.785 134.162C454.425 134.833 454.248 135.59 454.27 136.355C454.581 135.393 455.227 134.581 456.084 134.074C456.751 133.715 457.511 133.58 458.256 133.687C459.002 133.794 459.697 134.138 460.242 134.671C461.131 135.535 461.734 136.92 462.893 137.171C464.052 137.421 465.17 136.281 465.591 135.039C465.81 134.301 465.951 133.542 466.012 132.774C465.961 133.021 465.895 133.265 465.814 133.504Z" fill="black"/>
<path opacity="0.1" d="M469.432 122.758C468.569 125.098 467 127.113 466.48 129.576C466.376 130.071 466.313 130.578 466.256 131.089C466.776 128.637 468.335 126.628 469.204 124.293C469.587 123.243 469.826 122.144 469.916 121.026C469.797 121.615 469.636 122.194 469.432 122.758Z" fill="black"/>
</g>
<path d="M358.303 179.855C358.407 179.855 358.491 179.769 358.491 179.663C358.491 179.557 358.407 179.471 358.303 179.471C358.2 179.471 358.116 179.557 358.116 179.663C358.116 179.769 358.2 179.855 358.303 179.855Z" fill="#E6E8EC"/>
<path opacity="0.1" d="M424.703 427.525C449.49 427.525 469.583 425.422 469.583 422.829C469.583 420.235 449.49 418.133 424.703 418.133C399.916 418.133 379.823 420.235 379.823 422.829C379.823 425.422 399.916 427.525 424.703 427.525Z" fill="#1E77F0"/>
<path d="M259.669 114.806L123.735 205.237L212.445 369.298C212.86 370.065 213.425 370.736 214.105 371.268C214.784 371.8 215.565 372.182 216.396 372.39L296.773 392.495C298.151 392.837 299.6 392.684 300.881 392.062C302.162 391.44 303.196 390.387 303.811 389.078L343.681 304.143L387.376 244.248L283.685 118.457C280.799 114.958 276.769 112.657 272.349 111.985C267.929 111.313 263.421 112.316 259.669 114.806Z" fill="#DCDFED"/>
<path opacity="0.1" d="M388.758 244.957L388.374 245.49L362.778 280.578L362.316 281.212L345.063 304.862L310.964 377.517L310.008 379.548L305.194 389.798C304.578 391.109 303.543 392.164 302.26 392.786C300.977 393.407 299.524 393.559 298.146 393.215L217.768 373.099C216.937 372.892 216.156 372.51 215.476 371.978C214.796 371.446 214.231 370.775 213.817 370.007L206.088 355.738L204.7 353.169L148.909 249.946L148.431 249.066L125.112 205.946L127.93 204.069L149.289 189.865L149.782 189.534L194.761 159.611L197.599 157.724L261.042 115.515C264.793 113.02 269.303 112.014 273.726 112.685C278.149 113.357 282.181 115.659 285.067 119.16L332.37 176.566L334.449 179.124L368.782 220.774L368.969 221.003L386.232 241.94L388.405 244.578L388.758 244.957Z" fill="black"/>
<path opacity="0.1" d="M367.638 220.294L363.449 250.143L362.186 259.151L361.463 278.34L361.406 279.837L357.648 380.097C357.612 381.027 357.377 381.938 356.96 382.765C356.543 383.592 355.954 384.314 355.234 384.882C354.515 385.45 353.683 385.849 352.796 386.051C351.91 386.253 350.992 386.253 350.105 386.051L309.592 376.776L309.155 376.675L205.251 352.897L203.343 352.46L146.222 339.38L147.532 249.237L147.573 246.225L147.968 218.94L148.405 188.825L193.384 158.902L196.222 157.015C237.942 161.402 293.426 169.839 331.013 175.857L333.092 178.415L367.399 220.065L367.638 220.294Z" fill="black"/>
<path d="M372.384 184.902L367.451 220.081L362.929 252.296L361.666 261.283L360.943 280.472L357.128 382.229C357.092 383.159 356.857 384.07 356.44 384.897C356.023 385.724 355.434 386.447 354.715 387.014C353.995 387.582 353.163 387.981 352.277 388.183C351.391 388.385 350.472 388.385 349.586 388.183L308.635 378.807L204.731 355.029L145.702 341.512L147.053 248.358L147.448 221.073L147.911 189.156L148.384 156.327C158.146 155.853 174.208 156.924 193.384 158.902C236.32 163.321 294.85 172.259 333.118 178.416C356.551 182.184 372.384 184.902 372.384 184.902Z" fill="#1E77F0"/>
<path opacity="0.1" d="M384.901 241.231L362.929 252.28L250.791 308.673L147.448 221.094L126.557 203.361L123.74 205.237L147.059 248.357L145.707 341.512L204.736 355.029L212.45 369.298C212.864 370.066 213.429 370.737 214.109 371.269C214.789 371.801 215.569 372.183 216.401 372.39L296.778 392.495C298.155 392.835 299.604 392.682 300.883 392.06C302.163 391.438 303.196 390.386 303.811 389.078L308.625 378.828L349.575 388.204C350.461 388.406 351.38 388.406 352.266 388.204C353.152 388.003 353.985 387.604 354.704 387.036C355.423 386.468 356.012 385.745 356.429 384.918C356.846 384.091 357.081 383.181 357.118 382.25L360.933 280.493L386.991 244.781L387.064 243.88L384.901 241.231Z" fill="black"/>
<path d="M123.735 205.237L114.467 367.982C114.381 369.488 114.821 370.976 115.707 372.18C116.594 373.385 117.87 374.226 119.306 374.554L365.445 430.6C366.308 430.794 367.201 430.796 368.065 430.607C368.929 430.417 369.744 430.041 370.454 429.502C371.165 428.964 371.754 428.275 372.184 427.484C372.614 426.692 372.874 425.816 372.946 424.913L387.37 244.248L250.791 312.937L123.735 205.237Z" fill="#DCDFED"/>
<path opacity="0.1" d="M116.161 371.707L244.034 290.812C245.927 289.635 248.165 289.181 250.353 289.533C252.541 289.884 254.537 291.017 255.989 292.731L370.44 429.603C370.856 430.094 371.059 429.742 370.44 429.603L116.161 371.707C115.433 371.542 115.527 372.097 116.161 371.707Z" fill="black"/>
<path d="M117.076 371.574L243.628 293.184C245.629 291.945 247.992 291.47 250.301 291.842C252.61 292.215 254.716 293.411 256.249 295.22L369.666 428.969C369.854 429.192 369.968 429.469 369.994 429.762C370.019 430.055 369.954 430.349 369.807 430.602C369.66 430.855 369.44 431.055 369.177 431.172C368.913 431.289 368.621 431.318 368.34 431.256L117.487 374.138C117.22 374.079 116.976 373.938 116.788 373.735C116.599 373.532 116.475 373.276 116.431 372.999C116.386 372.723 116.424 372.439 116.539 372.185C116.654 371.931 116.841 371.718 117.076 371.574Z" fill="#E3E5F1"/>
<defs>
<linearGradient id="paint0_linear" x1="437.656" y1="428.234" x2="437.656" y2="97.9945" gradientUnits="userSpaceOnUse">
<stop stop-color="#808080" stop-opacity="0.25"/>
<stop offset="0.54" stop-color="#808080" stop-opacity="0.12"/>
<stop offset="1" stop-color="#808080" stop-opacity="0.1"/>
</linearGradient>
</defs>
</svg>
