<svg class="animated" id="freepik_stories-mail" xmlns="http://www.w3.org/2000/svg" viewBox="0 0 750 500" version="1.1" xmlnsXlink="http://www.w3.org/1999/xlink" xmlnsSvgjs="http://svgjs.com/svgjs"><style>svg#freepik_stories-mail:not(.animated) .animable {opacity: 0;}svg#freepik_stories-mail.animated #freepik--background-complete--inject-34 {animation: 1s 1 forwards cubic-bezier(.36,-0.01,.5,1.38) lightSpeedRight;animation-delay: 0s;}svg#freepik_stories-mail.animated #freepik--Floor--inject-34 {animation: 1s 1 forwards cubic-bezier(.36,-0.01,.5,1.38) slideDown;animation-delay: 0s;}svg#freepik_stories-mail.animated #freepik--Mailbox--inject-34 {animation: 1s 1 forwards cubic-bezier(.36,-0.01,.5,1.38) slideDown;animation-delay: 0s;}svg#freepik_stories-mail.animated #freepik--Character--inject-34 {animation: 1s 1 forwards cubic-bezier(.36,-0.01,.5,1.38) zoomIn;animation-delay: 0s;}            @keyframes lightSpeedRight {              from {                transform: translate3d(50%, 0, 0) skewX(-20deg);                opacity: 0;              }              60% {                transform: skewX(10deg);                opacity: 1;              }              80% {                transform: skewX(-2deg);              }              to {                opacity: 1;                transform: translate3d(0, 0, 0);              }            }                    @keyframes slideDown {                0% {                    opacity: 0;                    transform: translateY(-30px);                }                100% {                    opacity: 1;                    transform: translateY(0);                }            }                    @keyframes zoomIn {                0% {                    opacity: 0;                    transform: scale(0.5);                }                100% {                    opacity: 1;                    transform: scale(1);                }            }        .animator-hidden { display: none; }</style><g id="freepik--background-complete--inject-34" style="transform-origin: 381.45px 258.045px 0px;" class="animable animator-hidden"><polygon points="319.29 365.03 299.88 449.32 308.5 449.32 328.15 365.03 319.29 365.03" style="fill: rgb(224, 224, 224); transform-origin: 314.015px 407.175px 0px;" id="ely9o1vuxpagh" class="animable"></polygon><polygon points="355.06 365.03 374.43 449.32 382.3 449.32 363.57 365.03 355.06 365.03" style="fill: rgb(224, 224, 224); transform-origin: 368.68px 407.175px 0px;" id="elb3f2jev6x2b" class="animable"></polygon><polygon points="306.06 301.1 317.22 359.7 329.91 359.7 317.99 301.1 306.06 301.1" style="fill: rgb(224, 224, 224); transform-origin: 317.985px 330.4px 0px;" id="elkxlowa2joff" class="animable"></polygon><polygon points="111.65 365.03 95.66 449.68 103.8 449.68 120.5 365.03 111.65 365.03" style="fill: rgb(224, 224, 224); transform-origin: 108.08px 407.355px 0px;" id="ely1uj3otr4ki" class="animable"></polygon><polygon points="145.27 365.03 163.55 449.68 171.59 449.68 153.94 365.03 145.27 365.03" style="fill: rgb(224, 224, 224); transform-origin: 158.43px 407.355px 0px;" id="elyzyeqa579gh" class="animable"></polygon><polygon points="98.42 301.1 109.58 359.7 122.26 359.7 110.34 301.1 98.42 301.1" style="fill: rgb(224, 224, 224); transform-origin: 110.34px 330.4px 0px;" id="elvlvyvhcr4x" class="animable"></polygon><polygon points="73.3 295.77 75.58 306.43 330.29 306.43 327.31 295.77 73.3 295.77" style="fill: rgb(235, 235, 235); transform-origin: 201.795px 301.1px 0px;" id="el20f9z1ddmqq" class="animable"></polygon><polygon points="78.17 316.46 80.86 327.12 333.84 327.12 331.54 316.46 78.17 316.46" style="fill: rgb(235, 235, 235); transform-origin: 206.005px 321.79px 0px;" id="el34v6379vphu" class="animable"></polygon><polygon points="83.2 337.88 85.7 348.54 337.9 348.54 335.51 337.88 83.2 337.88" style="fill: rgb(235, 235, 235); transform-origin: 210.55px 343.21px 0px;" id="elk7icmb93o4" class="animable"></polygon><rect x="102.48" y="359.7" width="271.95" height="10.65" style="fill: rgb(235, 235, 235); transform-origin: 238.455px 365.025px 0px;" id="elxfdaxhzjac" class="animable"></rect><path d="M102.48,141.81h63.59s-5.63-10.23-22-8.74c-15.64,1.42-16.43-5-24.38-5.83S105.13,132.54,102.48,141.81Z" style="fill: rgb(235, 235, 235); transform-origin: 134.275px 134.487px 0px;" id="elcylt3ll9w0w" class="animable"></path><path d="M216.71,99.4H362.39S349.51,76,312,79.37C276.19,82.63,274.37,67.84,256.16,66S222.78,78.16,216.71,99.4Z" style="fill: rgb(224, 224, 224); transform-origin: 289.55px 82.619px 0px;" id="el11z0tmlk89c" class="animable"></path><rect x="483.31" y="99.81" width="110.4" height="349.87" style="fill: rgb(245, 245, 245); transform-origin: 538.51px 274.745px 0px;" id="eld81mt6stob7" class="animable"></rect><rect x="538.51" y="99.81" width="55.2" height="348.91" style="fill: rgb(235, 235, 235); transform-origin: 566.11px 274.265px 0px;" id="el08ygjx5oybic" class="animable"></rect><rect x="495.91" y="65.46" width="38.98" height="34.35" style="fill: rgb(245, 245, 245); transform-origin: 515.4px 82.635px 0px;" id="elpfgsr06fvz" class="animable"></rect><rect x="525.61" y="65.46" width="9.29" height="34.35" style="fill: rgb(235, 235, 235); transform-origin: 530.255px 82.635px 0px;" id="eldef00hwee6p" class="animable"></rect><polyline points="474.11 99.81 474.11 97.8 596.93 97.8 596.93 99.81" style="fill: rgb(224, 224, 224); transform-origin: 535.52px 98.805px 0px;" id="elpwqumj4ykt" class="animable"></polyline><rect x="505.1" y="114.79" width="9.34" height="19.7" style="fill: rgb(250, 250, 250); transform-origin: 509.77px 124.64px 0px;" id="el3qfoqymvijg" class="animable"></rect><path d="M538.51,142.22c0,.21-12.36.38-27.6.38s-27.6-.17-27.6-.38,12.35-.37,27.6-.37S538.51,142,538.51,142.22Z" style="fill: rgb(224, 224, 224); transform-origin: 510.91px 142.225px 0px;" id="elebu3m64zqzf" class="animable"></path><rect x="560.78" y="114.79" width="9.34" height="19.7" style="fill: rgb(224, 224, 224); transform-origin: 565.45px 124.64px 0px;" id="el44w9vg9a7v1" class="animable"></rect><path d="M594.18,142.22c0,.21-12.35.38-27.59.38s-27.6-.17-27.6-.38,12.35-.37,27.6-.37S594.18,142,594.18,142.22Z" style="fill: rgb(224, 224, 224); transform-origin: 566.585px 142.225px 0px;" id="elqj18cdhvejc" class="animable"></path><rect x="560.78" y="153.91" width="9.34" height="19.7" style="fill: rgb(224, 224, 224); transform-origin: 565.45px 163.76px 0px;" id="eli4htwl84xbo" class="animable"></rect><path d="M594.18,181.34c0,.21-12.35.38-27.59.38s-27.6-.17-27.6-.38,12.35-.37,27.6-.37S594.18,181.14,594.18,181.34Z" style="fill: rgb(224, 224, 224); transform-origin: 566.585px 181.345px 0px;" id="el2j0r5uw36n9" class="animable"></path><rect x="560.78" y="194.21" width="9.34" height="19.7" style="fill: rgb(224, 224, 224); transform-origin: 565.45px 204.06px 0px;" id="elryefltb8e7a" class="animable"></rect><path d="M594.18,221.64c0,.21-12.35.38-27.59.38s-27.6-.17-27.6-.38,12.35-.37,27.6-.37S594.18,221.44,594.18,221.64Z" style="fill: rgb(224, 224, 224); transform-origin: 566.585px 221.645px 0px;" id="el3l7g3you248" class="animable"></path><rect x="560.78" y="234.51" width="9.34" height="19.7" style="fill: rgb(224, 224, 224); transform-origin: 565.45px 244.36px 0px;" id="elyvclp9vklh" class="animable"></rect><path d="M594.18,261.94c0,.21-12.35.38-27.59.38s-27.6-.17-27.6-.38,12.35-.37,27.6-.37S594.18,261.74,594.18,261.94Z" style="fill: rgb(224, 224, 224); transform-origin: 566.585px 261.945px 0px;" id="eln4yfmyuhda" class="animable"></path><rect x="560.78" y="273.66" width="9.34" height="19.7" style="fill: rgb(224, 224, 224); transform-origin: 565.45px 283.51px 0px;" id="els6cfexlwj2" class="animable"></rect><path d="M594.18,301.09c0,.21-12.35.38-27.59.38s-27.6-.17-27.6-.38,12.35-.37,27.6-.37S594.18,300.88,594.18,301.09Z" style="fill: rgb(224, 224, 224); transform-origin: 566.585px 301.095px 0px;" id="elsdyth3hiw3n" class="animable"></path><rect x="560.78" y="312.96" width="9.34" height="19.7" style="fill: rgb(224, 224, 224); transform-origin: 565.45px 322.81px 0px;" id="eljir33rjtceh" class="animable"></rect><rect x="560.78" y="352.78" width="9.34" height="19.7" style="fill: rgb(224, 224, 224); transform-origin: 565.45px 362.63px 0px;" id="eloi2z5ln3qjp" class="animable"></rect><path d="M594.18,340.4c0,.21-12.35.37-27.59.37s-27.6-.16-27.6-.37,12.35-.38,27.6-.38S594.18,340.19,594.18,340.4Z" style="fill: rgb(224, 224, 224); transform-origin: 566.585px 340.395px 0px;" id="elj3ksrlm0jqo" class="animable"></path><rect x="505.1" y="154.5" width="9.34" height="19.7" style="fill: rgb(250, 250, 250); transform-origin: 509.77px 164.35px 0px;" id="elwjq2swxbwgk" class="animable"></rect><path d="M538.51,181.94c0,.21-12.36.38-27.6.38s-27.6-.17-27.6-.38,12.35-.38,27.6-.38S538.51,181.73,538.51,181.94Z" style="fill: rgb(224, 224, 224); transform-origin: 510.91px 181.94px 0px;" id="el2qn1kryed6" class="animable"></path><rect x="505.1" y="194.22" width="9.34" height="19.7" style="fill: rgb(250, 250, 250); transform-origin: 509.77px 204.07px 0px;" id="elqm0brz8dxvl" class="animable"></rect><path d="M538.51,221.66c0,.21-12.36.37-27.6.37s-27.6-.16-27.6-.37,12.35-.38,27.6-.38S538.51,221.45,538.51,221.66Z" style="fill: rgb(224, 224, 224); transform-origin: 510.91px 221.655px 0px;" id="elrkfd7elq4k9" class="animable"></path><rect x="505.1" y="233.94" width="9.34" height="19.7" style="fill: rgb(250, 250, 250); transform-origin: 509.77px 243.79px 0px;" id="elxfhw8ruqb4q" class="animable"></rect><path d="M538.51,261.38c0,.2-12.36.37-27.6.37s-27.6-.17-27.6-.37,12.35-.38,27.6-.38S538.51,261.17,538.51,261.38Z" style="fill: rgb(224, 224, 224); transform-origin: 510.91px 261.375px 0px;" id="ele9o3y60dyvp" class="animable"></path><rect x="505.1" y="273.66" width="9.34" height="19.7" style="fill: rgb(250, 250, 250); transform-origin: 509.77px 283.51px 0px;" id="ely7jpxpyc7ng" class="animable"></rect><path d="M538.51,301.09c0,.21-12.36.38-27.6.38s-27.6-.17-27.6-.38,12.35-.37,27.6-.37S538.51,300.88,538.51,301.09Z" style="fill: rgb(224, 224, 224); transform-origin: 510.91px 301.095px 0px;" id="el2u77r3cp2wr" class="animable"></path><rect x="505.1" y="313.37" width="9.34" height="19.7" style="fill: rgb(250, 250, 250); transform-origin: 509.77px 323.22px 0px;" id="eljy721y2z9pj" class="animable"></rect><path d="M538.51,340.81c0,.21-12.36.38-27.6.38s-27.6-.17-27.6-.38,12.35-.38,27.6-.38S538.51,340.6,538.51,340.81Z" style="fill: rgb(224, 224, 224); transform-origin: 510.91px 340.81px 0px;" id="els789g7cdb9a" class="animable"></path><rect x="505.1" y="353.09" width="9.34" height="19.7" style="fill: rgb(250, 250, 250); transform-origin: 509.77px 362.94px 0px;" id="elhwq9efoyd2" class="animable"></rect><rect x="602.33" y="296.59" width="81.16" height="154.04" style="fill: rgb(224, 224, 224); transform-origin: 642.91px 373.61px 0px;" id="elekb9eingftk" class="animable"></rect><rect x="645.44" y="296.59" width="38.06" height="154.04" style="fill: rgb(235, 235, 235); transform-origin: 664.47px 373.61px 0px;" id="elxteo3wi4ags" class="animable"></rect><rect x="619.35" y="311.08" width="7.3" height="17.73" style="fill: rgb(245, 245, 245); transform-origin: 623px 319.945px 0px;" id="eliwvfkpv912c" class="animable"></rect><rect x="619.35" y="380.47" width="7.3" height="17.73" style="fill: rgb(245, 245, 245); transform-origin: 623px 389.335px 0px;" id="elrkwjij0qidn" class="animable"></rect><path d="M645.44,335.77c0,.15-9.65.27-21.55.27s-21.56-.12-21.56-.27,9.65-.28,21.56-.28S645.44,335.62,645.44,335.77Z" style="fill: rgb(245, 245, 245); transform-origin: 623.885px 335.765px 0px;" id="ellzy46tvzqcj" class="animable"></path><rect x="619.35" y="346.04" width="7.3" height="17.73" style="fill: rgb(245, 245, 245); transform-origin: 623px 354.905px 0px;" id="elra362i0ny7l" class="animable"></rect><path d="M645.44,370.73c0,.15-9.65.27-21.55.27s-21.56-.12-21.56-.27,9.65-.28,21.56-.28S645.44,370.57,645.44,370.73Z" style="fill: rgb(245, 245, 245); transform-origin: 623.885px 370.725px 0px;" id="el5xnibtor7r3" class="animable"></path><rect x="653.52" y="311.08" width="7.3" height="17.73" style="fill: rgb(224, 224, 224); transform-origin: 657.17px 319.945px 0px;" id="elj5rs0e62nmb" class="animable"></rect><rect x="669.35" y="311.08" width="7.3" height="17.73" style="fill: rgb(224, 224, 224); transform-origin: 673px 319.945px 0px;" id="el8qponukzj49" class="animable"></rect><rect x="653.52" y="344.72" width="7.3" height="17.73" style="fill: rgb(224, 224, 224); transform-origin: 657.17px 353.585px 0px;" id="elg8jhdghb9j" class="animable"></rect><rect x="669.35" y="344.72" width="7.3" height="17.73" style="fill: rgb(224, 224, 224); transform-origin: 673px 353.585px 0px;" id="el2hya2a41xoc" class="animable"></rect><rect x="653.52" y="378.37" width="7.3" height="17.73" style="fill: rgb(224, 224, 224); transform-origin: 657.17px 387.235px 0px;" id="el7m9tw0tnbla" class="animable"></rect><rect x="669.35" y="378.37" width="7.3" height="17.73" style="fill: rgb(224, 224, 224); transform-origin: 673px 387.235px 0px;" id="eltagbnr2nmo" class="animable"></rect><rect x="596.23" y="292.86" width="93.37" height="3.86" style="fill: rgb(224, 224, 224); transform-origin: 642.915px 294.79px 0px;" id="el7da9old49rn" class="animable"></rect><path d="M684.06,297.08c0,.16-18.14.28-40.51.28s-40.52-.12-40.52-.28,18.14-.27,40.52-.27S684.06,296.93,684.06,297.08Z" style="fill: rgb(235, 235, 235); transform-origin: 643.545px 297.085px 0px;" id="el24av0ere7ih" class="animable"></path></g><g id="freepik--Floor--inject-34" style="transform-origin: 375px 449.74px 0px;" class="animable animator-hidden"><path d="M681.67,449.74c0,.14-137.31.26-306.66.26s-306.68-.12-306.68-.26,137.28-.26,306.68-.26S681.67,449.6,681.67,449.74Z" style="fill: rgb(38, 50, 56); transform-origin: 375px 449.74px 0px;" id="elg41vpygwmi" class="animable"></path></g><g id="freepik--Mailbox--inject-34" style="transform-origin: 473.599px 349.975px 0px;" class="animable"><rect x="471.68" y="431.29" width="12.81" height="18.45" style="fill: rgb(38, 50, 56); transform-origin: 478.085px 440.515px 0px;" id="elrrx0l80tp2a" class="animable"></rect><path d="M403.71,431.06s116,.53,116,0V250.21h-85a32.8,32.8,0,0,0-32.79,33.2Z" style="fill: rgb(69, 90, 100); transform-origin: 460.814px 340.753px 0px;" id="elmjb3ewwzpn" class="animable"></path><path d="M520,250.21h2.79a22.49,22.49,0,0,1,22.49,22.49V431.29a0,0,0,0,1,0,0H497.46a0,0,0,0,1,0,0V272.71A22.49,22.49,0,0,1,520,250.21Z" style="fill: rgb(38, 50, 56); transform-origin: 521.37px 340.75px 0px;" id="elxwdbo2xtvw" class="animable"></path><rect x="421.14" y="295.83" width="60.55" height="21.76" style="fill: rgb(38, 50, 56); transform-origin: 451.415px 306.71px 0px;" id="eley3yifjpom4" class="animable"></rect><rect x="403.69" y="429.02" width="12.81" height="20.72" style="fill: rgb(69, 90, 100); transform-origin: 410.095px 439.38px 0px;" id="el2l7svv3ua72" class="animable"></rect><rect x="484.01" y="431.29" width="12.81" height="18.45" style="fill: rgb(69, 90, 100); transform-origin: 490.415px 440.515px 0px;" id="elcq3lulponl" class="animable"></rect><rect x="530.49" y="431.29" width="12.81" height="18.45" style="fill: rgb(38, 50, 56); transform-origin: 536.895px 440.515px 0px;" id="elxa8kn2my95q" class="animable"></rect><path d="M445,250.21l-.93.06c-.62,0-1.54,0-2.74.19a30.67,30.67,0,0,0-10.14,2.75,27.9,27.9,0,0,0-6.34,4.25,31.09,31.09,0,0,0-5.77,7,35.25,35.25,0,0,0-4,9.68,41.94,41.94,0,0,0-1.2,11.74c0,33.38.05,79.94.08,132.66l-.25-.25h74l-.25.25c0-50.08.07-94,.09-125.41,0-7.85,0-14.91.08-21.1.4-6.19,1.87-11.45,4.13-15.17a15.25,15.25,0,0,1,3.79-4.29,11.56,11.56,0,0,1,3.75-1.87l.77-.22.68-.12a7.14,7.14,0,0,1,1.07-.13l.87,0-.86.1a6.31,6.31,0,0,0-1.07.15l-.68.13-.76.22a11.77,11.77,0,0,0-3.68,1.9,15.12,15.12,0,0,0-3.72,4.27c-2.22,3.7-3.66,8.94-4,15.09-.08,6.17,0,13.25,0,21.09,0,31.41.05,75.33.09,125.41v.26h-74.5v-.26c0-52.72.06-99.28.09-132.66a42.24,42.24,0,0,1,1.24-11.82,35.61,35.61,0,0,1,4.1-9.74,31.3,31.3,0,0,1,5.85-7.06,28.44,28.44,0,0,1,6.41-4.25,30.45,30.45,0,0,1,10.21-2.68,27.24,27.24,0,0,1,2.74-.14Z" style="fill: rgb(38, 50, 56); transform-origin: 458.1px 334.53px 0px;" id="el7wef7s69aqt" class="animable"></path><path d="M486.05,336.91c0,.15-16.27.26-36.33.26s-36.32-.11-36.32-.26,16.26-.26,36.32-.26S486.05,336.77,486.05,336.91Z" style="fill: rgb(38, 50, 56); transform-origin: 449.725px 336.91px 0px;" id="el0vhbnohojll" class="animable"></path><path d="M419.88,350.21h.28l.86,0,3.36,0,12.69-.06,44.62-.12h.24v.24c0,12.32,0,25.92,0,40.21l-.27.27h-33.3l-28.5,0h-.2v-.2c0-12.29.08-22.36.11-29.39,0-3.46,0-6.17,0-8,0-.9,0-1.6,0-2.09s0-.7,0-.7,0,.26,0,.74,0,1.21,0,2.13c0,1.88,0,4.61.05,8.09,0,7,.06,17,.11,29.26l-.21-.21,28.5,0h33.3c.23-.24-.3.32-.25.25,0-14.29,0-27.89,0-40.21l.24.24-44.46-.12-12.75-.06-3.4,0-.89,0Z" style="fill: rgb(38, 50, 56); transform-origin: 450.795px 370.39px 0px;" id="elb365y05ve98" class="animable"></path><rect x="424.5" y="273.55" width="53.83" height="13.82" rx="2.11" style="fill: rgb(30, 119, 240); transform-origin: 451.415px 280.46px 0px;" id="elg6gwcgu1d6" class="animable"></rect><text transform="translate(439.93 283.25)" style="font-size:8.772910118103027px;fill:#263238;font-family:Montserrat-Regular, Montserrat">MAIL</text><path d="M538.51,423.44s0-.35,0-1,0-1.63,0-2.89c0-2.55,0-6.28,0-11.08,0-9.62,0-23.5-.08-40.66s-.05-37.56-.08-60.22q0-8.5,0-17.4v-9c0-3,.21-6.11-.87-9a16,16,0,0,0-5.25-7.38,15.77,15.77,0,0,0-8.58-3.32c-.78-.06-1.57-.08-2.37-.07s-1.59.05-2.38.08a17.37,17.37,0,0,0-4.59,1.15,17.67,17.67,0,0,0-4.07,2.48,16.32,16.32,0,0,0-3.17,3.61,16,16,0,0,0-2.22,5.44,29.61,29.61,0,0,0-.31,5.89v11.78q0,11.69,0,22.88c0,14.91,0,29.12,0,42.38,0,26.52-.06,49.25-.08,66.3l-.15-.15,25.25.08,6.73,0h1.74l.6,0h-.57l-1.71,0-6.7,0-25.34.08H504v-.14c0-17.05-.05-39.78-.08-66.3,0-13.26,0-27.47,0-42.38q0-11.19,0-22.88V280.1a29.52,29.52,0,0,1,.32-6,16.56,16.56,0,0,1,2.29-5.63,17.58,17.58,0,0,1,3.27-3.72A18.3,18.3,0,0,1,514,262.2a17.71,17.71,0,0,1,4.74-1.18c.81,0,1.63-.1,2.43-.08s1.6,0,2.41.06a16.4,16.4,0,0,1,14.27,11.05,16,16,0,0,1,.86,4.58c.07,1.55,0,3.06,0,4.58v9q0,8.92,0,17.44c0,22.7-.06,43.15-.08,60.32s-.06,31-.09,40.62c0,4.78,0,8.49,0,11,0,1.25,0,2.2,0,2.86S538.51,423.44,538.51,423.44Z" style="fill: rgb(69, 90, 100); transform-origin: 521.313px 342.189px 0px;" id="elp1d0q2hf7vs" class="animable"></path><path d="M544.38,336.31c0,.14-10.49.26-23.42.26s-23.42-.12-23.42-.26,10.48-.26,23.42-.26S544.38,336.16,544.38,336.31Z" style="fill: rgb(69, 90, 100); transform-origin: 520.96px 336.31px 0px;" id="elx6gog7pi2" class="animable"></path></g><g id="freepik--Character--inject-34" style="transform-origin: 242.428px 294.961px 0px;" class="animable"><path d="M239.65,199.61h0a9.08,9.08,0,0,0,9.77-8.7c.19-4.94.36-9.94.36-9.94s7.5-.7,8-8.11.32-24.53.32-24.53h0A25.85,25.85,0,0,0,232,150l-1.15.78.39,39.88A9.07,9.07,0,0,0,239.65,199.61Z" style="fill: rgb(183, 136, 118); transform-origin: 244.491px 172.602px 0px;" id="el6cqjkd8tjqs" class="animable"></path><path d="M254.61,161.38a1.08,1.08,0,1,1,1.53,0A1.09,1.09,0,0,1,254.61,161.38Z" style="fill: rgb(38, 50, 56); transform-origin: 255.375px 160.616px 0px;" id="elweaqsvysnvs" class="animable"></path><path d="M257.5,160.13c-.12.12-.81-.49-1.84-.55s-1.79.41-1.9.27.08-.28.42-.51a2.43,2.43,0,0,1,1.53-.38,2.53,2.53,0,0,1,1.46.6C257.47,159.83,257.56,160.07,257.5,160.13Z" style="fill: rgb(38, 50, 56); transform-origin: 255.623px 159.548px 0px;" id="elnajc302pd0e" class="animable"></path><path d="M244.93,160a1.08,1.08,0,1,1-1.51.26A1.1,1.1,0,0,1,244.93,160Z" style="fill: rgb(38, 50, 56); transform-origin: 244.304px 160.884px 0px;" id="el1pufbx286if" class="animable"></path><path d="M246.36,160.36c-.13.12-.82-.49-1.84-.56s-1.8.42-1.9.28.08-.29.41-.51a2.53,2.53,0,0,1,3,.22C246.32,160.06,246.42,160.3,246.36,160.36Z" style="fill: rgb(38, 50, 56); transform-origin: 244.485px 159.777px 0px;" id="elswy3vcaqejr" class="animable"></path><path d="M250,168.29a4.9,4.9,0,0,1,1.68-.24c.26,0,.48-.06.51-.21a1.48,1.48,0,0,0-.15-.77c-.22-.7-.44-1.4-.68-2.13a29,29,0,0,1-1.41-5.57,28.74,28.74,0,0,1,2,5.4c.22.74.43,1.44.63,2.14a1.67,1.67,0,0,1,.08,1.12.73.73,0,0,1-.48.4,2,2,0,0,1-.46,0A5,5,0,0,1,250,168.29Z" style="fill: rgb(38, 50, 56); transform-origin: 251.336px 163.911px 0px;" id="elgsqdrutv88" class="animable"></path><path d="M246.59,169.22c.61.27,2.84,1.74,4.92,1.76a2.82,2.82,0,0,1-3.4.92C245.94,171,246.59,169.22,246.59,169.22Z" style="fill: rgb(255, 255, 255); transform-origin: 249.004px 170.677px 0px;" id="el3ukavgeql3a" class="animable"></path><path d="M249.81,180.86a17.22,17.22,0,0,1-9.5-3.34s2,5.48,9.4,5.27Z" style="fill: rgb(163, 105, 87); transform-origin: 245.06px 180.158px 0px;" id="elpvssycungp" class="animable"></path><path d="M231.3,159.94a1.11,1.11,0,0,0-1.07-1.12c-1.38,0-3.65.51-3.86,4.33-.3,5.45,4.94,4.09,5,3.94S231.32,162.06,231.3,159.94Z" style="fill: rgb(183, 136, 118); transform-origin: 228.873px 163.084px 0px;" id="el0wd9gvteqgh" class="animable"></path><path d="M230.13,164.94s-.1.06-.26.13a1,1,0,0,1-.71,0,2.35,2.35,0,0,1-1-2.17,3.16,3.16,0,0,1,.35-1.34,1.09,1.09,0,0,1,.75-.69.48.48,0,0,1,.55.29c.06.15,0,.26,0,.27s.12-.08.09-.31a.61.61,0,0,0-.19-.35.71.71,0,0,0-.52-.17,1.32,1.32,0,0,0-1,.79,3.28,3.28,0,0,0-.42,1.5,2.47,2.47,0,0,0,1.26,2.43,1,1,0,0,0,.88-.09C230.11,165.07,230.15,165,230.13,164.94Z" style="fill: rgb(163, 105, 87); transform-origin: 228.945px 162.99px 0px;" id="els6zhhmm926" class="animable"></path><path d="M256.57,146.37a33.81,33.81,0,0,0-19-1.22s-6.33,2.21-6.66,5.62a58.49,58.49,0,0,0,.08,8.37l.4,0,.06,5.71h2.3l.32-7.72s4.37-3,4.46-7.71c2.13-.28,12.57-1.51,19.69.92v-1.66A2.51,2.51,0,0,0,256.57,146.37Z" style="fill: rgb(38, 50, 56); transform-origin: 244.509px 154.588px 0px;" id="elj9ga5cnuif" class="animable"></path><path d="M245.49,156.78c0,.15-.74.16-1.58.36s-1.49.49-1.58.37.51-.66,1.46-.88S245.52,156.64,245.49,156.78Z" style="fill: rgb(38, 50, 56); transform-origin: 243.906px 157.039px 0px;" id="elj5stxdjlmei" class="animable"></path><path d="M256.52,155.16c-.09.12-.57-.08-1.17,0s-1,.4-1.12.31.23-.71,1-.83S256.62,155.06,256.52,155.16Z" style="fill: rgb(38, 50, 56); transform-origin: 255.369px 155.054px 0px;" id="elg4v5l30u95s" class="animable"></path><path d="M230.76,153c-.36-3.85.26-6.82,1.88-8.71a7.93,7.93,0,0,1,7.53-2.18,9.22,9.22,0,0,0,2.64.84c1.51,0,2.64-1.27,3.78-2.26a4.69,4.69,0,0,1,3.3-1.39,2.23,2.23,0,0,1,2.12,2.45,9.9,9.9,0,0,1,3.23-.85,3.68,3.68,0,0,1,3,1.19,2.28,2.28,0,0,1-.09,3,2.4,2.4,0,0,1,3,0,2.72,2.72,0,0,1,.7,3,3.15,3.15,0,0,1-2.54,1.88,3.79,3.79,0,0,1-3-1.08l-3.18-1.32-15.31.88Z" style="fill: rgb(38, 50, 56); transform-origin: 246.349px 146.15px 0px;" id="elscz3smyd3g8" class="animable"></path><path d="M238.26,151.21a2.24,2.24,0,0,1,2.31-2,5,5,0,0,1,3.06,1.35,16.79,16.79,0,0,0,2.67,2.1,6.07,6.07,0,0,0,3.68.61,8.23,8.23,0,0,0,3.49-1.39,8.86,8.86,0,0,0,3.79,1.08,3.88,3.88,0,0,0,2.55-.61,3.81,3.81,0,0,0,1.28-2.32,3.76,3.76,0,0,0-.08-2.18,3.22,3.22,0,0,0-1.5-1.55,9.72,9.72,0,0,0-2.06-.74l-18.21.45-2.64,3.76Z" style="fill: rgb(38, 50, 56); transform-origin: 248.907px 149.448px 0px;" id="elxn8y94lsuzq" class="animable"></path><path d="M286.86,445.51l.52-8.95-16.74-1.09-.91,13.08,1,.13c4.61.56,23.46,2.51,26.61,1.78C300.88,449.64,286.86,445.51,286.86,445.51Z" style="fill: rgb(30, 119, 240); transform-origin: 283.821px 443.046px 0px;" id="el4ie5r7t2nha" class="animable"></path><g id="el9vnitvo61tw"><g style="opacity: 0.5; transform-origin: 272.785px 446.22px 0px;" class="animable"><path d="M275.81,448.81a5.87,5.87,0,0,0-1.9-3.71,5.71,5.71,0,0,0-3.84-1.47l-.31,4.68Z" style="fill: rgb(255, 255, 255); transform-origin: 272.785px 446.22px 0px;" id="elaoc14ac007" class="animable"></path></g></g><g id="elu25abfmbs4j"><g style="opacity: 0.4; transform-origin: 283.852px 449.165px 0px;" class="animable"><path d="M293.69,447.77s4.9,1.77,4.22,2.55-19.79-.48-28.18-1.77l0-.37,22.29,1.65S292.72,447.75,293.69,447.77Z" style="fill: rgb(255, 255, 255); transform-origin: 283.852px 449.165px 0px;" id="elw9pdspa1qj" class="animable"></path></g></g><path d="M269.52,448.15a1.76,1.76,0,0,0,.29.05l.82.1,3,.33c2.57.27,6.12.58,10,.84s7.49.42,10.06.5l3.06.07h1.11a.9.9,0,0,0-.28,0l-.83,0-3.05-.14c-2.58-.12-6.13-.3-10-.56s-7.48-.55-10-.78l-3-.27-.83-.06Z" style="fill: rgb(38, 50, 56); transform-origin: 283.69px 449.095px 0px;" id="elq9l9pzkykar" class="animable"></path><path d="M292.05,450.09a7,7,0,0,1,.66-1.41,6.47,6.47,0,0,1,1.12-1.1,2.72,2.72,0,0,0-1.78,2.51Z" style="fill: rgb(38, 50, 56); transform-origin: 292.94px 448.835px 0px;" id="elc2b1ph3qj2" class="animable"></path><path d="M287.27,447.26c.05,0,.3-.24.57-.61s.46-.69.41-.72-.3.23-.57.6A1.92,1.92,0,0,0,287.27,447.26Z" style="fill: rgb(38, 50, 56); transform-origin: 287.764px 446.594px 0px;" id="el7y5h7544u6u" class="animable"></path><path d="M286,446.45c0,.05.32-.11.62-.35s.53-.47.49-.52-.31.12-.61.36S285.93,446.41,286,446.45Z" style="fill: rgb(38, 50, 56); transform-origin: 286.552px 446.015px 0px;" id="elgk6q2l8wwj8" class="animable"></path><path d="M285.21,444.82a2.14,2.14,0,0,0,.87.17,2,2,0,0,0,.88,0,2.14,2.14,0,0,0-.87-.17A2,2,0,0,0,285.21,444.82Z" style="fill: rgb(38, 50, 56); transform-origin: 286.085px 444.905px 0px;" id="elkf6otyyg04" class="animable"></path><path d="M285,443.68a1.7,1.7,0,0,0,1,.35,1.63,1.63,0,0,0,1-.07,53.82,53.82,0,0,1-2-.28Z" style="fill: rgb(38, 50, 56); transform-origin: 286px 443.879px 0px;" id="elrjneswnzukh" class="animable"></path><path d="M287.94,445.84a3.06,3.06,0,0,0,1.07.06,6.19,6.19,0,0,0,1.17-.18,3.48,3.48,0,0,0,.67-.22.61.61,0,0,0,.29-.32.43.43,0,0,0-.14-.44,2,2,0,0,0-2.47.42,1.75,1.75,0,0,0-.4.69.59.59,0,0,0-.05.29,3.21,3.21,0,0,1,.55-.89,2,2,0,0,1,1-.53,1.69,1.69,0,0,1,1.28.17c.16.14.08.33-.12.43a2.69,2.69,0,0,1-.62.22,7.18,7.18,0,0,1-1.13.22C288.35,445.83,287.94,445.8,287.94,445.84Z" style="fill: rgb(38, 50, 56); transform-origin: 289.547px 445.313px 0px;" id="el57f35vm1num" class="animable"></path><path d="M288.21,445.91a1.06,1.06,0,0,0,.18-.74,1.71,1.71,0,0,0-.25-.81,1.06,1.06,0,0,0-.86-.6.42.42,0,0,0-.36.47,1.28,1.28,0,0,0,.15.5,3.37,3.37,0,0,0,.47.68,1.61,1.61,0,0,0,.58.48s-.2-.21-.47-.57a3.81,3.81,0,0,1-.41-.68c-.13-.23-.21-.65.07-.68s.52.28.67.5a1.62,1.62,0,0,1,.26.72A3,3,0,0,1,288.21,445.91Z" style="fill: rgb(38, 50, 56); transform-origin: 287.658px 444.835px 0px;" id="els5gk68z5n6" class="animable"></path><path d="M270.16,443.59s.49,0,1.24.12A5.5,5.5,0,0,1,274,445a5.43,5.43,0,0,1,1.53,2.5c.21.73.2,1.22.24,1.22a.91.91,0,0,0,0-.34,4.12,4.12,0,0,0-.12-.92,5.09,5.09,0,0,0-4.27-3.89,4.32,4.32,0,0,0-.92,0A1,1,0,0,0,270.16,443.59Z" style="fill: rgb(38, 50, 56); transform-origin: 272.973px 446.133px 0px;" id="elojhxqmzomu8" class="animable"></path><path d="M272.36,436.73a26.82,26.82,0,0,0-.37,3.43,28.37,28.37,0,0,0-.17,3.45,59.3,59.3,0,0,0,.54-6.88Z" style="fill: rgb(38, 50, 56); transform-origin: 272.089px 440.17px 0px;" id="elqr9v5o8w527" class="animable"></path><path d="M278,447.32a14,14,0,0,0,4.89.37c0-.06-1.1-.07-2.45-.17S278,447.26,278,447.32Z" style="fill: rgb(38, 50, 56); transform-origin: 280.445px 447.534px 0px;" id="elyv9vezexhvo" class="animable"></path><path d="M274.74,447.1s.08.24.17.49.15.49.2.49.11-.26,0-.56S274.78,447.06,274.74,447.1Z" style="fill: rgb(38, 50, 56); transform-origin: 274.956px 447.587px 0px;" id="elnwu6lj4ysx8" class="animable"></path><path d="M273.61,445.48s.05.22.21.4.33.31.37.27-.05-.21-.21-.4S273.65,445.44,273.61,445.48Z" style="fill: rgb(38, 50, 56); transform-origin: 273.905px 445.815px 0px;" id="elute5cehh5y" class="animable"></path><path d="M271.88,444.66c0,.06.24.07.48.17s.4.25.45.21-.08-.27-.38-.4S271.87,444.6,271.88,444.66Z" style="fill: rgb(38, 50, 56); transform-origin: 272.35px 444.81px 0px;" id="elqgb6f8mohwg" class="animable"></path><path d="M270.65,444.24c0,.05.06.15.2.21s.26.07.29,0-.07-.14-.21-.2S270.67,444.19,270.65,444.24Z" style="fill: rgb(38, 50, 56); transform-origin: 270.898px 444.351px 0px;" id="eltazv5d3651" class="animable"></path><path d="M159.87,418.6l6.57-6.1-11.35-12.36-9.7,8.82.66.81c2.94,3.58,15.2,18,18,19.67C167.14,431.28,159.87,418.6,159.87,418.6Z" style="fill: rgb(30, 119, 240); transform-origin: 155.915px 414.881px 0px;" id="el25ij9lwkl2k" class="animable"></path><g id="el7g3gc8lqqof"><g style="opacity: 0.5; transform-origin: 148.195px 409.495px 0px;" class="animable"><path d="M149.6,413.35a5.76,5.76,0,0,0,1.19-4,5.64,5.64,0,0,0-1.75-3.71l-3.46,3.17Z" style="fill: rgb(255, 255, 255); transform-origin: 148.195px 409.495px 0px;" id="elyhcyhdq4za" class="animable"></path></g></g><g id="eliwyy4niisjg"><g style="opacity: 0.4; transform-origin: 155.092px 419.25px 0px;" class="animable"><path d="M163.24,425s2.32,4.65,1.29,4.75-14-14-19.14-20.76l.3-.24,15,16.61S162.55,424.27,163.24,425Z" style="fill: rgb(255, 255, 255); transform-origin: 155.092px 419.25px 0px;" id="elt4ghafncfor" class="animable"></path></g></g><path d="M145.52,408.52s0,.09.17.24l.52.64,2,2.34c1.67,2,4,4.64,6.67,7.54s5.12,5.48,6.92,7.32l2.16,2.16.59.58a1.45,1.45,0,0,0,.22.19s-.06-.08-.19-.22l-.57-.6-2.1-2.21c-1.78-1.86-4.23-4.45-6.88-7.35s-5-5.57-6.71-7.51l-2-2.29c-.2-.23-.38-.44-.55-.62Z" style="fill: rgb(38, 50, 56); transform-origin: 155.145px 419.025px 0px;" id="elz799d51fn" class="animable"></path><path d="M160.45,425.5a8.1,8.1,0,0,1,1.46-.56,6.87,6.87,0,0,1,1.56,0,2.28,2.28,0,0,0-1.6-.18A2.33,2.33,0,0,0,160.45,425.5Z" style="fill: rgb(38, 50, 56); transform-origin: 161.96px 425.095px 0px;" id="elk71ytuqq56n" class="animable"></path><path d="M159,420.16a3.61,3.61,0,0,0,1.63-.29c0-.06-.39,0-.83,0S159,420.1,159,420.16Z" style="fill: rgb(38, 50, 56); transform-origin: 159.815px 420.004px 0px;" id="eloulznqpkdh" class="animable"></path><path d="M158.57,418.67a1.4,1.4,0,0,0,.69.17c.39,0,.71,0,.71,0s-.3-.14-.69-.17S158.58,418.61,158.57,418.67Z" style="fill: rgb(38, 50, 56); transform-origin: 159.27px 418.738px 0px;" id="elij5rriixzl8" class="animable"></path><path d="M159.16,417s.18.36.51.72.62.62.66.58-.19-.36-.51-.72S159.2,416.93,159.16,417Z" style="fill: rgb(38, 50, 56); transform-origin: 159.747px 417.647px 0px;" id="elutteours94r" class="animable"></path><path d="M159.78,416a1.75,1.75,0,0,0,.45.92,1.71,1.71,0,0,0,.78.65c0-.05-.28-.35-.62-.78S159.84,416,159.78,416Z" style="fill: rgb(38, 50, 56); transform-origin: 160.395px 416.785px 0px;" id="elrfs5g939947" class="animable"></path><path d="M160.42,419.59a3.31,3.31,0,0,0,.74.79,5.69,5.69,0,0,0,1,.67,2.91,2.91,0,0,0,.64.3.59.59,0,0,0,.43,0,.45.45,0,0,0,.21-.42,2,2,0,0,0-2.08-1.41,2,2,0,0,0-.77.23c-.17.09-.24.16-.23.17a3.15,3.15,0,0,1,1-.26,1.94,1.94,0,0,1,1.06.28,1.63,1.63,0,0,1,.8,1c0,.21-.17.3-.38.23a2.91,2.91,0,0,1-.6-.27,9,9,0,0,1-1-.62C160.73,419.87,160.45,419.56,160.42,419.59Z" style="fill: rgb(38, 50, 56); transform-origin: 161.9px 420.452px 0px;" id="el460roaxisec" class="animable"></path><path d="M160.57,419.83a1.08,1.08,0,0,0,.64-.42,1.78,1.78,0,0,0,.38-.74,1.08,1.08,0,0,0-.2-1,.43.43,0,0,0-.59.09,1.17,1.17,0,0,0-.23.46,3.43,3.43,0,0,0-.14.82,1.56,1.56,0,0,0,.09.75,7.15,7.15,0,0,0,0-.74,4.53,4.53,0,0,1,.17-.77c.07-.26.31-.61.52-.45s.19.57.15.84a1.76,1.76,0,0,1-.31.69A3.94,3.94,0,0,1,160.57,419.83Z" style="fill: rgb(38, 50, 56); transform-origin: 161.027px 418.711px 0px;" id="el6z0c7sw7jw7" class="animable"></path><path d="M149.14,405.67s.35.33.8.95a5.34,5.34,0,0,1,1,2.74,5.47,5.47,0,0,1-.62,2.86c-.36.68-.7,1-.67,1s.1-.07.25-.23a4.33,4.33,0,0,0,.54-.75,5.09,5.09,0,0,0-.39-5.76,5.35,5.35,0,0,0-.64-.67A1.44,1.44,0,0,0,149.14,405.67Z" style="fill: rgb(38, 50, 56); transform-origin: 150.146px 409.445px 0px;" id="el5oyuv7wnubl" class="animable"></path><path d="M155.46,402.24a28.77,28.77,0,0,0-2.64,2.22,29.31,29.31,0,0,0-2.5,2.37,30.43,30.43,0,0,0,2.64-2.22A29.31,29.31,0,0,0,155.46,402.24Z" style="fill: rgb(38, 50, 56); transform-origin: 152.89px 404.535px 0px;" id="elhkk1vqq4k5d" class="animable"></path><path d="M152.24,413.8a13.59,13.59,0,0,0,3.28,3.65s-.75-.81-1.66-1.81S152.29,413.77,152.24,413.8Z" style="fill: rgb(38, 50, 56); transform-origin: 153.88px 415.625px 0px;" id="el2cj8mmihx9n" class="animable"></path><path d="M150,411.37c-.06,0-.11.23-.22.48s-.23.45-.19.49.25-.12.38-.41S150.07,411.37,150,411.37Z" style="fill: rgb(38, 50, 56); transform-origin: 149.821px 411.858px 0px;" id="elb0nkxwh6wt" class="animable"></path><path d="M150.32,409.42c-.06,0-.11.19-.12.44s0,.45.07.45.12-.19.13-.44S150.38,409.42,150.32,409.42Z" style="fill: rgb(38, 50, 56); transform-origin: 150.299px 409.865px 0px;" id="elk1grmjrj8ce" class="animable"></path><path d="M149.64,407.63c0,.05.12.22.22.46s.13.46.19.46.13-.25,0-.55S149.67,407.59,149.64,407.63Z" style="fill: rgb(38, 50, 56); transform-origin: 149.882px 408.086px 0px;" id="elp8um5rluyd8" class="animable"></path><path d="M149,406.48c-.05,0-.05.15,0,.29s.14.23.19.21.05-.15,0-.29S149.09,406.46,149,406.48Z" style="fill: rgb(38, 50, 56); transform-origin: 149.095px 406.73px 0px;" id="eluxssm3afn3h" class="animable"></path><path d="M339.05,167.41c-1.48-.54-4.61,7.41-4.93,5.31s5-9.27,3.4-9.77c-2-.65-5.17,7.73-5.49,8.41s-1.33.26-1-.35c.46-.87,5.07-10.16,3.07-10.82-1.11-.36-1.59,1.69-1.59,1.69s-3.66,9-4.59,8.66,1-5.71,1.82-7.47.27-2.82-.79-2.52c-.72.2-3.28,5.53-4,7.29s-2.7,6.62-3.68,3.44-2.95-5.25-3.87-5.45a1,1,0,0,0-.83,1.79,12,12,0,0,1,1.59,3,7.86,7.86,0,0,1,.59,2.62,27.89,27.89,0,0,1-.16,5.43l-18.74,32.72-29.24-11.46-4.24,16.73s38.37,17.47,40.8,16.19c5.48-2.89,23.19-50.6,23.19-50.6h0a112.48,112.48,0,0,0,7.2-10.07C340,167.84,339.6,167.61,339.05,167.41Z" style="fill: rgb(183, 136, 118); transform-origin: 302.918px 196.532px 0px;" id="elrfm4nq4c8g" class="animable"></path><path d="M294,442.15c0,.14-5.85,0-13-.42s-13-.8-13-.94,5.84,0,13,.42S294,442,294,442.15Z" style="fill: rgb(69, 90, 100); transform-origin: 281px 441.47px 0px;" id="elpa6zo8k5qus" class="animable"></path><path d="M266.34,274s25.61,55.38,32.45,70.4a10.62,10.62,0,0,1,.93,5L294,442.12l-26.65-1.69,4-89.44-44.51-57.22c-3.79-4.88-7.27-10.55-8.59-16.59-.44-2,0-4,0-6h0L266.34,274" style="fill: rgb(38, 50, 56); transform-origin: 258.896px 356.65px 0px;" id="elw9nynsojluf" class="animable"></path><path d="M263.71,282s-20.84,57.34-26.57,72.82a10.5,10.5,0,0,1-2.89,4.22l-69.42,61.75-17.73-20,65.84-60.68,8.72-72a41.42,41.42,0,0,1,6-17.31,26.55,26.55,0,0,1,3.75-4.74h0L263.71,282" style="fill: rgb(38, 50, 56); transform-origin: 205.405px 333.425px 0px;" id="el36lgjxl5jwk" class="animable"></path><path d="M271.28,351a1.45,1.45,0,0,1-.16-.17l-.45-.54L269,348.19c-1.48-1.87-3.57-4.5-6.13-7.75l-9.07-11.51L242.48,315c-8-9.89-15.07-19.06-19.34-26.26a44.88,44.88,0,0,1-4.3-8.91,17.78,17.78,0,0,1-.63-2.63l-.07-.69a1.08,1.08,0,0,1,0-.24.79.79,0,0,1,.06.23c0,.19.08.41.13.69a21.47,21.47,0,0,0,.71,2.57,48.2,48.2,0,0,0,4.42,8.78c4.34,7.13,11.42,16.24,19.43,26.13,4,4.95,7.85,9.64,11.28,14s6.42,8.28,9,11.58l6,7.86,1.61,2.15.41.56Q271.29,351,271.28,351Z" style="fill: rgb(69, 90, 100); transform-origin: 244.707px 313.635px 0px;" id="el5xjzin2gk3g" class="animable"></path><path d="M282.74,351a30.42,30.42,0,0,1-5.62.16,31,31,0,0,1-5.62-.35,31,31,0,0,1,5.63-.17A29.4,29.4,0,0,1,282.74,351Z" style="fill: rgb(69, 90, 100); transform-origin: 277.12px 350.903px 0px;" id="elzjh51uy3ahm" class="animable"></path><path d="M280.74,355.64a45.22,45.22,0,0,1-8.81-4.09,22.88,22.88,0,0,1,4.51,1.81A23.26,23.26,0,0,1,280.74,355.64Z" style="fill: rgb(69, 90, 100); transform-origin: 276.335px 353.595px 0px;" id="elzx4fz35m8dm" class="animable"></path><path d="M294.25,438.17c0,.15-6.05-.18-13.49-.73s-13.47-1.1-13.46-1.24,6.05.18,13.5.73S294.26,438,294.25,438.17Z" style="fill: rgb(69, 90, 100); transform-origin: 280.775px 437.187px 0px;" id="elyw9g3e9aoub" class="animable"></path><path d="M217.81,348.25a18.83,18.83,0,0,1-2.31-3.76,18.63,18.63,0,0,1-1.85-4,19,19,0,0,1,2.31,3.76A18.63,18.63,0,0,1,217.81,348.25Z" style="fill: rgb(69, 90, 100); transform-origin: 215.73px 344.37px 0px;" id="el2zsaoslp6zj" class="animable"></path><path d="M222.49,346.34a25.42,25.42,0,0,1-4.34-2.84,25,25,0,0,1-4-3.26,27,27,0,0,1,4.34,2.84A25,25,0,0,1,222.49,346.34Z" style="fill: rgb(69, 90, 100); transform-origin: 218.32px 343.29px 0px;" id="elz69gb8o1b8" class="animable"></path><path d="M288.34,205.9c-8.11-4.17-13.85-6.65-18.28-9.5-13.77-8.84-17.4-6.88-20.64-7.28-2.72.83-6.75,2.42-8.27,2.7-1.67.31-7.11-1.6-10.71-2.72h0c-8.38.36-13.52,3.92-21.26,9.62l-12.66,10.65,16,16.12,5.36-2.78c.9,7.27.68,10.1,1,18.86l-.72,35.22,52.11,2.95L267.42,246l-1.26-26.53L281,226.9l7.33-21" style="fill: rgb(69, 90, 100); transform-origin: 242.43px 234.42px 0px;" id="el8rozp84szaa" class="animable"></path><path d="M230.06,190.09v-5.41s9.3,1,11.19,7.45Z" style="fill: rgb(69, 90, 100); transform-origin: 235.655px 188.405px 0px;" id="elum5478782f" class="animable"></path><path d="M249.42,189.12l-.35-4.44a9.14,9.14,0,0,0-7.82,7.45Z" style="fill: rgb(69, 90, 100); transform-origin: 245.335px 188.405px 0px;" id="elbk0fs6j8x9h" class="animable"></path><path d="M250.53,209.11a10.71,10.71,0,0,1,1.8-.11c1.19,0,2.93-.09,5-.12h.22v.23c0,2,0,4.42,0,7v.14l-.12.07-.5.35-2.68,1.84-.14.09-.14-.09c-1.3-.84-2.53-1.63-3.64-2.36l-.11-.06v-.12c0-2.1.08-3.84.12-5a10.71,10.71,0,0,1,.11-1.8s.06.74.1,1.94.09,2.87.12,4.88l-.11-.19,3.68,2.31H254l2.68-1.85.5-.34-.11.21c0-2.54,0-4.91,0-7l.22.22c-2,0-3.7-.08-4.9-.12S250.56,209.14,250.53,209.11Z" style="fill: rgb(38, 50, 56); transform-origin: 253.885px 213.74px 0px;" id="eldbm4qv2x9t9" class="animable"></path><path d="M257.2,210.81a11.47,11.47,0,0,1-3.41.21,11.23,11.23,0,0,1-3.4-.31,11.43,11.43,0,0,1,3.41-.21A10.86,10.86,0,0,1,257.2,210.81Z" style="fill: rgb(38, 50, 56); transform-origin: 253.795px 210.76px 0px;" id="eldczjv72enjo" class="animable"></path><path d="M239.59,188.89c.12.09-1.65,2.14-3.14,5.24l-.14.29-.25-.2-.62-.49a45.33,45.33,0,0,1-5.28-4.53,46.29,46.29,0,0,1,5.6,4.12l.62.5-.39.08a20.52,20.52,0,0,1,2.35-3.72A5.13,5.13,0,0,1,239.59,188.89Z" style="fill: rgb(38, 50, 56); transform-origin: 234.878px 191.655px 0px;" id="eld4yz4h1rzz" class="animable"></path><path d="M249.36,189.32a23.55,23.55,0,0,1-3.29,3.66l-.12.11-.22.22-.18-.25a22.62,22.62,0,0,1-2.49-4.05,22.41,22.41,0,0,1,2.92,3.75l-.4,0,.12-.12A22.45,22.45,0,0,1,249.36,189.32Z" style="fill: rgb(38, 50, 56); transform-origin: 246.21px 191.16px 0px;" id="el35dz5ygdrtb" class="animable"></path><path d="M242.08,220.71c-.14,0-.42-6.27-.63-14s-.25-14-.11-14,.43,6.27.63,14S242.23,220.7,242.08,220.71Z" style="fill: rgb(38, 50, 56); transform-origin: 241.711px 206.71px 0px;" id="elqxs8w8iggq" class="animable"></path><path d="M223.19,191.8a1.52,1.52,0,0,1,.46,0,6.16,6.16,0,0,1,1.31.09,9.23,9.23,0,0,1,4.35,2A10.53,10.53,0,0,1,233,200a14.28,14.28,0,0,1-1,8.65,20.92,20.92,0,0,1-5.27,7,35.75,35.75,0,0,1-5.81,4.12c-1.76,1-3.22,1.76-4.23,2.26a11.39,11.39,0,0,1-1.6.72,11.43,11.43,0,0,1,1.5-.9c1-.56,2.42-1.34,4.14-2.39a38.18,38.18,0,0,0,5.68-4.17,20.8,20.8,0,0,0,5.12-6.81,14.07,14.07,0,0,0,1-8.34,10.33,10.33,0,0,0-3.41-5.91,9.59,9.59,0,0,0-4.15-2.11C223.82,191.82,223.19,191.86,223.19,191.8Z" style="fill: rgb(38, 50, 56); transform-origin: 224.18px 207.266px 0px;" id="elk0kh4fru5mi" class="animable"></path><path d="M265.92,221.1a6.38,6.38,0,0,1-.53-1.9,40.37,40.37,0,0,1-.63-4.73,39.72,39.72,0,0,1-.08-4.77,7,7,0,0,1,.24-2c.16,0,.08,3,.36,6.69S266.07,221.07,265.92,221.1Z" style="fill: rgb(38, 50, 56); transform-origin: 265.295px 214.4px 0px;" id="elin56k1kgdqp" class="animable"></path><g id="elovwn9lzm95"><rect x="156.29" y="229.17" width="100.77" height="62.69" style="fill: rgb(30, 119, 240); transform-origin: 206.675px 260.515px 0px; transform: rotate(-9.36deg);" class="animable"></rect></g><g id="elavcam7f5pii"><g style="opacity: 0.6; transform-origin: 206.675px 260.515px 0px;" class="animable"><g id="el9rs94csqkxg"><rect x="156.29" y="229.17" width="100.77" height="62.69" style="transform-origin: 206.675px 260.515px 0px; transform: rotate(-9.36deg);" class="animable"></rect></g></g></g><g id="el4n9i8bqex4g"><rect x="160.2" y="230.46" width="100.77" height="62.69" style="fill: rgb(30, 119, 240); transform-origin: 210.585px 261.805px 0px; transform: rotate(-9.36deg);" class="animable"></rect></g><g id="elbuwiuneeim5"><g style="opacity: 0.4; transform-origin: 210.585px 261.805px 0px;" class="animable"><g id="elvpu3e7c67p"><rect x="160.2" y="230.46" width="100.77" height="62.69" style="transform-origin: 210.585px 261.805px 0px; transform: rotate(-9.36deg);" class="animable"></rect></g></g></g><g id="elo1bgyzzckac"><rect x="163.71" y="232.33" width="100.77" height="62.69" style="fill: rgb(30, 119, 240); transform-origin: 214.095px 263.675px 0px; transform: rotate(-9.36deg);" class="animable"></rect></g><path d="M159.28,240.94a1.32,1.32,0,0,1,.31.11l.86.38,3.32,1.52,12.17,5.66L216,267.46l2.39,1.13-.31.06,28.73-31.33,8.68-9.38,2.37-2.53.63-.65a1.63,1.63,0,0,1,.23-.21,2,2,0,0,1-.19.25l-.59.68-2.3,2.59-8.57,9.5L218.46,269l-.13.15-.18-.09-2.39-1.13-40-19-12.09-5.81-3.28-1.6-.85-.43Z" style="fill: rgb(38, 50, 56); transform-origin: 209px 246.85px 0px;" id="elcgwv320r195" class="animable"></path><path d="M200.68,260.51c.12.09-6.77,9.62-15.39,21.29s-15.7,21.07-15.82,21,6.78-9.62,15.4-21.29S200.57,260.43,200.68,260.51Z" style="fill: rgb(38, 50, 56); transform-origin: 185.075px 281.655px 0px;" id="el90zb4wiah3q" class="animable"></path><path d="M270.71,286.11c-.09.11-8.95-6.9-19.79-15.66s-19.55-16-19.46-16.07,8.95,6.9,19.79,15.66S270.8,286,270.71,286.11Z" style="fill: rgb(38, 50, 56); transform-origin: 251.085px 270.245px 0px;" id="elfal6phlkrh8" class="animable"></path><g id="elp1qculpj4e"><polygon points="218.78 273.64 166.91 244.54 218.27 268.83 257.67 225.69 218.78 273.64" style="opacity: 0.3; transform-origin: 212.29px 249.665px 0px;" class="animable"></polygon></g><path d="M196.7,289a12.17,12.17,0,0,1-2.83-1.8,7.85,7.85,0,0,1-1.81-2,35,35,0,0,1-2-3.53s.67-32.46,1.86-37.82,19.88-18.72,19.88-18.72l-12.59-12.93a100,100,0,0,0-22.5,22.92c-6,8.79.53,49.65.53,49.68a96.42,96.42,0,0,0-1.08,10.55c0,5,.41,5,1,4.87,1.55-.26.38-8.72,1.69-7s.22,10.51,1.83,10.18c2.1-.44.72-9.27.66-10s1-.87,1-.18c0,1,.57,11.33,2.63,10.93,1.15-.23.55-2.25.55-2.25s-1.22-9.64-.24-9.8,1.91,5.47,2.08,7.4,1.14,2.59,1.92,1.81c.53-.52.15-6.43-.07-8.32s-.89-7.1,1.53-4.81,5.14,3.14,6,2.85A1,1,0,0,0,196.7,289Z" style="fill: rgb(183, 136, 118); transform-origin: 192.987px 258.181px 0px;" id="elslfu3am8dxr" class="animable"></path></g><defs>     <filter id="active" height="200%">         <feMorphology in="SourceAlpha" result="DILATED" operator="dilate" radius="2"></feMorphology>                <feFlood flood-color="#32DFEC" flood-opacity="1" result="PINK"></feFlood>        <feComposite in="PINK" in2="DILATED" operator="in" result="OUTLINE"></feComposite>        <feMerge>            <feMergeNode in="OUTLINE"></feMergeNode>            <feMergeNode in="SourceGraphic"></feMergeNode>        </feMerge>    </filter>    <filter id="hover" height="200%">        <feMorphology in="SourceAlpha" result="DILATED" operator="dilate" radius="2"></feMorphology>                <feFlood flood-color="#ff0000" flood-opacity="0.5" result="PINK"></feFlood>        <feComposite in="PINK" in2="DILATED" operator="in" result="OUTLINE"></feComposite>        <feMerge>            <feMergeNode in="OUTLINE"></feMergeNode>            <feMergeNode in="SourceGraphic"></feMergeNode>        </feMerge>            <feColorMatrix type="matrix" values="0   0   0   0   0                0   1   0   0   0                0   0   0   0   0                0   0   0   1   0 "></feColorMatrix>    </filter></defs></svg>