<svg class="animated" id="freepik_stories-letter" xmlns="http://www.w3.org/2000/svg" viewBox="0 0 500 500" version="1.1" xmlnsXlink="http://www.w3.org/1999/xlink" xmlnsSvgjs="http://svgjs.com/svgjs"><style>svg#freepik_stories-letter:not(.animated) .animable {opacity: 0;}svg#freepik_stories-letter.animated #freepik--background-complete--inject-7 {animation: 1s 1 forwards cubic-bezier(.36,-0.01,.5,1.38) slideUp;animation-delay: 0s;}svg#freepik_stories-letter.animated #freepik--Shadow--inject-7 {animation: 1s 1 forwards cubic-bezier(.36,-0.01,.5,1.38) slideUp;animation-delay: 0s;}svg#freepik_stories-letter.animated #freepik--Letter--inject-7 {animation: 1s 1 forwards cubic-bezier(.36,-0.01,.5,1.38) slideLeft;animation-delay: 0s;}svg#freepik_stories-letter.animated #freepik--trash-bin--inject-7 {animation: 1s 1 forwards cubic-bezier(.36,-0.01,.5,1.38) zoomIn;animation-delay: 0s;}svg#freepik_stories-letter.animated #freepik--paper-plane--inject-7 {animation: 1s 1 forwards cubic-bezier(.36,-0.01,.5,1.38) slideUp;animation-delay: 0s;}svg#freepik_stories-letter.animated #freepik--Character--inject-7 {animation: 1s 1 forwards cubic-bezier(.36,-0.01,.5,1.38) slideLeft;animation-delay: 0s;}            @keyframes slideUp {                0% {                    opacity: 0;                    transform: translateY(30px);                }                100% {                    opacity: 1;                    transform: inherit;                }            }                    @keyframes slideLeft {                0% {                    opacity: 0;                    transform: translateX(-30px);                }                100% {                    opacity: 1;                    transform: translateX(0);                }            }                    @keyframes zoomIn {                0% {                    opacity: 0;                    transform: scale(0.5);                }                100% {                    opacity: 1;                    transform: scale(1);                }            }        </style><g id="freepik--background-complete--inject-7" style="transform-origin: 250px 228.23px 0px;" class="animable"><rect y="382.4" width="500" height="0.25" style="fill: rgb(235, 235, 235); transform-origin: 250px 382.525px 0px;" id="eldz4mq2ajo6r" class="animable"></rect><rect x="416.78" y="398.49" width="33.12" height="0.25" style="fill: rgb(235, 235, 235); transform-origin: 433.34px 398.615px 0px;" id="eln1ci2ng6i3" class="animable"></rect><rect x="322.53" y="401.21" width="8.69" height="0.25" style="fill: rgb(235, 235, 235); transform-origin: 326.875px 401.335px 0px;" id="elth35kn3vzhm" class="animable"></rect><rect x="396.59" y="389.21" width="19.19" height="0.25" style="fill: rgb(235, 235, 235); transform-origin: 406.185px 389.335px 0px;" id="el3ayhbcylre" class="animable"></rect><rect x="52.46" y="390.89" width="43.19" height="0.25" style="fill: rgb(235, 235, 235); transform-origin: 74.055px 391.015px 0px;" id="el19f3r0s4v1w" class="animable"></rect><rect x="104.56" y="390.89" width="6.33" height="0.25" style="fill: rgb(235, 235, 235); transform-origin: 107.725px 391.015px 0px;" id="el3na7vzrah7h" class="animable"></rect><rect x="131.47" y="395.11" width="93.68" height="0.25" style="fill: rgb(235, 235, 235); transform-origin: 178.31px 395.235px 0px;" id="elqmk7zlw0o08" class="animable"></rect><path d="M237,337.8H43.91a5.71,5.71,0,0,1-5.7-5.71V60.66A5.71,5.71,0,0,1,43.91,55H237a5.71,5.71,0,0,1,5.71,5.71V332.09A5.71,5.71,0,0,1,237,337.8ZM43.91,55.2a5.46,5.46,0,0,0-5.45,5.46V332.09a5.46,5.46,0,0,0,5.45,5.46H237a5.47,5.47,0,0,0,5.46-5.46V60.66A5.47,5.47,0,0,0,237,55.2Z" style="fill: rgb(235, 235, 235); transform-origin: 140.46px 196.4px 0px;" id="el6vuu8v0qs6e" class="animable"></path><path d="M453.31,337.8H260.21a5.72,5.72,0,0,1-5.71-5.71V60.66A5.72,5.72,0,0,1,260.21,55h193.1A5.71,5.71,0,0,1,459,60.66V332.09A5.71,5.71,0,0,1,453.31,337.8ZM260.21,55.2a5.47,5.47,0,0,0-5.46,5.46V332.09a5.47,5.47,0,0,0,5.46,5.46h193.1a5.47,5.47,0,0,0,5.46-5.46V60.66a5.47,5.47,0,0,0-5.46-5.46Z" style="fill: rgb(235, 235, 235); transform-origin: 356.75px 196.4px 0px;" id="elcpn6qk0mr8" class="animable"></path><path d="M298.42,376.7H275.25l12.18-99.21a8.84,8.84,0,0,1,8.54-7.6h101.1L382.25,376.7Z" style="fill: rgb(245, 245, 245); transform-origin: 336.16px 323.295px 0px;" id="elea1zktxx89q" class="animable"></path><path d="M371.9,376.7h23.17l12.19-99.21a6.59,6.59,0,0,0-6.68-7.6h-8a8.85,8.85,0,0,0-8.54,7.6Z" style="fill: rgb(240, 240, 240); transform-origin: 389.619px 323.294px 0px;" id="elyurjbkue0s" class="animable"></path><path d="M363.37,376.58l4.2-48a4.56,4.56,0,0,1,4-4.14l1.73-.22a6.14,6.14,0,0,0,5.33-5.55l.77-8.75a6.13,6.13,0,0,0-6.11-6.67H412a6.13,6.13,0,0,1,6.11,6.67l-.76,8.75a6.15,6.15,0,0,1-5.34,5.55l-1.72.22a4.57,4.57,0,0,0-4,4.14l-4.2,48a6.78,6.78,0,0,1-6.75,6.18H356.62A6.78,6.78,0,0,0,363.37,376.58Z" style="fill: rgb(230, 230, 230); transform-origin: 387.377px 343.005px 0px;" id="elnjdtzztvzk9" class="animable"></path><path d="M256.8,316.58a14.57,14.57,0,0,0-14.53-13.31H276a14.59,14.59,0,0,1,14.54,13.31l3.32,38H260.13Z" style="fill: rgb(230, 230, 230); transform-origin: 268.065px 328.925px 0px;" id="eln4l5v83na2o" class="animable"></path><path d="M227.3,303.27h15a14.57,14.57,0,0,1,14.53,13.31l3.33,38h80.29l3.33-38a14.59,14.59,0,0,1,14.53-13.31h15a6.13,6.13,0,0,1,6.11,6.67l-.77,8.75a6.14,6.14,0,0,1-5.33,5.55l-1.73.22a4.56,4.56,0,0,0-4,4.14l-4.2,48a6.78,6.78,0,0,1-6.75,6.18H243.93a6.76,6.76,0,0,1-6.74-6.18l-4.2-48a4.57,4.57,0,0,0-4-4.14l-1.72-.22a6.14,6.14,0,0,1-5.34-5.55l-.77-8.75A6.14,6.14,0,0,1,227.3,303.27Z" style="fill: rgb(240, 240, 240); transform-origin: 300.29px 343.025px 0px;" id="elqnphs0lhi7f" class="animable"></path><path d="M303.64,134.36s-1.17-7.72,4.47-12.68,5.14-7.9,3.53-8.28-3.1,4.57-5.58,5.93c0,0-.07-7.06,2.44-9.66s3.84-9.3,1.44-9.42-2.64,4-3.13,6.89-3.17,7-3.17,7-.52-6.32-2.14-8.92,2.71-8.54,1-11.15-4.64,2.36-4.39,7.93,4,11.52,3.09,17.34c0,0-1.64-4.09-3.11-4.46s-3-3.07-3.95-4.07-2.23,2.46,0,5.68,7.93,11.84,7.06,18.8Z" style="fill: rgb(230, 230, 230); transform-origin: 302.811px 114.323px 0px;" id="elcjwm4geusf" class="animable"></path><path d="M307,130.85l1.85,11.58a5.89,5.89,0,0,1-5.82,6.81h-2a5.88,5.88,0,0,1-5.81-6.81l1.85-11.58Z" style="fill: rgb(245, 245, 245); transform-origin: 302.034px 140.045px 0px;" id="elchs67096ft" class="animable"></path><g id="elsykxlxhzztd"><rect x="279.1" y="144.97" width="130.44" height="6.7" style="fill: rgb(230, 230, 230); transform-origin: 344.32px 148.32px 0px; transform: rotate(180deg);" class="animable" id="el5eo33nrbz8k"></rect></g><g id="ele5c29h6maw"><rect x="397.79" y="120.27" width="5.75" height="24.7" style="fill: rgb(240, 240, 240); transform-origin: 400.665px 132.62px 0px; transform: rotate(180deg);" class="animable" id="elqzlf7wag2tr"></rect></g><g id="elsq6p9tnmymn"><rect x="370" y="120.27" width="5.75" height="24.7" style="fill: rgb(240, 240, 240); transform-origin: 372.875px 132.62px 0px; transform: rotate(180deg);" class="animable" id="eld25ik9lu24k"></rect></g><g id="el4cxkc0lumt6"><rect x="336.32" y="119.96" width="5.75" height="24.7" style="fill: rgb(240, 240, 240); transform-origin: 339.195px 132.31px 0px; transform: rotate(-170.22deg);" class="animable" id="elj8lh4bejb2n"></rect></g><g id="el7gyd7g2a2ux"><rect x="390.67" y="123.52" width="5.75" height="21.45" style="fill: rgb(240, 240, 240); transform-origin: 393.545px 134.245px 0px; transform: rotate(180deg);" class="animable" id="elsognb27q8eq"></rect></g><g id="elurz9o8jpu6p"><rect x="377.46" y="123.52" width="5.75" height="21.45" style="fill: rgb(240, 240, 240); transform-origin: 380.335px 134.245px 0px; transform: rotate(180deg);" class="animable" id="eluxzgwmdcnp"></rect></g><g id="elznwgth6am6s"><rect x="344.12" y="123.52" width="5.75" height="21.45" style="fill: rgb(240, 240, 240); transform-origin: 346.995px 134.245px 0px; transform: rotate(180deg);" class="animable" id="eln6z16cm3z5"></rect></g><g id="elmspwb74zru"><rect x="360.06" y="123.15" width="5.75" height="21.45" style="fill: rgb(240, 240, 240); transform-origin: 362.935px 133.875px 0px; transform: rotate(-167.47deg);" class="animable" id="el31fgde1lqg2"></rect></g><g id="el4hoe8iuodf2"><rect x="385.7" y="119.04" width="2.87" height="25.93" style="fill: rgb(240, 240, 240); transform-origin: 387.135px 132.005px 0px; transform: rotate(180deg);" class="animable" id="ela0iv0zn6dv"></rect></g><g id="elskc7rkky60h"><rect x="351.52" y="119.04" width="2.87" height="25.93" style="fill: rgb(240, 240, 240); transform-origin: 352.955px 132.005px 0px; transform: rotate(180deg);" class="animable" id="el8o55rdxyu3"></rect></g><rect x="279.1" y="195" width="130.44" height="6.7" style="fill: rgb(230, 230, 230); transform-origin: 344.32px 198.35px 0px;" id="el0r4qqvrk3rdr" class="animable"></rect><rect x="285.11" y="170.3" width="5.75" height="24.7" style="fill: rgb(240, 240, 240); transform-origin: 287.985px 182.65px 0px;" id="el5h00p84yvxr" class="animable"></rect><rect x="312.89" y="170.3" width="5.75" height="24.7" style="fill: rgb(240, 240, 240); transform-origin: 315.765px 182.65px 0px;" id="elpcet4y9qn3c" class="animable"></rect><g id="elbghk2a12ta"><rect x="346.58" y="169.99" width="5.75" height="24.7" style="fill: rgb(240, 240, 240); transform-origin: 349.455px 182.34px 0px; transform: rotate(-9.78deg);" class="animable" id="ela0e4us3wx6m"></rect></g><rect x="292.23" y="173.55" width="5.75" height="21.45" style="fill: rgb(240, 240, 240); transform-origin: 295.105px 184.275px 0px;" id="elwhgypv5h8j" class="animable"></rect><rect x="305.43" y="173.55" width="5.75" height="21.45" style="fill: rgb(240, 240, 240); transform-origin: 308.305px 184.275px 0px;" id="el6nigllsgupw" class="animable"></rect><rect x="338.77" y="173.55" width="5.75" height="21.45" style="fill: rgb(240, 240, 240); transform-origin: 341.645px 184.275px 0px;" id="elxncjdmcfrnl" class="animable"></rect><g id="el9q7k37zth8"><rect x="322.83" y="173.18" width="5.75" height="21.45" style="fill: rgb(240, 240, 240); transform-origin: 325.705px 183.905px 0px; transform: rotate(-12.53deg);" class="animable" id="elifb2k0q1xf"></rect></g><rect x="300.07" y="169.07" width="2.87" height="25.93" style="fill: rgb(240, 240, 240); transform-origin: 301.505px 182.035px 0px;" id="elqcejxarpbz" class="animable"></rect><rect x="334.25" y="169.07" width="2.87" height="25.93" style="fill: rgb(240, 240, 240); transform-origin: 335.685px 182.035px 0px;" id="elmgris7jf8h" class="animable"></rect><rect x="369.02" y="175.45" width="28" height="19.33" style="fill: rgb(245, 245, 245); transform-origin: 383.02px 185.115px 0px;" id="elkqkgerv70h" class="animable"></rect><g id="elwfhc3cgruck"><rect x="93.45" y="112.15" width="31" height="43.87" style="fill: rgb(235, 235, 235); transform-origin: 108.95px 134.085px 0px; transform: rotate(90deg);" class="animable" id="elwrqztd855uo"></rect></g><g id="elyk6njv8gqzo"><rect x="95.47" y="114.21" width="26.96" height="39.75" style="fill: rgb(245, 245, 245); transform-origin: 108.95px 134.085px 0px; transform: rotate(90deg);" class="animable" id="elsx02ildqe9"></rect></g><g id="elba64w16saye"><rect x="108.66" y="151.1" width="31.01" height="43.87" style="fill: rgb(235, 235, 235); transform-origin: 124.165px 173.035px 0px; transform: rotate(90deg);" class="animable" id="elanhhhstr6sd"></rect></g><g id="elwbzyuzu6k8"><rect x="110.68" y="153.16" width="26.96" height="39.75" style="fill: rgb(245, 245, 245); transform-origin: 124.16px 173.035px 0px; transform: rotate(90deg);" class="animable" id="elpyk1a9thj5i"></rect></g><rect x="139.21" y="110.09" width="27.92" height="39.5" style="fill: rgb(235, 235, 235); transform-origin: 153.17px 129.84px 0px;" id="eldmzpqd51ehe" class="animable"></rect><rect x="141.03" y="111.94" width="24.28" height="35.79" style="fill: rgb(245, 245, 245); transform-origin: 153.17px 129.835px 0px;" id="elep2vqmnfbm" class="animable"></rect><rect x="152" y="157.53" width="31.01" height="43.87" style="fill: rgb(235, 235, 235); transform-origin: 167.505px 179.465px 0px;" id="elyvgl9mpsy4" class="animable"></rect><rect x="154.02" y="159.6" width="26.96" height="39.75" style="fill: rgb(245, 245, 245); transform-origin: 167.5px 179.475px 0px;" id="eln6plppv02a" class="animable"></rect><g id="elsxz8g3rzyvh"><rect x="181.64" y="120.27" width="24.28" height="34.35" style="fill: rgb(235, 235, 235); transform-origin: 193.78px 137.445px 0px; transform: rotate(-90deg);" class="animable" id="el9ror9me9u5g"></rect></g><g id="elbf68113htcs"><rect x="183.22" y="121.89" width="21.11" height="31.12" style="fill: rgb(245, 245, 245); transform-origin: 193.775px 137.45px 0px; transform: rotate(-90deg);" class="animable" id="elg7sow6g75ev"></rect></g></g><g id="freepik--Shadow--inject-7" style="transform-origin: 250px 416.24px 0px;" class="animable"><ellipse id="freepik--path--inject-7" cx="250" cy="416.24" rx="193.89" ry="11.32" style="fill: rgb(245, 245, 245); transform-origin: 250px 416.24px 0px;" class="animable"></ellipse></g><g id="freepik--Letter--inject-7" style="transform-origin: 350.855px 208.72px 0px;" class="animable animator-active"><path d="M419,322H270.66a12.08,12.08,0,0,0,5.5-10.13V105.71a11.29,11.29,0,0,1,6.59-10.27h148.3a11.29,11.29,0,0,0-6.59,10.27V311.84A12.1,12.1,0,0,1,419,322Z" style="fill: #1E77F0; transform-origin: 350.855px 208.72px 0px;" id="el7ukoa5rtb3g" class="animable"></path><g id="elx7rduxx784"><path d="M419,322H270.66a12.08,12.08,0,0,0,5.5-10.13V105.71a11.29,11.29,0,0,1,6.59-10.27h148.3a11.29,11.29,0,0,0-6.59,10.27V311.84A12.1,12.1,0,0,1,419,322Z" style="fill: rgb(255, 255, 255); opacity: 0.7; isolation: isolate; transform-origin: 350.855px 208.72px 0px;" class="animable" id="el3mpgyamzgqt"></path></g><path d="M415,157.11c-1.95-1-7.79.09-9.31.27s-2.26.08-3.65.25-1.53,0-1.77-.52-2.69-.17-3.3-.4-6.09.93-11.95.92-1.94.1-2.78-.92-3.67.75-4.28.86-2.07.16-2.29-.9-1.73,1.14-3.21.88,1.72-2.53-.32-1.48-6.71,1.48-6.71,1.48l1.49,1.07c-5.61.09-10.49.17-11.46.26s-1.59.09-2.68-1.67-1,.45-5.12,1.5-5.12.78-7.07-.18-13.91.09-15.43.26-2.26.09-3.66.26-1.53,0-1.77-.52-2.68-.17-3.29-.4-6.1.93-12,.92-1.94.09-2.78-.92-3.67.75-4.28.86-2.07.15-2.28-.9-1.74,1.14-3.22.88,1.72-2.54-.31-1.49-6.72,1.49-6.72,1.49" style="fill: none; stroke: rgb(38, 50, 56); stroke-linecap: round; stroke-linejoin: round; transform-origin: 349.925px 157.589px 0px;" id="elmthhlimf0n9" class="animable"></path><path d="M321.12,116c-.61-.23-6.09.93-11.95.92s-1.94.1-2.78-.92-3.67.76-4.28.87-2.07.15-2.29-.9-1.73,1.14-3.22.88,1.73-2.54-.31-1.49-6.71,1.49-6.71,1.49" style="fill: none; stroke: rgb(38, 50, 56); stroke-linecap: round; stroke-linejoin: round; transform-origin: 305.35px 116.005px 0px;" id="elhz0fs4ly48o" class="animable"></path><path d="M415,270.42c-.61-.23-6.1.93-12,.92s-1.94.1-2.78-.92-3.67.76-4.28.87-2.07.15-2.28-.91-1.74,1.15-3.22.88,1.72-2.53-.31-1.48-6.72,1.48-6.72,1.48" style="fill: none; stroke: rgb(38, 50, 56); stroke-linecap: round; stroke-linejoin: round; transform-origin: 399.205px 270.424px 0px;" id="eltdlkf0w9sx" class="animable"></path><path d="M284.75,169.68a3.12,3.12,0,0,1,2.47,0l1-.71c.57.69,1.66.51,2.45.11a4.75,4.75,0,0,1,2.47-.88l-.18,1.14a12.47,12.47,0,0,0,3.39-.94.68.68,0,0,0,.29.91,1.85,1.85,0,0,0,1,.16c3.38-.11,6.76-.24,10.15-.37l1.79-.07a.42.42,0,0,1,.26.52,6.11,6.11,0,0,0,3.4-1.86,1.51,1.51,0,0,0,1.15,1.69,3.13,3.13,0,0,0,2.16-.4,2.7,2.7,0,0,1,.94-.36.72.72,0,0,1,.78.51c.62-.28,1.3.22,2,.39a4.16,4.16,0,0,0,1.27.07c4.57-.18,20.13-.37,24.7-.55l3.35.65s4.68-.44,6.72-1.49-1.17,1.23.31,1.49,3-1.94,3.22-.88,1.67,1,2.28.9,3.44-1.88,4.28-.87-3.09.91,2.78.92,11.35-1.15,12-.92,3-.11,3.3.41.37.68,1.77.51,2.13-.07,3.65-.25,2.5-1.22,4.45-.26,2.93,1.22,7.07.18,4-3.27,5.12-1.5,7.51,1.76,8.49,1.67" style="fill: none; stroke: rgb(38, 50, 56); stroke-linecap: round; stroke-linejoin: round; transform-origin: 349.89px 168.684px 0px;" id="elg04e18ob4pk" class="animable"></path><path d="M414.77,148.13c-.42,0,.41,0,0-.08-.66-.17.63-.66,0-.38-.06-.34-6.2-.53-6.54-.51a2.56,2.56,0,0,0-.94.35,3.07,3.07,0,0,1-2.16.4,1.52,1.52,0,0,1-1.15-1.69,6,6,0,0,1-3.39,1.86.43.43,0,0,0-.27-.51l-1.79.06c-3.38.13-6.76.26-10.14.37a1.8,1.8,0,0,1-1-.16.67.67,0,0,1-.28-.91,12.56,12.56,0,0,1-3.4.95l.18-1.15a4.72,4.72,0,0,0-2.46.88c-.8.4-1.89.58-2.45-.1l-1,.7a3.16,3.16,0,0,0-2.47,0l-9.9-1s-4.57.09-5.3-.32-3.29,1-3.29,1h-3.29l-4.21.16v-.8a33.37,33.37,0,0,1-4.93.64c-2.38.09-2.93.43-3-.64s-14.17.29-16.6.8-1.95.4-2.69-.8-1.64.16-2.92.66a5.22,5.22,0,0,1-4.21,0c-1.09-.68-5.85.41-7.79.43s-.07-.54-.47-1.48-1.79,1.59-3.1,1.48,1.12-2.51-.74-2.33-4.91,2-4.91,2" style="fill: none; stroke: rgb(38, 50, 56); stroke-linecap: round; stroke-linejoin: round; transform-origin: 356.554px 147.177px 0px;" id="el137mq2vn8w2l" class="animable"></path><path d="M406.54,179.45c-.73,0-1.71-.56-1.65-2.14-.5-.49-1,.38-1.51,1s-1.27.67-1.39-.5a1.46,1.46,0,0,1-2.29-.17,1.86,1.86,0,0,1-2.11,1.35l-19.4-.82a2.11,2.11,0,0,1-1.36-.39,4.39,4.39,0,0,0-.84-.69c-.79-.34-1.5,1-2.22,1.83s-1.9.65-2-1.11c-.83,1.59-2.08,2.05-3.1,1.14-.46.38-1,.77-1.43.59a2.33,2.33,0,0,1-.85-2.23c-.44,1.72-1.34,2.68-2.23,2.91a4.22,4.22,0,0,1-2.68-.5l-7.79.31a24,24,0,0,1-7.7-.63c.06.54-.75.74-1.35.76l-5.13.08a2.69,2.69,0,0,1-1.13-.14.73.73,0,0,1-.5-.83,129.52,129.52,0,0,1-14.21.06c-.6-.31-1.26.29-1.89.57a4.25,4.25,0,0,1-1.78.23l-8.85-.15a2.64,2.64,0,0,1-2.14-.68,10.08,10.08,0,0,0-3.5,2.21,3.48,3.48,0,0,0,0-1.92,8.41,8.41,0,0,0-2.53,1.44l-.33-3.58c-1.76.21-3,1.88-4.74,2-1,.1-2-.3-3-.07-.78.18-1.72.72-2.27.19-.16-.15-.23-.36-.43-.46a1,1,0,0,0-.8.08,11.7,11.7,0,0,1-7.05.31" style="fill: none; stroke: rgb(38, 50, 56); stroke-linecap: round; stroke-linejoin: round; transform-origin: 345.45px 179.273px 0px;" id="el3aac6v770kt" class="animable"></path><path d="M283.59,202s3.75-.44,5.38-1.49-.94,1.23.25,1.49,2.4-1.94,2.57-.88,1.34,1,1.83.9,2.76-1.88,3.43-.86-2.47.91,2.22.92,9.09-1.15,9.57-.92,2.44-.12,2.64.4.3.68,1.42.52,1.7-.08,2.92-.25,2-1.23,3.56-.27,2.35,1.23,5.66.18,14.21-3.26,15.09-1.5,1.36,1.76,2.14,1.67,4.69-.17,9.18-.26l8.1-.27a11.7,11.7,0,0,0,7.05-.31,1,1,0,0,1,.8-.08c.19.1.27.31.43.46.54.54,1.49,0,2.27-.19,1-.23,2,.18,3,.08,1.77-.18,3-1.85,4.74-2.06l.33,3.58a8.41,8.41,0,0,1,2.53-1.44,3.48,3.48,0,0,1,0,1.92,10.08,10.08,0,0,1,3.5-2.21c.42.6,1.34.67,2.13.69l8.85.14a4.27,4.27,0,0,0,1.79-.23c.63-.28,1.29-.88,1.89-.57a6.74,6.74,0,0,0,3.22-.06.75.75,0,0,0,.5.84,2.89,2.89,0,0,0,1.14.14l5.12-.09c.6,0,1.42-.22,1.36-.76,2.49.62,2.15.84,4.73.63" style="fill: none; stroke: rgb(38, 50, 56); stroke-linecap: round; stroke-linejoin: round; transform-origin: 349.26px 201.31px 0px;" id="elytfp9ga7put" class="animable"></path><path d="M415,190c-3.32,1.05-1.93.79-3.49-.17s-2.34.09-3.56.26-1.81.09-2.93.25-1.22,0-1.42-.51-2.14-.18-2.63-.41-4.88.93-9.57.92-1.56.1-2.23-.92-2.94.76-3.42.87-1.66.15-1.83-.9-1.39,1.14-2.58.88,1.38-2.54-.25-1.49-5.38,1.49-5.38,1.49l-9.28-.28-7,.07c-.73,0-1.71-.55-1.65-2.14-.5-.48-1,.39-1.51,1s-1.27.68-1.39-.49a1.47,1.47,0,0,1-2.29-.17,1.85,1.85,0,0,1-2.11,1.34c-6.47-.27-23.92-.54-30.38-.82a2.2,2.2,0,0,1-1.37-.38,5.23,5.23,0,0,0-.83-.7c-.8-.34-1.51,1-2.23,1.84s-1.89.65-2-1.12c-.83,1.6-2.07,2.06-3.09,1.15-.46.38-.95.77-1.44.59a2.31,2.31,0,0,1-.84-2.23c-.45,1.72-1.35,2.67-2.24,2.91a4.24,4.24,0,0,1-2.68-.5" style="fill: none; stroke: rgb(38, 50, 56); stroke-linecap: round; stroke-linejoin: round; transform-origin: 359.19px 189.265px 0px;" id="elfswxn6841qm" class="animable"></path><path d="M415,118l-19.4-.81a2.22,2.22,0,0,1-1.37-.39,4.67,4.67,0,0,0-.83-.69c-.8-.34-1.51,1-2.23,1.83s-1.89.65-2-1.12c-.83,1.6-2.07,2.06-3.09,1.15-.46.38-.95.77-1.43.59a2.29,2.29,0,0,1-.85-2.23c-.45,1.72-1.35,2.67-2.24,2.91a4.2,4.2,0,0,1-2.67-.5" style="fill: none; stroke: rgb(38, 50, 56); stroke-linecap: round; stroke-linejoin: round; transform-origin: 396.945px 117.67px 0px;" id="el27nz77shhux" class="animable"></path><path d="M415,279.71l-19.4-.81a2.15,2.15,0,0,1-1.37-.39,4.67,4.67,0,0,0-.83-.69c-.8-.34-1.51,1-2.23,1.83s-1.89.65-2-1.11c-.83,1.59-2.07,2-3.09,1.14-.46.38-.95.77-1.43.59a2.29,2.29,0,0,1-.85-2.23c-.45,1.72-1.35,2.67-2.24,2.91a4.2,4.2,0,0,1-2.67-.5" style="fill: none; stroke: rgb(38, 50, 56); stroke-linecap: round; stroke-linejoin: round; transform-origin: 396.945px 279.38px 0px;" id="el9eah4tavi1" class="animable"></path><path d="M283.59,222.52a17.9,17.9,0,0,0,8.76-.31,1.52,1.52,0,0,1,1-.08c.25.1.35.31.54.46.68.54,1.85,0,2.82-.19,1.2-.23,2.48.18,3.71.08,2.19-.18,3.7-1.85,5.89-2.06.13,1.2.27,2.39.4,3.58a11.44,11.44,0,0,1,3.14-1.44,2.82,2.82,0,0,1,.05,1.92,13.17,13.17,0,0,1,4.34-2.21c.52.6,1.67.67,2.65.69,3.66,0,18.31.09,22,.14a6.48,6.48,0,0,0,2.22-.23c.78-.28,1.6-.88,2.35-.57a10.35,10.35,0,0,0,4-.06c-.14.33.19.69.62.84a4.33,4.33,0,0,0,1.4.14l6.36-.09c.75,0,1.77-.22,1.69-.76A36.81,36.81,0,0,0,367,223l7.84.42a6.13,6.13,0,0,1,3.5,0l1.41-.71c.8.69,2.35.51,3.48.11a8.61,8.61,0,0,1,3.49-.88c-.08.38-.17.76-.25,1.14a23.68,23.68,0,0,0,4.81-.94c-.29.29,0,.73.41.91a3.66,3.66,0,0,0,1.45.16q7.2-.17,14.4-.37l2.54-.07c.29.06.47.31.38.52a8.79,8.79,0,0,0,4.45-1.86c-.27.74-1,1.5,0,1.69" style="fill: none; stroke: rgb(38, 50, 56); stroke-linecap: round; stroke-linejoin: round; transform-origin: 349.25px 222.45px 0px;" id="elyiv6eot5s7" class="animable"></path><path d="M414.72,211.56c-.75-.32.78.28,0,.56s.76.24,0,.23l-12.26-.14c-1,0-2.13-.09-2.65-.69a13.17,13.17,0,0,0-4.34,2.21,2.85,2.85,0,0,0,0-1.91,11.06,11.06,0,0,0-3.15,1.44c-.13-1.2-.26-2.39-.4-3.58-2.19.2-3.69,1.87-5.89,2-1.23.1-2.5-.3-3.71-.08-1,.19-2.14.73-2.82.2-.19-.15-.29-.37-.53-.47a1.62,1.62,0,0,0-1,.08,17.9,17.9,0,0,1-8.76.32l-3.22.28-19.46.56a9,9,0,0,1-1.8-.08c-.94-.17-1.9-.66-2.79-.38-.08-.34-.62-.54-1.1-.51a4.58,4.58,0,0,0-1.33.35c-1,.35-13,.59-14.05.4s-1.9-1-1.63-1.69a10,10,0,0,1-4.82,1.86c.09-.21-.09-.45-.38-.52l-2.54.07q-7.2.19-14.39.37a3.69,3.69,0,0,1-1.46-.16c-.43-.18-.7-.62-.4-.91a23.91,23.91,0,0,1-4.82.94c.09-.38.17-.76.25-1.14a8.61,8.61,0,0,0-3.49.88c-1.13.4-2.67.58-3.48-.11l-1.4.71a6.17,6.17,0,0,0-3.51,0" style="fill: none; stroke: rgb(38, 50, 56); stroke-linecap: round; stroke-linejoin: round; transform-origin: 349.169px 211.705px 0px;" id="eleja60xpyc0v" class="animable"></path><path d="M283.36,233.81a9,9,0,0,0,2.78.25,3.05,3.05,0,0,0,2.33-1.45,1,1,0,0,0,.88,1.11,2.82,2.82,0,0,0,1.49-.3,3.05,3.05,0,0,0,3.22-.56c.12.87,1.34,1,2.09.55s1.49-1.08,2.32-.91a5.75,5.75,0,0,1,.86.35,4.24,4.24,0,0,0,1.42.19l20.17.4a2.59,2.59,0,0,0,2.2-.66,2.7,2.7,0,0,0,2.37.08c.14.58,11.94.54,12.44.25s1.05-.73,1.57-.49c-.06.79,1,1.06,1.71,1.06l7.25,0,2.58-.12a6.22,6.22,0,0,1,3.5,0l1.41-.7c.8.68,2.35.5,3.48.1a8.61,8.61,0,0,1,3.49-.88c-.08.38-.17.76-.25,1.14a23,23,0,0,0,4.81-.94c-.29.29,0,.73.41.91a3.49,3.49,0,0,0,1.45.16q7.2-.17,14.4-.37l2.54-.06c.29.06.47.3.38.51a10,10,0,0,0,4.81-1.86c-.26.74.61,1.5,1.64,1.69a5.93,5.93,0,0,0,3.06-.4,4.64,4.64,0,0,1,1.34-.35c.47,0,1,.17,1.1.51.89-.28,1.85.21,2.79.38a8.27,8.27,0,0,0,1.8.08" style="fill: none; stroke: rgb(38, 50, 56); stroke-linecap: round; stroke-linejoin: round; transform-origin: 343.28px 232.825px 0px;" id="elbgcn6qe2plw" class="animable"></path></g><g id="freepik--trash-bin--inject-7" style="transform-origin: 373.24px 387.895px 0px;" class="animable"><path d="M390.53,390.89a3,3,0,0,0-2.39-4.28,6.36,6.36,0,0,0-2-7,1.47,1.47,0,0,0-.87-.39,1.7,1.7,0,0,0-.95.42l-5.57,4a3.34,3.34,0,0,0-1.11,1.1c-1.14,2.2,3,5,1.28,6.85-.48.53-1.26.64-1.87,1-1.33.83-1.49,2.65-2.1,4.09s-2.78,2.55-3.6,1.22c.61-1.37-1.24-2.56-2.73-2.74s-3.06-.25-3.89-1.66c-2.13,1.86-6.88-3.32-6.77-5.41-1.75.13-2.94,1.77-3.32,3.4a24.48,24.48,0,0,0-.18,5.21c-.05,3.38-1.14,6.69-1.08,10.07,0,2.63,1.06,5.55,3.47,6.61a9.05,9.05,0,0,0,3.74.5l27.42-.17a4.32,4.32,0,0,0,1.93-.32c1.24-.65,1.5-2.27,1.62-3.66L393,391.9Z" style="fill: #1E77F0; transform-origin: 373.189px 396.563px 0px;" id="el8papdysha9p" class="animable"></path><g id="el7l39irsqfkr"><path d="M390.53,390.89a3,3,0,0,0-2.39-4.28,6.36,6.36,0,0,0-2-7,1.47,1.47,0,0,0-.87-.39,1.7,1.7,0,0,0-.95.42l-5.57,4a3.34,3.34,0,0,0-1.11,1.1c-1.14,2.2,3,5,1.28,6.85-.48.53-1.26.64-1.87,1-1.33.83-1.49,2.65-2.1,4.09s-2.78,2.55-3.6,1.22c.61-1.37-1.24-2.56-2.73-2.74s-3.06-.25-3.89-1.66c-2.13,1.86-6.88-3.32-6.77-5.41-1.75.13-2.94,1.77-3.32,3.4a24.48,24.48,0,0,0-.18,5.21c-.05,3.38-1.14,6.69-1.08,10.07,0,2.63,1.06,5.55,3.47,6.61a9.05,9.05,0,0,0,3.74.5l27.42-.17a4.32,4.32,0,0,0,1.93-.32c1.24-.65,1.5-2.27,1.62-3.66L393,391.9Z" style="fill: rgb(255, 255, 255); opacity: 0.3; isolation: isolate; transform-origin: 373.189px 396.563px 0px;" class="animable" id="elhegea0onyw"></path></g><path d="M392.13,361.89H349.57l.35,4.3.25,3.07.65,8,.37,4.59.49,6.11.21,2.62.07.78.25,3.08.34,4.22.21,2.62.22,2.66.25,3.08.19,2.33.21,2.62.09,1.14h39.06l.09-1.14.21-2.61.19-2.35.25-3.08.22-2.65.21-2.62.34-4.23.25-3.07.06-.78.21-2.62.5-6.11.37-4.58.64-8,.25-3.07.35-4.3Zm2.56,2.82h0l-.82-.82h.89Zm-.21,2.61-.08,1-3.81,3.81-4.37-4.37,3.91-3.91h.92Zm-1.1,13.62-2.79,2.79-4.37-4.37,4.37-4.36,3,3ZM352.88,378h0l3-3,4.37,4.36-4.37,4.37-2.78-2.79Zm36.3-4.44L384.81,378l-4.37-4.37,4.37-4.37Zm-6.87-9.69h5l-2.5,2.5Zm1.08,15.47L379,383.73l-4.37-4.37L379,375Zm-14.51,5.78,4.37-4.36,4.36,4.36-4.36,4.37Zm2.95,5.78-4.37,4.37-4.36-4.36,4.37-4.37Zm7.2-4.36,4.36,4.37L379,395.29l-4.37-4.37ZM373.25,378l-4.37-4.37,4.37-4.37,4.36,4.37Zm-1.42,1.41-4.36,4.37-4.37-4.37,4.37-4.36ZM361.68,378l-4.36-4.37,4.36-4.37,4.37,4.37Zm0,2.83,4.37,4.36-4.37,4.37-4.36-4.37Zm4.37,15.93-4.37,4.36-4.36-4.36,4.36-4.37Zm1.41,1.41,4.37,4.37-4.36,4.37-4.37-4.37Zm1.42-1.41,4.37-4.37,4.36,4.37-4.36,4.36ZM379,398.12l4.36,4.37L379,406.86l-4.37-4.37Zm5.78,5.78,4.37,4.37-2.83,2.83h-3.08l-2.83-2.83Zm-4.37-7.19,4.37-4.37,4.37,4.37-4.37,4.36Zm0-11.57,4.37-4.36,4.37,4.36-4.37,4.37Zm2.95-17.34L379,372.17l-4.37-4.37,3.91-3.91h.92Zm-10.14-1.41-2.5-2.5h5Zm-1.42,1.41-4.36,4.37-4.37-4.37,3.91-3.91h.92Zm-7.65-3.91-2.5,2.5-2.49-2.5Zm-7.82,0,3.91,3.91-4.37,4.37-3.8-3.81-.08-1,3.42-3.43Zm-3.74,0-.81.81h0l-.07-.81Zm-.27,7.55,2.14,2.14-1.82,1.82Zm1.19,14.65-.17-2.07h0l1.12,1.12-.95.95Zm.21,2.63,2.15-2.16,4.37,4.37-4.37,4.36-1.76-1.76Zm.65,8.08v-.19l.1.1-.09.09Zm.76,9.31-.55-6.7,1.29-1.29,4.37,4.37-4.37,4.36-.74-.74Zm.4,5-.08-1,.42-.42,1.42,1.42Zm1.76-2.83,4.36-4.37,4.37,4.37-2.83,2.83h-3.08Zm8.73,2.83,1.42-1.42,1.42,1.42Zm5.66,0-2.83-2.83,4.37-4.37,4.36,4.37-2.82,2.83Zm5.9,0,1.42-1.42,1.42,1.42Zm13.32,0h-1.76l1.42-1.42.42.42Zm.41-5-.75.74-4.37-4.36,4.37-4.37,1.29,1.29Zm.77-9.51,0,.2-.09-.09.11-.11Zm.25-3.07-1.77,1.76-4.37-4.36,4.37-4.37,2.16,2.16Zm.6-7.43-1-1,1.13-1.12Zm1.19-14.67-.32,4L392,373.58l2.15-2.15Z" style="fill: #1E77F0; transform-origin: 373.245px 387.5px 0px;" id="eldi8as06dgr8" class="animable"></path><g id="elpyqf36gce1k"><g style="opacity: 0.6; isolation: isolate; transform-origin: 373.245px 387.5px 0px;" class="animable" id="eluk1lep8i8a"><path d="M392.13,361.89H349.57l.35,4.3.25,3.07.65,8,.37,4.59.49,6.11.21,2.62.07.78.25,3.08.34,4.22.21,2.62.22,2.66.25,3.08.19,2.33.21,2.62.09,1.14h39.06l.09-1.14.21-2.61.19-2.35.25-3.08.22-2.65.21-2.62.34-4.23.25-3.07.06-.78.21-2.62.5-6.11.37-4.58.64-8,.25-3.07.35-4.3Zm2.56,2.82h0l-.82-.82h.89Zm-.21,2.61-.08,1-3.81,3.81-4.37-4.37,3.91-3.91h.92Zm-1.1,13.62-2.79,2.79-4.37-4.37,4.37-4.36,3,3ZM352.88,378h0l3-3,4.37,4.36-4.37,4.37-2.78-2.79Zm36.3-4.44L384.81,378l-4.37-4.37,4.37-4.37Zm-6.87-9.69h5l-2.5,2.5Zm1.08,15.47L379,383.73l-4.37-4.37L379,375Zm-14.51,5.78,4.37-4.36,4.36,4.36-4.36,4.37Zm2.95,5.78-4.37,4.37-4.36-4.36,4.37-4.37Zm7.2-4.36,4.36,4.37L379,395.29l-4.37-4.37ZM373.25,378l-4.37-4.37,4.37-4.37,4.36,4.37Zm-1.42,1.41-4.36,4.37-4.37-4.37,4.37-4.36ZM361.68,378l-4.36-4.37,4.36-4.37,4.37,4.37Zm0,2.83,4.37,4.36-4.37,4.37-4.36-4.37Zm4.37,15.93-4.37,4.36-4.36-4.36,4.36-4.37Zm1.41,1.41,4.37,4.37-4.36,4.37-4.37-4.37Zm1.42-1.41,4.37-4.37,4.36,4.37-4.36,4.36ZM379,398.12l4.36,4.37L379,406.86l-4.37-4.37Zm5.78,5.78,4.37,4.37-2.83,2.83h-3.08l-2.83-2.83Zm-4.37-7.19,4.37-4.37,4.37,4.37-4.37,4.36Zm0-11.57,4.37-4.36,4.37,4.36-4.37,4.37Zm2.95-17.34L379,372.17l-4.37-4.37,3.91-3.91h.92Zm-10.14-1.41-2.5-2.5h5Zm-1.42,1.41-4.36,4.37-4.37-4.37,3.91-3.91h.92Zm-7.65-3.91-2.5,2.5-2.49-2.5Zm-7.82,0,3.91,3.91-4.37,4.37-3.8-3.81-.08-1,3.42-3.43Zm-3.74,0-.81.81h0l-.07-.81Zm-.27,7.55,2.14,2.14-1.82,1.82Zm1.19,14.65-.17-2.07h0l1.12,1.12-.95.95Zm.21,2.63,2.15-2.16,4.37,4.37-4.37,4.36-1.76-1.76Zm.65,8.08v-.19l.1.1-.09.09Zm.76,9.31-.55-6.7,1.29-1.29,4.37,4.37-4.37,4.36-.74-.74Zm.4,5-.08-1,.42-.42,1.42,1.42Zm1.76-2.83,4.36-4.37,4.37,4.37-2.83,2.83h-3.08Zm8.73,2.83,1.42-1.42,1.42,1.42Zm5.66,0-2.83-2.83,4.37-4.37,4.36,4.37-2.82,2.83Zm5.9,0,1.42-1.42,1.42,1.42Zm13.32,0h-1.76l1.42-1.42.42.42Zm.41-5-.75.74-4.37-4.36,4.37-4.37,1.29,1.29Zm.77-9.51,0,.2-.09-.09.11-.11Zm.25-3.07-1.77,1.76-4.37-4.36,4.37-4.37,2.16,2.16Zm.6-7.43-1-1,1.13-1.12Zm1.19-14.67-.32,4L392,373.58l2.15-2.15Z" style="fill: rgb(255, 255, 255); transform-origin: 373.245px 387.5px 0px;" id="elkn60oiwmn1o" class="animable"></path></g></g><g id="elnc4f99o3c1"><rect x="346.84" y="360.11" width="52.8" height="5.57" rx="1.64" style="fill: #1E77F0; transform-origin: 373.24px 362.895px 0px; transform: rotate(180deg);" class="animable" id="el97wnvghz9cc"></rect></g><rect x="350.65" y="410.11" width="45.19" height="5.57" rx="1.64" style="fill: #1E77F0; transform-origin: 373.245px 412.895px 0px;" id="elpnn640wx32s" class="animable"></rect></g><g id="freepik--paper-plane--inject-7" style="transform-origin: 173.32px 184.085px 0px;" class="animable"><polygon points="123.01 129.67 116.05 131.15 109.23 139.89 104.11 131.69 95.23 131.34 78.76 110.14 123.01 129.67" style="fill: #1E77F0; transform-origin: 100.885px 125.015px 0px;" id="elxpwc860jksq" class="animable"></polygon><g id="el4qw7oldykg2"><polygon points="123.01 129.67 116.05 131.15 109.23 139.89 104.11 131.69 95.23 131.34 78.76 110.14 123.01 129.67" style="fill: rgb(255, 255, 255); opacity: 0.4; isolation: isolate; transform-origin: 100.885px 125.015px 0px;" class="animable" id="elp3m6d2f6xn"></polygon></g><g id="eli9pbax1tqqd"><polygon points="109.23 139.89 110.16 131.91 104.11 131.69 109.23 139.89" style="opacity: 0.2; isolation: isolate; transform-origin: 107.135px 135.79px 0px;" class="animable" id="elzha0d4ln8kl"></polygon></g><g id="elyrv2tyidk2"><polygon points="116.05 131.15 78.76 110.14 110.16 131.91 95.23 131.34 78.76 110.14 123.01 129.67 116.05 131.15" style="fill: rgb(255, 255, 255); opacity: 0.4; isolation: isolate; transform-origin: 100.885px 121.025px 0px;" class="animable" id="elpm26uq9umg"></polygon></g><path d="M200.71,258a.5.5,0,0,1,0-1,31,31,0,0,0,4.85-.89.5.5,0,1,1,.25,1,31.2,31.2,0,0,1-5,.92Zm9.68-2.49a.51.51,0,0,1-.2-1,29,29,0,0,0,4.38-2.24.5.5,0,1,1,.53.85,31,31,0,0,1-4.52,2.32A.65.65,0,0,1,210.39,255.48Zm8.41-5.32a.48.48,0,0,1-.36-.16.49.49,0,0,1,0-.7,22.24,22.24,0,0,0,3.17-3.71.5.5,0,0,1,.83.56,23,23,0,0,1-3.32,3.88A.48.48,0,0,1,218.8,250.16Zm5.55-8.2a.39.39,0,0,1-.18,0,.49.49,0,0,1-.29-.64,23.57,23.57,0,0,0,.78-2.42c-.84.14-1.67.28-2.49.39a.49.49,0,0,1-.56-.42.5.5,0,0,1,.42-.57c.95-.13,1.91-.29,2.89-.47.09-.4.17-.81.23-1.23a.51.51,0,0,1,.58-.41.51.51,0,0,1,.41.58c0,.29-.1.58-.16.86l.94-.18a.48.48,0,0,1,.59.38.49.49,0,0,1-.38.59l-1.39.28a24,24,0,0,1-.93,3A.48.48,0,0,1,224.35,242Zm-11-2.07h-1.25a.51.51,0,0,1-.49-.51.47.47,0,0,1,.51-.49c1.59,0,3.28,0,5-.11a.5.5,0,0,1,.06,1C215.89,239.85,214.61,239.89,213.37,239.89Zm-6.22-.38h-.06a38.71,38.71,0,0,1-5-1,.5.5,0,0,1,.25-1,37.37,37.37,0,0,0,4.84.94.51.51,0,0,1,.44.56A.51.51,0,0,1,207.15,239.51Zm24.74-2.28a.51.51,0,0,1-.49-.37.5.5,0,0,1,.36-.61c1.55-.42,3.15-.9,4.76-1.42a.5.5,0,0,1,.63.32.49.49,0,0,1-.32.63c-1.62.53-3.24,1-4.81,1.43Zm-34.35-.34a.52.52,0,0,1-.21,0,22,22,0,0,1-4.38-2.62.5.5,0,0,1,.61-.79,21.3,21.3,0,0,0,4.19,2.5.5.5,0,0,1-.21.95Zm43.86-2.74a.5.5,0,0,1-.18-1c1.51-.57,3.07-1.2,4.62-1.86a.49.49,0,0,1,.65.27.5.5,0,0,1-.26.65c-1.57.67-3.13,1.3-4.66,1.88Zm-15.43-2a.51.51,0,0,1-.5-.49,24.1,24.1,0,0,0-.67-4.84.5.5,0,0,1,.37-.6.51.51,0,0,1,.61.36,25.36,25.36,0,0,1,.69,5.05.5.5,0,0,1-.48.52Zm-36.12-1.46a.52.52,0,0,1-.42-.22,11.54,11.54,0,0,1-1.83-4.85.51.51,0,0,1,.43-.56.5.5,0,0,1,.56.44,10.49,10.49,0,0,0,1.68,4.42.5.5,0,0,1-.15.69A.45.45,0,0,1,189.85,230.71Zm60.74-.48a.5.5,0,0,1-.21-.95l.8-.38c1.26-.6,2.46-1.25,3.57-1.92a.5.5,0,1,1,.52.85c-1.14.69-2.37,1.36-3.65,2l-.81.39A.54.54,0,0,1,250.59,230.23Zm8.5-5.21a.5.5,0,0,1-.32-.88,25.22,25.22,0,0,0,3.47-3.46.5.5,0,0,1,.78.64,26.64,26.64,0,0,1-3.61,3.59A.46.46,0,0,1,259.09,225Zm-35.45-2.51a.5.5,0,0,1-.46-.29,24.55,24.55,0,0,0-2.5-4.19.5.5,0,0,1,.8-.6,24.63,24.63,0,0,1,2.61,4.37.5.5,0,0,1-.24.67A.52.52,0,0,1,223.64,222.51Zm-35-1.35a.45.45,0,0,1-.16,0,.51.51,0,0,1-.31-.64,14.62,14.62,0,0,1,2.59-4.45.5.5,0,0,1,.7-.07.5.5,0,0,1,.07.71,13.83,13.83,0,0,0-2.42,4.15A.5.5,0,0,1,188.65,221.16Zm76.7-3.84a.42.42,0,0,1-.22,0,.5.5,0,0,1-.23-.67,19.34,19.34,0,0,0,1.58-4.59.49.49,0,0,1,.59-.39.5.5,0,0,1,.39.59A19.87,19.87,0,0,1,265.8,217,.5.5,0,0,1,265.35,217.32Zm-47.66-2.76a.5.5,0,0,1-.33-.13,20.41,20.41,0,0,0-4-2.75.51.51,0,0,1-.21-.68.5.5,0,0,1,.67-.21,21.44,21.44,0,0,1,4.21,2.89.51.51,0,0,1,0,.71A.52.52,0,0,1,217.69,214.56Zm-22.91-1.13a.51.51,0,0,1-.4-.2.5.5,0,0,1,.1-.7A20.38,20.38,0,0,1,198.9,210a.5.5,0,0,1,.66.27.51.51,0,0,1-.27.65,18.88,18.88,0,0,0-4.21,2.43A.49.49,0,0,1,194.78,213.43ZM208.9,210h-.11a16.63,16.63,0,0,0-4.82-.29.5.5,0,0,1-.09-1,17,17,0,0,1,5.12.31.49.49,0,0,1-.1,1Zm58.45-2.39a.5.5,0,0,1-.5-.48,22.92,22.92,0,0,0-.74-4.82.5.5,0,0,1,1-.25,24.16,24.16,0,0,1,.77,5,.5.5,0,0,1-.48.52ZM264.93,198a.51.51,0,0,1-.46-.29,36.75,36.75,0,0,0-2.33-4.34.5.5,0,0,1,.16-.69.49.49,0,0,1,.69.16,37.27,37.27,0,0,1,2.39,4.46.5.5,0,0,1-.25.66A.45.45,0,0,1,264.93,198Zm-5.24-8.48a.53.53,0,0,1-.4-.19c-1-1.25-2.07-2.51-3.24-3.75a.49.49,0,0,1,0-.7.5.5,0,0,1,.71,0c1.19,1.25,2.3,2.54,3.3,3.81a.5.5,0,0,1-.08.7A.53.53,0,0,1,259.69,189.53Zm-6.84-7.28a.52.52,0,0,1-.34-.12c-1.19-1.09-2.47-2.17-3.79-3.22a.5.5,0,0,1,.62-.78c1.34,1.06,2.63,2.16,3.84,3.25a.5.5,0,0,1-.33.87ZM245,176a.51.51,0,0,1-.28-.09c-1.33-.93-2.73-1.86-4.15-2.75a.5.5,0,0,1-.15-.69.49.49,0,0,1,.68-.15c1.44.89,2.85,1.83,4.19,2.77a.5.5,0,0,1,.12.7A.48.48,0,0,1,245,176Zm-8.46-5.31a.54.54,0,0,1-.25-.06c-1.41-.8-2.89-1.59-4.39-2.34a.49.49,0,0,1-.22-.67.5.5,0,0,1,.67-.23c1.51.77,3,1.56,4.43,2.36a.51.51,0,0,1,.19.69A.5.5,0,0,1,236.56,170.72Zm-8.92-4.51a.52.52,0,0,1-.21,0c-1.49-.68-3-1.35-4.57-2a.5.5,0,1,1,.37-.92c1.56.63,3.11,1.3,4.61,2a.5.5,0,0,1-.2,1Zm-9.26-3.79-.17,0c-1.53-.56-3.12-1.11-4.71-1.63a.51.51,0,0,1-.32-.63.5.5,0,0,1,.64-.32c1.6.52,3.19,1.08,4.73,1.64a.51.51,0,0,1,.3.65A.49.49,0,0,1,218.38,162.42Zm-9.5-3.12-.14,0c-1.58-.46-3.19-.91-4.8-1.32a.5.5,0,1,1,.25-1c1.62.42,3.24.87,4.83,1.33a.5.5,0,0,1,.34.62A.49.49,0,0,1,208.88,159.3Zm-9.67-2.5-.12,0c-1.61-.36-3.25-.71-4.87-1a.5.5,0,0,1-.4-.58.51.51,0,0,1,.59-.4c1.64.32,3.29.67,4.9,1a.5.5,0,0,1-.1,1Zm-9.82-1.93h-.08c-1.56-.26-3.13-.51-4.73-.73l-.2,0a.5.5,0,0,1,.14-1l.2,0c1.6.22,3.19.47,4.76.73a.5.5,0,0,1,.41.57A.5.5,0,0,1,189.39,154.87Zm-9.88-1.48h-.08c-1.68-.25-3.33-.52-4.94-.79a.5.5,0,0,1,.16-1c1.61.27,3.25.54,4.93.8a.5.5,0,0,1-.07,1Zm-9.87-1.66h-.09c-1.68-.31-3.32-.62-4.92-.94a.5.5,0,0,1-.39-.59.49.49,0,0,1,.59-.39c1.59.32,3.23.63,4.9.93a.5.5,0,0,1-.09,1Zm-9.8-1.94h-.11c-1.68-.36-3.31-.72-4.89-1.09a.5.5,0,0,1-.37-.6.49.49,0,0,1,.6-.37c1.57.36,3.2.72,4.87,1.08a.5.5,0,0,1,.38.6A.49.49,0,0,1,159.84,149.79Zm-9.74-2.26H150c-1.67-.42-3.29-.84-4.84-1.26a.5.5,0,1,1,.26-1q2.33.63,4.83,1.26a.5.5,0,0,1-.12,1Zm-9.66-2.61-.14,0q-2.52-.74-4.79-1.46a.51.51,0,0,1-.33-.63.5.5,0,0,1,.63-.32c1.51.47,3.1,1,4.77,1.45a.5.5,0,0,1-.14,1Zm-9.53-3a.45.45,0,0,1-.16,0c-1.61-.55-3.2-1.12-4.72-1.7a.5.5,0,1,1,.35-.93c1.52.57,3.1,1.13,4.69,1.68a.5.5,0,0,1,.31.64A.49.49,0,0,1,130.91,141.9Zm-9.35-3.53a.48.48,0,0,1-.2,0c-1.65-.69-3.2-1.37-4.59-2a.5.5,0,1,1,.43-.9c1.37.65,2.9,1.32,4.55,2a.5.5,0,0,1-.19,1Z" style="fill: #1E77F0; transform-origin: 192.157px 196.712px 0px;" id="el24ftd6iih5m" class="animable"></path><g id="eld92zujcywug"><g style="opacity: 0.7; isolation: isolate; transform-origin: 192.157px 196.712px 0px;" class="animable" id="el4ybddcjjsp3"><path d="M200.71,258a.5.5,0,0,1,0-1,31,31,0,0,0,4.85-.89.5.5,0,1,1,.25,1,31.2,31.2,0,0,1-5,.92Zm9.68-2.49a.51.51,0,0,1-.2-1,29,29,0,0,0,4.38-2.24.5.5,0,1,1,.53.85,31,31,0,0,1-4.52,2.32A.65.65,0,0,1,210.39,255.48Zm8.41-5.32a.48.48,0,0,1-.36-.16.49.49,0,0,1,0-.7,22.24,22.24,0,0,0,3.17-3.71.5.5,0,0,1,.83.56,23,23,0,0,1-3.32,3.88A.48.48,0,0,1,218.8,250.16Zm5.55-8.2a.39.39,0,0,1-.18,0,.49.49,0,0,1-.29-.64,23.57,23.57,0,0,0,.78-2.42c-.84.14-1.67.28-2.49.39a.49.49,0,0,1-.56-.42.5.5,0,0,1,.42-.57c.95-.13,1.91-.29,2.89-.47.09-.4.17-.81.23-1.23a.51.51,0,0,1,.58-.41.51.51,0,0,1,.41.58c0,.29-.1.58-.16.86l.94-.18a.48.48,0,0,1,.59.38.49.49,0,0,1-.38.59l-1.39.28a24,24,0,0,1-.93,3A.48.48,0,0,1,224.35,242Zm-11-2.07h-1.25a.51.51,0,0,1-.49-.51.47.47,0,0,1,.51-.49c1.59,0,3.28,0,5-.11a.5.5,0,0,1,.06,1C215.89,239.85,214.61,239.89,213.37,239.89Zm-6.22-.38h-.06a38.71,38.71,0,0,1-5-1,.5.5,0,0,1,.25-1,37.37,37.37,0,0,0,4.84.94.51.51,0,0,1,.44.56A.51.51,0,0,1,207.15,239.51Zm24.74-2.28a.51.51,0,0,1-.49-.37.5.5,0,0,1,.36-.61c1.55-.42,3.15-.9,4.76-1.42a.5.5,0,0,1,.63.32.49.49,0,0,1-.32.63c-1.62.53-3.24,1-4.81,1.43Zm-34.35-.34a.52.52,0,0,1-.21,0,22,22,0,0,1-4.38-2.62.5.5,0,0,1,.61-.79,21.3,21.3,0,0,0,4.19,2.5.5.5,0,0,1-.21.95Zm43.86-2.74a.5.5,0,0,1-.18-1c1.51-.57,3.07-1.2,4.62-1.86a.49.49,0,0,1,.65.27.5.5,0,0,1-.26.65c-1.57.67-3.13,1.3-4.66,1.88Zm-15.43-2a.51.51,0,0,1-.5-.49,24.1,24.1,0,0,0-.67-4.84.5.5,0,0,1,.37-.6.51.51,0,0,1,.61.36,25.36,25.36,0,0,1,.69,5.05.5.5,0,0,1-.48.52Zm-36.12-1.46a.52.52,0,0,1-.42-.22,11.54,11.54,0,0,1-1.83-4.85.51.51,0,0,1,.43-.56.5.5,0,0,1,.56.44,10.49,10.49,0,0,0,1.68,4.42.5.5,0,0,1-.15.69A.45.45,0,0,1,189.85,230.71Zm60.74-.48a.5.5,0,0,1-.21-.95l.8-.38c1.26-.6,2.46-1.25,3.57-1.92a.5.5,0,1,1,.52.85c-1.14.69-2.37,1.36-3.65,2l-.81.39A.54.54,0,0,1,250.59,230.23Zm8.5-5.21a.5.5,0,0,1-.32-.88,25.22,25.22,0,0,0,3.47-3.46.5.5,0,0,1,.78.64,26.64,26.64,0,0,1-3.61,3.59A.46.46,0,0,1,259.09,225Zm-35.45-2.51a.5.5,0,0,1-.46-.29,24.55,24.55,0,0,0-2.5-4.19.5.5,0,0,1,.8-.6,24.63,24.63,0,0,1,2.61,4.37.5.5,0,0,1-.24.67A.52.52,0,0,1,223.64,222.51Zm-35-1.35a.45.45,0,0,1-.16,0,.51.51,0,0,1-.31-.64,14.62,14.62,0,0,1,2.59-4.45.5.5,0,0,1,.7-.07.5.5,0,0,1,.07.71,13.83,13.83,0,0,0-2.42,4.15A.5.5,0,0,1,188.65,221.16Zm76.7-3.84a.42.42,0,0,1-.22,0,.5.5,0,0,1-.23-.67,19.34,19.34,0,0,0,1.58-4.59.49.49,0,0,1,.59-.39.5.5,0,0,1,.39.59A19.87,19.87,0,0,1,265.8,217,.5.5,0,0,1,265.35,217.32Zm-47.66-2.76a.5.5,0,0,1-.33-.13,20.41,20.41,0,0,0-4-2.75.51.51,0,0,1-.21-.68.5.5,0,0,1,.67-.21,21.44,21.44,0,0,1,4.21,2.89.51.51,0,0,1,0,.71A.52.52,0,0,1,217.69,214.56Zm-22.91-1.13a.51.51,0,0,1-.4-.2.5.5,0,0,1,.1-.7A20.38,20.38,0,0,1,198.9,210a.5.5,0,0,1,.66.27.51.51,0,0,1-.27.65,18.88,18.88,0,0,0-4.21,2.43A.49.49,0,0,1,194.78,213.43ZM208.9,210h-.11a16.63,16.63,0,0,0-4.82-.29.5.5,0,0,1-.09-1,17,17,0,0,1,5.12.31.49.49,0,0,1-.1,1Zm58.45-2.39a.5.5,0,0,1-.5-.48,22.92,22.92,0,0,0-.74-4.82.5.5,0,0,1,1-.25,24.16,24.16,0,0,1,.77,5,.5.5,0,0,1-.48.52ZM264.93,198a.51.51,0,0,1-.46-.29,36.75,36.75,0,0,0-2.33-4.34.5.5,0,0,1,.16-.69.49.49,0,0,1,.69.16,37.27,37.27,0,0,1,2.39,4.46.5.5,0,0,1-.25.66A.45.45,0,0,1,264.93,198Zm-5.24-8.48a.53.53,0,0,1-.4-.19c-1-1.25-2.07-2.51-3.24-3.75a.49.49,0,0,1,0-.7.5.5,0,0,1,.71,0c1.19,1.25,2.3,2.54,3.3,3.81a.5.5,0,0,1-.08.7A.53.53,0,0,1,259.69,189.53Zm-6.84-7.28a.52.52,0,0,1-.34-.12c-1.19-1.09-2.47-2.17-3.79-3.22a.5.5,0,0,1,.62-.78c1.34,1.06,2.63,2.16,3.84,3.25a.5.5,0,0,1-.33.87ZM245,176a.51.51,0,0,1-.28-.09c-1.33-.93-2.73-1.86-4.15-2.75a.5.5,0,0,1-.15-.69.49.49,0,0,1,.68-.15c1.44.89,2.85,1.83,4.19,2.77a.5.5,0,0,1,.12.7A.48.48,0,0,1,245,176Zm-8.46-5.31a.54.54,0,0,1-.25-.06c-1.41-.8-2.89-1.59-4.39-2.34a.49.49,0,0,1-.22-.67.5.5,0,0,1,.67-.23c1.51.77,3,1.56,4.43,2.36a.51.51,0,0,1,.19.69A.5.5,0,0,1,236.56,170.72Zm-8.92-4.51a.52.52,0,0,1-.21,0c-1.49-.68-3-1.35-4.57-2a.5.5,0,1,1,.37-.92c1.56.63,3.11,1.3,4.61,2a.5.5,0,0,1-.2,1Zm-9.26-3.79-.17,0c-1.53-.56-3.12-1.11-4.71-1.63a.51.51,0,0,1-.32-.63.5.5,0,0,1,.64-.32c1.6.52,3.19,1.08,4.73,1.64a.51.51,0,0,1,.3.65A.49.49,0,0,1,218.38,162.42Zm-9.5-3.12-.14,0c-1.58-.46-3.19-.91-4.8-1.32a.5.5,0,1,1,.25-1c1.62.42,3.24.87,4.83,1.33a.5.5,0,0,1,.34.62A.49.49,0,0,1,208.88,159.3Zm-9.67-2.5-.12,0c-1.61-.36-3.25-.71-4.87-1a.5.5,0,0,1-.4-.58.51.51,0,0,1,.59-.4c1.64.32,3.29.67,4.9,1a.5.5,0,0,1-.1,1Zm-9.82-1.93h-.08c-1.56-.26-3.13-.51-4.73-.73l-.2,0a.5.5,0,0,1,.14-1l.2,0c1.6.22,3.19.47,4.76.73a.5.5,0,0,1,.41.57A.5.5,0,0,1,189.39,154.87Zm-9.88-1.48h-.08c-1.68-.25-3.33-.52-4.94-.79a.5.5,0,0,1,.16-1c1.61.27,3.25.54,4.93.8a.5.5,0,0,1-.07,1Zm-9.87-1.66h-.09c-1.68-.31-3.32-.62-4.92-.94a.5.5,0,0,1-.39-.59.49.49,0,0,1,.59-.39c1.59.32,3.23.63,4.9.93a.5.5,0,0,1-.09,1Zm-9.8-1.94h-.11c-1.68-.36-3.31-.72-4.89-1.09a.5.5,0,0,1-.37-.6.49.49,0,0,1,.6-.37c1.57.36,3.2.72,4.87,1.08a.5.5,0,0,1,.38.6A.49.49,0,0,1,159.84,149.79Zm-9.74-2.26H150c-1.67-.42-3.29-.84-4.84-1.26a.5.5,0,1,1,.26-1q2.33.63,4.83,1.26a.5.5,0,0,1-.12,1Zm-9.66-2.61-.14,0q-2.52-.74-4.79-1.46a.51.51,0,0,1-.33-.63.5.5,0,0,1,.63-.32c1.51.47,3.1,1,4.77,1.45a.5.5,0,0,1-.14,1Zm-9.53-3a.45.45,0,0,1-.16,0c-1.61-.55-3.2-1.12-4.72-1.7a.5.5,0,1,1,.35-.93c1.52.57,3.1,1.13,4.69,1.68a.5.5,0,0,1,.31.64A.49.49,0,0,1,130.91,141.9Zm-9.35-3.53a.48.48,0,0,1-.2,0c-1.65-.69-3.2-1.37-4.59-2a.5.5,0,1,1,.43-.9c1.37.65,2.9,1.32,4.55,2a.5.5,0,0,1-.19,1Z" style="fill: rgb(255, 255, 255); transform-origin: 192.157px 196.712px 0px;" id="el5g1icvsoe6o" class="animable"></path></g></g></g><g id="freepik--Character--inject-7" style="transform-origin: 182.815px 304.421px 0px;" class="animable"><polygon points="107.79 328.68 107.43 344.25 105.79 415.68 100.38 415.68 98.75 344.25 98.39 328.68 107.79 328.68" style="fill: rgb(38, 50, 56); transform-origin: 103.09px 372.18px 0px;" id="elbgvzhl6f06v" class="animable"></polygon><g id="el6ur47rxeq2b"><polygon points="107.79 328.68 107.43 344.25 105.79 415.68 100.38 415.68 98.75 344.25 98.39 328.68 107.79 328.68" style="fill: rgb(255, 255, 255); opacity: 0.4; isolation: isolate; transform-origin: 103.09px 372.18px 0px;" class="animable" id="elo9cvgxmr1nr"></polygon></g><g id="el7wg5iob1xe6"><polygon points="107.79 328.68 107.43 344.68 98.75 344.68 98.39 328.68 107.79 328.68" style="opacity: 0.2; isolation: isolate; transform-origin: 103.09px 336.68px 0px;" class="animable" id="el586s7pt8j77"></polygon></g><polygon points="137.17 415.43 132.17 329.78 124 329.78 131 415.43 137.17 415.43" style="fill: rgb(38, 50, 56); transform-origin: 130.585px 372.605px 0px;" id="elpfoff0peld" class="animable"></polygon><g id="el76duem1mgqm"><polygon points="130.98 415.43 137.16 415.43 132.62 337.38 132.18 329.68 124 329.68 124.64 337.38 130.98 415.43" style="fill: rgb(255, 255, 255); opacity: 0.5; isolation: isolate; transform-origin: 130.58px 372.555px 0px;" class="animable" id="elpkl8j8lzxvg"></polygon></g><g id="elrystbcr11b"><polygon points="124 329.68 124.63 337.68 132.62 337.68 132.18 329.68 124 329.68" style="opacity: 0.2; isolation: isolate; transform-origin: 128.31px 333.68px 0px;" class="animable" id="elxehw7xkp9u"></polygon></g><polygon points="75.18 415.43 82.17 329.78 74 329.78 69.01 415.43 75.18 415.43" style="fill: rgb(38, 50, 56); transform-origin: 75.59px 372.605px 0px;" id="elf8l40x3vtv" class="animable"></polygon><g id="elfny1u2sqz9h"><polygon points="75.19 415.43 81.54 337.38 82.17 329.68 74 329.68 73.55 337.38 69.02 415.43 75.19 415.43" style="fill: rgb(255, 255, 255); opacity: 0.5; isolation: isolate; transform-origin: 75.595px 372.555px 0px;" class="animable" id="elvszhkpgxoc"></polygon></g><g id="el6wqf13vlx68"><polygon points="82.17 329.68 81.54 337.68 73.55 337.68 74 329.68 82.17 329.68" style="opacity: 0.2; isolation: isolate; transform-origin: 77.86px 333.68px 0px;" class="animable" id="elqdkmlmnxgv"></polygon></g><path d="M74.63,321h56.92a5,5,0,0,1,5,5v6.69a0,0,0,0,1,0,0H69.63a0,0,0,0,1,0,0V326A5,5,0,0,1,74.63,321Z" style="fill: rgb(38, 50, 56); transform-origin: 103.09px 326.845px 0px;" id="el9f4h75h5gqv" class="animable"></path><rect x="66.42" y="326.85" width="73.33" height="5.84" rx="2.01" style="fill: rgb(38, 50, 56); transform-origin: 103.085px 329.77px 0px;" id="elblud33qme2p" class="animable"></rect><g id="elhfeb2zpxg16"><rect x="66.42" y="326.85" width="73.33" height="5.84" rx="2.01" style="fill: rgb(255, 255, 255); opacity: 0.6; isolation: isolate; transform-origin: 103.085px 329.77px 0px;" class="animable" id="elb1w4luycnk"></rect></g><g id="freepik--group--inject-7" style="transform-origin: 144.063px 304.415px 0px;" class="animable"><path d="M173.9,258.11l6.72-1.49s3.26-3.26,3.95-3.75,10.88,1.88,13.75,2.47-.59,6.27-3.36,8.14-12.64,1-12.86,0l-4.7-.09Z" style="fill: rgb(235, 179, 118); transform-origin: 186.649px 258.692px 0px;" id="ellok210l8co" class="animable"></path><path d="M141.32,244.63a44.6,44.6,0,0,1,4.1,7.49c2.67,5.88,4.61,11.74,7.35,13.24,4,2.16,25.35-1.88,25.35-1.88L176.69,257s-13.17,1.92-15.44,0c-4.79-4.12-3.17-17.21-8.48-21.72l-5.18,4.27Z" style="fill: rgb(38, 50, 56); transform-origin: 159.72px 250.638px 0px;" id="el4l82jn4wlg" class="animable"></path><g id="elp7l6frv23xk"><path d="M141.32,244.63a44.6,44.6,0,0,1,4.1,7.49c2.83-3.46,2.47-9.93,2.17-12.65Z" style="opacity: 0.2; isolation: isolate; transform-origin: 144.555px 245.795px 0px;" class="animable" id="elj1yiyhs1njk"></path></g><polygon points="127.45 408.46 135.41 407.36 136.52 388.43 128.56 389.53 127.45 408.46" style="fill: rgb(235, 179, 118); transform-origin: 131.985px 398.445px 0px;" id="eleq9tkfaaly7" class="animable"></polygon><g id="elpae7mwmwptr"><polygon points="128.56 389.53 136.52 388.44 135.89 399.26 127.94 399.96 128.56 389.53" style="opacity: 0.2; isolation: isolate; transform-origin: 132.23px 394.2px 0px;" class="animable" id="el5v6rog2uso3"></polygon></g><path d="M127.77,297.14l-2.06-21.41L83,272.23s-8.37,29.39-2.92,42.15c5.39,12.59,41.62,6,51.89,7.15-6.14,25.11-5.54,74.18-5.54,74.18l14.67,1.12s11.29-52.87,13.57-78C156.19,301.88,142.15,302.3,127.77,297.14Z" style="fill: #1E77F0; transform-origin: 116.51px 334.53px 0px;" id="eli7ra9cw4x6" class="animable"></path><polygon points="124.69 396.4 142.32 397.56 143.83 390.01 124.46 389.11 124.69 396.4" style="fill: #1E77F0; transform-origin: 134.145px 393.335px 0px;" id="elcqswkd4ojxg" class="animable"></polygon><polygon points="145.82 401.38 153.84 401.98 158.87 383.68 150.86 383.11 145.82 401.38" style="fill: rgb(235, 179, 118); transform-origin: 152.345px 392.545px 0px;" id="elilhqm5kngmi" class="animable"></polygon><path d="M155,402.33s0,.05,0,.06a.06.06,0,0,0,.07,0,9.42,9.42,0,0,0,2,.84,2.1,2.1,0,0,0,1.56,0,1,1,0,0,0,.5-.95.68.68,0,0,0-.27-.62,3.29,3.29,0,0,0-2.25-.07,2.89,2.89,0,0,0,1.19-1.62.7.7,0,0,0-.49-.73.93.93,0,0,0-.8,0c-1,.54-1.36,2.78-1.38,2.9h0l-.13,0A.11.11,0,0,0,155,402.33Zm.6-.44-.18.05c.18-.74.59-1.95,1.17-2.26a.55.55,0,0,1,.43-.06l.09,0c.25.11.28.25.27.36C157.27,400.55,156.35,401.45,155.56,401.89Zm0,.41c1-.32,2.52-.61,3-.27a.34.34,0,0,1,.14.31.69.69,0,0,1-.31.6C157.92,403.2,156.89,403,155.59,402.3Z" style="fill: #1E77F0; transform-origin: 157.04px 401.265px 0px;" id="eli084al57euk" class="animable"></path><g id="elyw73i05hkz"><polygon points="150.86 383.11 158.87 383.69 155.99 394.15 148.08 393.18 150.86 383.11" style="opacity: 0.2; isolation: isolate; transform-origin: 153.475px 388.63px 0px;" class="animable" id="el1rft7xtg0kx"></polygon></g><path d="M161.58,392.86l-14.12-4.15s8.43-47.58,17-64.08c-.64-.21-1.49-.48-2.54-.79-1.89-.57-4.4-1.28-7.35-2.1-20.52-5.69-62.11-16.36-62.11-16.36l19-23.73s77.27,13.36,77.25,37.48C188.69,328.75,161.58,392.86,161.58,392.86Z" style="fill: #1E77F0; transform-origin: 140.585px 337.255px 0px;" id="elpbnq6oqtk5" class="animable"></path><polygon points="145.64 389.02 162.64 393.83 165.69 386.76 146.94 381.84 145.64 389.02" style="fill: #1E77F0; transform-origin: 155.665px 387.835px 0px;" id="el333zwsui6z7" class="animable"></polygon><g id="elk1h6hewnkdf"><path d="M161.9,323.84c-1.89-.57-4.4-1.28-7.35-2.1.59-4.84.6-10.39-1.73-13.22-4.63-5.64-16.54-8.95-23.32-10.15-5.67-1-24.72-3-24.72-3s24.72-2.37,50,5C167.26,304,164.83,316.24,161.9,323.84Z" style="opacity: 0.2; isolation: isolate; transform-origin: 134.52px 309.423px 0px;" class="animable" id="el3ks4oh926tb"></path></g><g id="elzwsqqtcik6g"><polygon points="124.69 396.4 142.32 397.56 143.83 390.01 124.46 389.11 124.69 396.4" style="fill: rgb(255, 255, 255); opacity: 0.2; transform-origin: 134.145px 393.335px 0px;" class="animable" id="elhooho42d0v5"></polygon></g><g id="el1ax46bfk4g5"><polygon points="145.64 389.02 162.64 393.83 165.69 386.76 146.94 381.84 145.64 389.02" style="fill: rgb(255, 255, 255); opacity: 0.2; transform-origin: 155.665px 387.835px 0px;" class="animable" id="el7bqscv6zr65"></polygon></g><path d="M154.63,401.16,146,398.74a.56.56,0,0,0-.72.36h0l-2.34,6.76a1.42,1.42,0,0,0,1,1.75c3.05.79,4.54,1,8.37,2.06,2.35.64,6.92,2.15,10.27,2.53s3.64-2.94,2.25-3.4c-3.27-1.09-7.2-4.51-8.9-6.83A2.26,2.26,0,0,0,154.63,401.16Z" style="fill: rgb(38, 50, 56); transform-origin: 154.251px 405.469px 0px;" id="el5siqdca31wm" class="animable"></path><path d="M136.21,407.38l.17,0s.17.06.2.08,0,0,0,.06h.07a10.61,10.61,0,0,0,2.09.42,2.21,2.21,0,0,0,1.53-.3,1,1,0,0,0,.29-1,.68.68,0,0,0-.4-.56,3.28,3.28,0,0,0-2.23.41,2.87,2.87,0,0,0,.8-1.84.79.79,0,0,0-.69-.61,1.22,1.22,0,0,0-.89.21c-.84.73-1,3-1,3.14h0Zm.86-.46-.16.09a4.1,4.1,0,0,1,.67-2.46.56.56,0,0,1,.41-.14h.09c.27.05.33.18.34.29A3.78,3.78,0,0,1,137.07,406.92Zm.12.4c1-.54,2.34-1.12,2.85-.89a.37.37,0,0,1,.2.28.68.68,0,0,1-.18.65C139.66,407.71,138.6,407.69,137.19,407.32Z" style="fill: #1E77F0; transform-origin: 138.373px 405.998px 0px;" id="el45849dqdvfl" class="animable"></path><path d="M136,406.4l-9-.56a.56.56,0,0,0-.62.51h0l-.89,7.1a1.42,1.42,0,0,0,1.31,1.5c3.15.15,4.66.06,8.62.27,2.43.15,7.22.67,10.58.34s2.94-3.63,1.49-3.79c-3.44-.39-8-2.91-10.13-4.83A2.28,2.28,0,0,0,136,406.4Z" style="fill: rgb(38, 50, 56); transform-origin: 137.03px 410.752px 0px;" id="elt8kid9eyakh" class="animable"></path><path d="M126.74,279.16a19.85,19.85,0,0,1,.58-6.93c1.06-4.74,3.73-11.74,10.2-20.47a117,117,0,0,1,15.25-16.56s-22.18-18.41-38-15.72c-15.56,2.64-34.07,57.94-34.07,57.94Z" style="fill: rgb(38, 50, 56); transform-origin: 116.735px 249.186px 0px;" id="elelvtiu45ndm" class="animable"></path><path d="M146.33,228.29a7.14,7.14,0,0,0-4.75,0,6.92,6.92,0,0,1-6.65,5.34,12.08,12.08,0,0,1-2.28-.1c-7.74-1.06-6.89-12.57-6.89-12.57a13.81,13.81,0,0,0,8.06-1.94h0a17.86,17.86,0,0,0,5.28-4.72Z" style="fill: rgb(235, 179, 118); transform-origin: 136.031px 223.973px 0px;" id="elm1fk6dtsd8m" class="animable"></path><g id="elc2u9hpltsvh"><path d="M146.33,228.29a7.14,7.14,0,0,0-4.75,0,6.92,6.92,0,0,1-6.65,5.34c-2-4.93-1.73-10.58-1.11-14.61h0a17.86,17.86,0,0,0,5.28-4.72Z" style="opacity: 0.2; isolation: isolate; transform-origin: 139.848px 223.965px 0px;" class="animable" id="elnoowtwkxvg"></path></g><path d="M152.8,206.53c-4,1-4,5.26,1.21,13.79,4.4-2.76,7.66-10.06,6-12.81S156.32,205.67,152.8,206.53Z" style="fill: rgb(38, 50, 56); transform-origin: 155.193px 212.993px 0px;" id="elrm5vzhjbhxl" class="animable"></path><path d="M136.66,207.41c-2.57,8-4.48,12.6-2.09,18.17,3.6,8.37,14.68,8.55,19.6,1.45,4.42-6.38,7.9-18.45,1.43-24.56a11.51,11.51,0,0,0-18.94,4.94Z" style="fill: rgb(235, 179, 118); transform-origin: 146.321px 215.707px 0px;" id="eljzb32r5yj9" class="animable"></path><path d="M147.54,214.12c-.25.64-.11,1.29.31,1.45s1-.22,1.2-.86.11-1.28-.3-1.45S147.83,213.51,147.54,214.12Z" style="fill: rgb(38, 50, 56); transform-origin: 148.284px 214.414px 0px;" id="elpnvyk3sc8fc" class="animable"></path><path d="M154.8,217c-.25.64-.11,1.29.3,1.45s1-.22,1.21-.86.11-1.29-.3-1.45S155,216.32,154.8,217Z" style="fill: rgb(38, 50, 56); transform-origin: 155.546px 217.294px 0px;" id="eli3jdiiig52" class="animable"></path><path d="M152.31,216.34a24.59,24.59,0,0,0,.92,6.65,4,4,0,0,1-3.27-.63Z" style="fill: rgb(213, 135, 69); transform-origin: 151.595px 219.722px 0px;" id="eldf5i3ilaxzj" class="animable"></path><path d="M142.5,201.67c3.18,2.69,1.19,6.46-7.23,11.79-2.71-4.42-2.38-12.42.34-14.13S139.72,199.33,142.5,201.67Z" style="fill: rgb(38, 50, 56); transform-origin: 138.664px 206.048px 0px;" id="elfwc03yq3sfm" class="animable"></path><path d="M130.48,212.22a8,8,0,0,0,1.82,5.86c1.81,2.14,4.29.9,5.1-1.63.74-2.29.67-6.16-1.78-7.38S130.73,209.63,130.48,212.22Z" style="fill: rgb(235, 179, 118); transform-origin: 134.129px 213.926px 0px;" id="elw9fid2sy7gr" class="animable"></path><path d="M151.14,216.94c-.76,2-2.76,3.19-4.46,2.55s-2.48-2.8-1.72-4.84,2.75-3.19,4.46-2.56S151.89,214.89,151.14,216.94Z" style="fill: none; stroke: rgb(38, 50, 56); stroke-linecap: round; stroke-linejoin: round; stroke-width: 0.526291px; transform-origin: 148.049px 215.791px 0px;" id="elvmwt0y981b" class="animable"></path><path d="M159.64,219.93c-.76,2-2.76,3.19-4.46,2.56s-2.48-2.8-1.72-4.84,2.75-3.19,4.46-2.56S160.39,217.89,159.64,219.93Z" style="fill: none; stroke: rgb(38, 50, 56); stroke-linecap: round; stroke-linejoin: round; stroke-width: 0.526291px; transform-origin: 156.549px 218.788px 0px;" id="el6ep76jtr5rb" class="animable"></path><path d="M151.14,216.94a1.87,1.87,0,0,1,2.32.71" style="fill: none; stroke: rgb(38, 50, 56); stroke-linecap: round; stroke-linejoin: round; stroke-width: 0.526291px; transform-origin: 152.3px 217.218px 0px;" id="elk6a31vzj96" class="animable"></path><line x1="144.96" y1="214.65" x2="137.68" y2="211.22" style="fill: none; stroke: rgb(38, 50, 56); stroke-linecap: round; stroke-linejoin: round; stroke-width: 0.526291px; transform-origin: 141.32px 212.935px 0px;" id="el6o31uf7smkx" class="animable"></line><path d="M144.9,210.49a.48.48,0,0,0,.45,0,3.44,3.44,0,0,1,3.06-.43.42.42,0,1,0,.34-.77h0a4.21,4.21,0,0,0-3.86.48.41.41,0,0,0-.14.58h0A.71.71,0,0,0,144.9,210.49Z" style="fill: rgb(38, 50, 56); transform-origin: 146.842px 209.786px 0px;" id="elh1466l2uub" class="animable"></path><path d="M158.44,215.16a.52.52,0,0,0,.23.1.43.43,0,0,0,.39-.46h0a4.23,4.23,0,0,0-2.09-3.3.42.42,0,0,0-.57.18h0a.44.44,0,0,0,.19.58h0a3.44,3.44,0,0,1,1.61,2.64A.46.46,0,0,0,158.44,215.16Z" style="fill: rgb(38, 50, 56); transform-origin: 157.709px 213.356px 0px;" id="eltg1b9azo94" class="animable"></path><path d="M143.92,220.82a4.28,4.28,0,0,0,2.55,4.37" style="fill: none; stroke: rgb(38, 50, 56); stroke-linecap: round; stroke-linejoin: round; stroke-width: 0.526291px; transform-origin: 145.183px 223.005px 0px;" id="elgqi0z4wmhnw" class="animable"></path><path d="M136.62,200.05s-1.34-2.82,3-5.29,16.87-3,22.16,5.29c4.84,7.57-1,10.41-8.51,9.72,0,0,3.13-.17,3.76-1.09,0,0-10.48.19-15.67-7.48Z" style="fill: rgb(38, 50, 56); transform-origin: 149.987px 201.516px 0px;" id="elibjsgz3e0nl" class="animable"></path><polygon points="186.55 259.79 186.68 262.89 188.09 260.13 191.44 244.97 189.9 244.63 186.55 259.79" style="fill: rgb(38, 50, 56); transform-origin: 188.995px 253.76px 0px;" id="elpplurp7dll8" class="animable"></polygon><polygon points="209.89 264.18 196.64 261.61 175.48 262.89 171.72 264.18 158.76 262.89 146.44 265.35 193.08 265.35 209.89 264.18" style="fill: #1E77F0; transform-origin: 178.165px 263.48px 0px;" id="eldxpqcsbc41c" class="animable"></polygon><g id="elii6gkn2btnr"><polygon points="209.89 264.18 196.64 261.61 175.48 262.89 171.72 264.18 158.76 262.89 146.44 265.35 193.08 265.35 209.89 264.18" style="fill: rgb(255, 255, 255); opacity: 0.7; isolation: isolate; transform-origin: 178.165px 263.48px 0px;" class="animable" id="ell4qsjz8f93"></polygon></g><g id="el8d3q54yw2l"><polygon points="175.48 262.89 185.37 265.46 169.44 265.37 175.48 262.89" style="opacity: 0.2; isolation: isolate; transform-origin: 177.405px 264.175px 0px;" class="animable" id="el1kz25wppfnp"></polygon></g><g id="elpi69puh5n79"><polygon points="158.76 262.89 166.48 265.35 146.44 265.35 158.76 262.89" style="opacity: 0.2; isolation: isolate; transform-origin: 156.46px 264.12px 0px;" class="animable" id="el7q7v8kp5ui7"></polygon></g><g id="elazfx76ll9ii"><path d="M114.23,267a44.48,44.48,0,0,0,13.09,5.24c1.06-4.74,3.73-11.74,10.2-20.47-2.74,0-7.1,0-8.68,0-2.38.1-9.33-16.58-9.33-16.58l-10.81-5.31S103.68,260.43,114.23,267Z" style="opacity: 0.2; isolation: isolate; transform-origin: 122.513px 251.06px 0px;" class="animable" id="elkpti3a27m39"></path></g><path d="M145.18,259.43l7.12,1.32a46.42,46.42,0,0,1,6.76-1.32c1.72,0,9.5,2.47,9.62,3.46s-3.15,5.56-4.07,6.26-7.68-1-7.68-1-4.63.46-5.79-1.17l-7.24-1Z" style="fill: rgb(235, 179, 118); transform-origin: 156.292px 264.375px 0px;" id="ellzjkm7mcjv" class="animable"></path><path d="M113.68,219.74c7.44-2.09,9.61,27.13,12.78,32.14S149,258.69,149,258.69L147.42,267s-18.58,0-27.52-2.8c-6.14-1.93-11.6-29.15-11.21-34.29S109.44,220.94,113.68,219.74Z" style="fill: rgb(38, 50, 56); transform-origin: 128.835px 243.317px 0px;" id="el60e26r0l7nw" class="animable"></path></g><polygon points="178.98 415.43 168.68 271.98 176.81 271.98 185.24 415.43 178.98 415.43" style="fill: rgb(38, 50, 56); transform-origin: 176.96px 343.705px 0px;" id="elkliribtexl" class="animable"></polygon><g id="el46skeb7t11"><polygon points="178.98 415.43 169.22 279.6 168.68 272.23 176.81 272.23 177.25 279.6 185.24 415.43 178.98 415.43" style="fill: rgb(255, 255, 255); opacity: 0.4; isolation: isolate; transform-origin: 176.96px 343.83px 0px;" class="animable" id="el73zdy9hs89f"></polygon></g><g id="elkomyd1qfmwl"><polygon points="177.25 279.23 169.22 279.23 168.68 272.23 176.81 272.23 177.25 279.23" style="opacity: 0.2; isolation: isolate; transform-origin: 172.965px 275.73px 0px;" class="animable" id="elgfg4tw9lb2"></polygon></g><polygon points="224.58 415.43 223.64 271.98 231.77 271.98 230.83 415.43 224.58 415.43" style="fill: rgb(38, 50, 56); transform-origin: 227.705px 343.705px 0px;" id="elltj970l3sd" class="animable"></polygon><g id="eljjmffezy3zf"><polygon points="230.84 415.43 224.58 415.43 223.81 296.95 223.65 272.23 231.78 272.23 231.62 296.95 230.84 415.43" style="fill: rgb(255, 255, 255); opacity: 0.5; isolation: isolate; transform-origin: 227.715px 343.83px 0px;" class="animable" id="eldxvde7trf65"></polygon></g><g id="el7iagksjuuho"><polygon points="231.78 272.23 231.62 297.23 223.81 297.23 223.65 272.23 231.78 272.23" style="opacity: 0.2; isolation: isolate; transform-origin: 227.715px 284.73px 0px;" class="animable" id="el9lulqcwifm9"></polygon></g><polygon points="288.98 415.43 278.68 271.98 286.81 271.98 295.24 415.43 288.98 415.43" style="fill: rgb(38, 50, 56); transform-origin: 286.96px 343.705px 0px;" id="eljt8goyqd2w" class="animable"></polygon><g id="elrlqxe8m93ra"><polygon points="288.98 415.43 279.21 279.6 278.68 272.23 286.81 272.23 287.25 279.6 295.24 415.43 288.98 415.43" style="fill: rgb(255, 255, 255); opacity: 0.5; isolation: isolate; transform-origin: 286.96px 343.83px 0px;" class="animable" id="elurgi1znqnmk"></polygon></g><g id="el0ypjc81uf0p"><polygon points="287.25 279.23 279.21 279.23 278.68 272.23 286.81 272.23 287.25 279.23" style="opacity: 0.2; isolation: isolate; transform-origin: 282.965px 275.73px 0px;" class="animable" id="elma1fsy7ugem"></polygon></g><polygon points="110.18 415.43 118.61 271.98 126.74 271.98 116.43 415.43 110.18 415.43" style="fill: rgb(38, 50, 56); transform-origin: 118.46px 343.705px 0px;" id="elaw1kao6rcbf" class="animable"></polygon><g id="elaa221e69qhl"><polygon points="116.43 415.43 110.18 415.43 118.17 279.6 118.61 272.23 126.73 272.23 126.19 279.6 116.43 415.43" style="fill: rgb(255, 255, 255); opacity: 0.5; isolation: isolate; transform-origin: 118.455px 343.83px 0px;" class="animable" id="el0gr8gux5369"></polygon></g><g id="elbdui9wvmcc"><polygon points="118.61 272.23 126.73 272.23 126.19 279.23 118.17 279.23 118.61 272.23" style="opacity: 0.2; isolation: isolate; transform-origin: 122.45px 275.73px 0px;" class="animable" id="el75g6ow0l2w4"></polygon></g><path d="M112.17,268.15H293.25a0,0,0,0,1,0,0v5.51a2.16,2.16,0,0,1-2.16,2.16H114.33a2.16,2.16,0,0,1-2.16-2.16v-5.51A0,0,0,0,1,112.17,268.15Z" style="fill: rgb(38, 50, 56); transform-origin: 202.71px 271.985px 0px;" id="elgl3vy2tx224" class="animable"></path><g id="el5s1v8ib4ir"><g style="opacity: 0.6; isolation: isolate; transform-origin: 202.71px 271.985px 0px;" class="animable" id="el28w0zkwr298"><path d="M112.17,268.15H293.25a0,0,0,0,1,0,0v5.51a2.16,2.16,0,0,1-2.16,2.16H114.33a2.16,2.16,0,0,1-2.16-2.16v-5.51A0,0,0,0,1,112.17,268.15Z" style="fill: rgb(255, 255, 255); transform-origin: 202.71px 271.985px 0px;" id="eliucvitaxu6k" class="animable"></path></g></g><g id="elums2z5dmtv8"><rect x="112.17" y="268.15" width="181.08" height="3.84" style="opacity: 0.2; isolation: isolate; transform-origin: 202.71px 270.07px 0px;" class="animable" id="el07bbed5y9wuv"></rect></g><path d="M297.05,269.15H108.37a2.17,2.17,0,0,1-2.16-2.17h0a2.16,2.16,0,0,1,2.16-2.16H297.05a2.16,2.16,0,0,1,2.16,2.16h0A2.17,2.17,0,0,1,297.05,269.15Z" style="fill: rgb(38, 50, 56); transform-origin: 202.71px 266.985px 0px;" id="el2pcibqr9uoc" class="animable"></path><g id="elagd5d6beems"><g style="opacity: 0.6; isolation: isolate; transform-origin: 202.71px 266.985px 0px;" class="animable" id="el6pzc3w8w1hi"><path d="M297.05,269.15H108.37a2.17,2.17,0,0,1-2.16-2.17h0a2.16,2.16,0,0,1,2.16-2.16H297.05a2.16,2.16,0,0,1,2.16,2.16h0A2.17,2.17,0,0,1,297.05,269.15Z" style="fill: rgb(255, 255, 255); transform-origin: 202.71px 266.985px 0px;" id="el4nv152stplo" class="animable"></path></g></g><path d="M271.19,265H252.83a3.58,3.58,0,0,1-2.17-.92h22.69A3.57,3.57,0,0,1,271.19,265Z" style="fill: #1E77F0; transform-origin: 262.005px 264.54px 0px;" id="elyzdsdiyqnhd" class="animable"></path><path d="M268.59,251.43c-.36.09-.71.2-1,.3h-.42a4.39,4.39,0,0,0-3.13-.09l.22.09h-.45a1.57,1.57,0,0,1,.23-.09,4.39,4.39,0,0,0-3,0,4.37,4.37,0,0,0-3.22.06l-.1,0h0l-.13,0c-.31-.1-.65-.21-1-.3-1.24-.3-1.34.3-1.34.3l0,0a7.19,7.19,0,0,1,.64.73l0,.06c.19.28.32.55.25.72H255a1.76,1.76,0,0,0-1.85,1.62v2.58a1.54,1.54,0,0,0,.55,1.15l2.35,2.06a1.85,1.85,0,0,0,.76.4,6.15,6.15,0,0,0,5.48,3.08h.88c3.33,0,6-2.39,6-5.3v-4.78a3.63,3.63,0,0,1,.34-1.52l.4-.84S269.83,251.13,268.59,251.43Zm-14.19,7.05c-.63-.56-.66-.53-.66-1.3v-2.35a1.12,1.12,0,0,1,1.17-1h.51a.78.78,0,0,1,.82.71c0,1.61.05,5.38.06,5.44Z" style="fill: #1E77F0; transform-origin: 261.53px 257.709px 0px;" id="elza4j8jbc5rl" class="animable"></path><path d="M262.25,242.32a14.6,14.6,0,0,1-1.49-4.57c-.17-1.63,1.46-4.33,1.46-4.33a7.16,7.16,0,0,0-2.59,4.71,7.9,7.9,0,0,0,1.24,5.42,11.8,11.8,0,0,0,2.45,2.53C263.55,244.79,262.78,243.48,262.25,242.32Z" style="fill: #1E77F0; transform-origin: 261.46px 239.75px 0px;" id="elik2utvyty6" class="animable"></path><g id="el9bfjlyqm1pm"><g style="opacity: 0.2; isolation: isolate; transform-origin: 262.005px 264.54px 0px;" class="animable" id="elnfq5jamtbp"><g id="eltvchr4del7d"><path d="M271.19,265H252.83a3.58,3.58,0,0,1-2.17-.92h22.69A3.57,3.57,0,0,1,271.19,265Z" style="fill: rgb(255, 255, 255); opacity: 0.4; transform-origin: 262.005px 264.54px 0px;" class="animable" id="elhhoqza9blbm"></path></g></g></g><g id="el2l6fw6jcw44"><path d="M268.59,251.43c-.36.09-.71.2-1,.3h-.42a4.39,4.39,0,0,0-3.13-.09l.22.09h-.45a1.57,1.57,0,0,1,.23-.09,4.39,4.39,0,0,0-3,0,4.37,4.37,0,0,0-3.22.06l-.1,0h0l-.13,0c-.31-.1-.65-.21-1-.3-1.24-.3-1.34.3-1.34.3l0,0a7.19,7.19,0,0,1,.64.73l0,.06c.19.28.32.55.25.72H255a1.76,1.76,0,0,0-1.85,1.62v2.58a1.54,1.54,0,0,0,.55,1.15l2.35,2.06a1.85,1.85,0,0,0,.76.4,6.15,6.15,0,0,0,5.48,3.08h.88c3.33,0,6-2.39,6-5.3v-4.78a3.63,3.63,0,0,1,.34-1.52l.4-.84S269.83,251.13,268.59,251.43Zm-14.19,7.05c-.63-.56-.66-.53-.66-1.3v-2.35a1.12,1.12,0,0,1,1.17-1h.51a.78.78,0,0,1,.82.71c0,1.61.05,5.38.06,5.44Z" style="fill: rgb(255, 255, 255); opacity: 0.3; isolation: isolate; transform-origin: 261.53px 257.709px 0px;" class="animable" id="elngucq8mly1f"></path></g><g id="elo8sjedrcz7"><path d="M262.25,242.32a14.6,14.6,0,0,1-1.49-4.57c-.17-1.63,1.46-4.33,1.46-4.33a7.16,7.16,0,0,0-2.59,4.71,7.9,7.9,0,0,0,1.24,5.42,11.8,11.8,0,0,0,2.45,2.53C263.55,244.79,262.78,243.48,262.25,242.32Z" style="fill: rgb(255, 255, 255); opacity: 0.8; isolation: isolate; transform-origin: 261.46px 239.75px 0px;" class="animable" id="elpg56v2r0h0a"></path></g><polygon points="242.21 253.67 248.41 264.94 245.71 264.94 239.16 258.15 242.21 253.67" style="fill: #1E77F0; transform-origin: 243.785px 259.305px 0px;" id="el3udcaza9o43" class="animable"></polygon><polygon points="243.15 264.94 217.56 264.94 222.11 246.63 247.69 246.63 243.15 264.94" style="fill: #1E77F0; transform-origin: 232.625px 255.785px 0px;" id="eldb39oalucm8" class="animable"></polygon><g id="elaclbf3u4b6b"><polygon points="243.15 264.94 217.56 264.94 222.11 246.63 247.69 246.63 243.15 264.94" style="opacity: 0.2; isolation: isolate; transform-origin: 232.625px 255.785px 0px;" class="animable" id="elq7s12tvlnfa"></polygon></g><polygon points="242.15 264.94 216.56 264.94 221.11 246.63 246.69 246.63 242.15 264.94" style="fill: #1E77F0; transform-origin: 231.625px 255.785px 0px;" id="elsc8yhgjsgc" class="animable"></polygon><g id="elgviulskldb9"><polygon points="240.62 263.13 218.99 263.13 222.64 248.44 244.27 248.44 240.62 263.13" style="fill: rgb(255, 255, 255); opacity: 0.6; isolation: isolate; transform-origin: 231.63px 255.785px 0px;" class="animable" id="elkvpqwmjvi48"></polygon></g><path d="M237.73,251.46a3.85,3.85,0,0,0-4.58-2.65c-3.75.57-5.76,3.78-5.41,5.67a4.06,4.06,0,0,1-3,4.27c-1.64.34-3,2.23-2.7,2.86s-.9,1.52-.9,1.52h13.69Z" style="fill: rgb(38, 50, 56); transform-origin: 229.435px 255.918px 0px;" id="elvtlivzwwou" class="animable"></path><path d="M235.68,259.33a.93.93,0,0,1-.24.19,3.27,3.27,0,0,0-1.17,1.34,6.13,6.13,0,0,0-.59,2.27H229.4a2.5,2.5,0,0,0,.88-.74,4,4,0,0,0,.66-2.87,37.59,37.59,0,0,1,3.89-.44C235.46,259.05,235.87,259.11,235.68,259.33Z" style="fill: rgb(235, 179, 118); transform-origin: 232.563px 261.101px 0px;" id="elt1tqxvqdck8" class="animable"></path><g id="elqgtlm49aln"><path d="M235.68,259.33a.93.93,0,0,1-.24.19,3.27,3.27,0,0,0-1.17,1.34c-1.21.86-2.8,1.76-4,1.53a4,4,0,0,0,.66-2.87,37.59,37.59,0,0,1,3.89-.44Z" style="opacity: 0.2; isolation: isolate; transform-origin: 232.975px 260.753px 0px;" class="animable" id="el72ewx1z4wgu"></path></g><path d="M232.5,251.57s-3.75,5.54-3.23,7.33,3.35,2.09,4.71,1.68,5.18-6.88,5.18-6.88S234.6,250.63,232.5,251.57Z" style="fill: rgb(235, 179, 118); transform-origin: 234.19px 256.067px 0px;" id="elkqp6b0nt3c" class="animable"></path><path d="M234.13,252.05s-1.1,3.6.39,5.26-1.45,5.82-1.45,5.82H238s1-.67.05-1.95.53-3.18,1.27-4.38,1.64-4.13.76-5.32S234.5,250,234.13,252.05Z" style="fill: rgb(38, 50, 56); transform-origin: 236.757px 256.839px 0px;" id="eln53s2wx594" class="animable"></path><path d="M231.58,255.13l-1.9,1.19a1.3,1.3,0,0,0,1,.52Z" style="fill: rgb(213, 135, 69); transform-origin: 230.63px 255.985px 0px;" id="elfayletmk86m" class="animable"></path></g><defs>     <filter id="active" height="200%">         <feMorphology in="SourceAlpha" result="DILATED" operator="dilate" radius="2"></feMorphology>                <feFlood flood-color="#32DFEC" flood-opacity="1" result="PINK"></feFlood>        <feComposite in="PINK" in2="DILATED" operator="in" result="OUTLINE"></feComposite>        <feMerge>            <feMergeNode in="OUTLINE"></feMergeNode>            <feMergeNode in="SourceGraphic"></feMergeNode>        </feMerge>    </filter>    <filter id="hover" height="200%">        <feMorphology in="SourceAlpha" result="DILATED" operator="dilate" radius="2"></feMorphology>                <feFlood flood-color="#ff0000" flood-opacity="0.5" result="PINK"></feFlood>        <feComposite in="PINK" in2="DILATED" operator="in" result="OUTLINE"></feComposite>        <feMerge>            <feMergeNode in="OUTLINE"></feMergeNode>            <feMergeNode in="SourceGraphic"></feMergeNode>        </feMerge>            <feColorMatrix type="matrix" values="0   0   0   0   0                0   1   0   0   0                0   0   0   0   0                0   0   0   1   0 "></feColorMatrix>    </filter></defs></svg>